<svg width="144" height="36" viewBox="0 0 144 36" fill="none" xmlns="http://www.w3.org/2000/svg">
<path d="M101.218 21.0599C102.136 20.2995 103.026 19.5623 103.945 18.8005C104.798 19.4341 105.013 20.3535 105.106 21.3923C106.152 20.518 107.163 19.6731 108.204 18.8033C108.951 19.6812 109.948 20.3134 110.446 21.4648C111.512 20.5737 112.556 19.7004 113.638 18.7952C114.196 19.395 114.774 19.948 115.27 20.567C115.853 21.295 116.104 22.1612 116.101 23.102C116.095 25.144 116.077 27.1861 116.108 29.2278C116.126 30.4186 115.673 31.3576 114.795 32.1169C114.209 32.624 113.56 33.0275 112.77 33.3215C112.77 33.1262 112.77 32.9877 112.77 32.8492C112.77 29.6131 112.767 26.3771 112.773 23.141C112.774 22.6857 112.713 22.2706 112.261 22.0472C111.759 21.799 111.261 21.8895 110.79 22.1452C110.722 22.1822 110.673 22.3175 110.673 22.4077C110.667 24.8436 110.666 27.2795 110.671 29.7158C110.671 30.1867 110.887 30.5631 111.28 30.8856C110.457 31.5824 109.652 32.2646 108.818 32.971C108.688 32.8528 108.559 32.7526 108.451 32.6326C107.736 31.836 107.374 30.902 107.372 29.828C107.367 27.6311 107.357 25.4342 107.357 23.2369C107.357 22.7394 107.323 22.2642 106.793 22.0287C106.225 21.7766 105.696 21.9282 105.201 22.239C105.132 22.282 105.088 22.4158 105.088 22.5078C105.082 24.9675 105.068 27.428 105.102 29.8873C105.107 30.2162 105.362 30.5418 105.531 30.9385C104.775 31.5622 103.933 32.2558 103.034 32.9973C102.786 32.7032 102.523 32.4458 102.324 32.1457C101.859 31.4411 101.652 30.6484 101.651 29.8063C101.645 27.3584 101.642 24.9104 101.65 22.4627C101.651 21.957 101.571 21.4896 101.218 21.0599Z" fill="url(#paint0_linear_3008_18886)"/>
<path d="M47.3981 18.7952C48.0773 19.2814 48.3219 19.8492 48.5474 21.4615C49.0758 21.0077 49.582 20.5734 50.0875 20.1384C50.5982 19.6991 51.1078 19.2588 51.6392 18.8005C52.5821 19.7884 53.6732 20.6483 53.9522 22.1172C54.0159 22.4523 54.05 22.799 54.0513 23.1405C54.0605 25.1465 54.0295 27.1532 54.0656 29.1584C54.0874 30.3809 53.6535 31.3459 52.7756 32.1259C52.2071 32.6312 51.5734 33.0207 50.8288 33.3215C50.8288 33.1457 50.8288 33.0083 50.8288 32.8713C50.8288 29.6425 50.8288 26.4141 50.8288 23.1853C50.8288 22.1362 50.189 21.6599 49.2175 21.9872C49.1092 22.0236 49.0066 22.078 48.9004 22.1207C48.6006 22.2411 48.4926 22.4445 48.4953 22.7965C48.5134 24.9925 48.5124 27.1885 48.4991 29.3844C48.4957 29.9536 48.5325 30.4822 49.0659 30.8364C48.2085 31.5638 47.3865 32.2608 46.5526 32.9681C45.6993 32.2442 45.2751 31.3025 45.2101 30.21C45.1481 29.169 45.1699 28.1224 45.1661 27.0779C45.1604 25.5349 45.1573 23.9918 45.1692 22.4487C45.1733 21.947 45.1045 21.4809 44.7601 21.0462C45.6482 20.2884 46.526 19.5392 47.3981 18.7952Z" fill="#333333"/>
<path d="M99.3539 25.7467C99.3539 26.6192 99.3439 27.4921 99.3564 28.3646C99.3739 29.6204 98.8779 30.6366 97.9343 31.4483C95.9747 33.1343 92.6878 33.0984 90.7672 31.3704C89.8821 30.5743 89.4237 29.5902 89.4302 28.3923C89.4391 26.7188 89.4323 25.0452 89.4323 23.3716C89.4323 21.3435 90.3974 19.8929 92.3234 19.2046C94.5018 18.4259 96.5186 18.7317 98.2368 20.3484C98.9942 21.0609 99.3528 21.9768 99.3535 23.0207C99.3546 23.9298 99.3539 24.8383 99.3539 25.7467ZM92.8104 25.8704C92.7893 25.8704 92.7679 25.8704 92.7468 25.8704C92.7468 26.7671 92.7307 27.6642 92.7514 28.5602C92.7704 29.3623 92.8447 30.1619 93.2184 30.8954C93.463 31.3758 93.8342 31.6947 94.4045 31.6901C94.9581 31.6858 95.3654 31.391 95.5506 30.9039C95.7519 30.3745 95.955 29.8092 95.9722 29.2542C96.0358 27.2002 96.0391 25.1437 96.0308 23.0879C96.0276 22.3106 95.9121 21.5363 95.546 20.8287C95.3032 20.3597 94.9681 19.9985 94.3838 20.0031C93.8167 20.0074 93.4501 20.3452 93.2603 20.8198C93.0586 21.3243 92.8598 21.8627 92.8301 22.3956C92.7661 23.5508 92.8104 24.7117 92.8104 25.8704Z" fill="url(#paint1_linear_3008_18886)"/>
<path d="M88.154 29.4158C88.2189 29.8247 88.2403 30.1804 87.8089 30.4683C87.2869 30.8173 86.7967 31.2188 86.328 31.6352C84.6308 33.1417 81.1763 33.1403 79.3238 30.9394C78.124 29.5141 77.6753 27.857 77.6444 26.0558C77.619 24.5688 77.832 23.1279 78.5594 21.7967C80.1503 18.8855 83.1307 18.3835 85.3303 19.0658C87.1555 19.632 88.2073 21.2103 87.9991 22.982C87.8942 23.8744 87.2433 24.5234 86.4006 24.5805C85.7435 24.6252 85.1819 24.4446 84.8289 23.8727C84.4502 23.2589 84.477 22.6107 84.8231 21.998C84.9911 21.7005 85.2508 21.4513 85.4772 21.1868C85.8027 20.8063 85.766 20.5532 85.3354 20.2802C84.301 19.6245 82.876 19.9469 82.2342 20.9895C81.8427 21.626 81.6802 22.3377 81.5957 23.0633C81.3823 24.8869 81.3631 26.7087 81.7778 28.5106C81.8728 28.9245 82.0292 29.3363 82.2269 29.714C82.7468 30.7065 83.6451 31.102 84.8311 30.9273C85.959 30.7615 86.9368 30.2766 87.8343 29.6121C87.9214 29.5475 88.0096 29.4843 88.0981 29.4215C88.1057 29.4161 88.1195 29.419 88.154 29.4158Z" fill="url(#paint2_linear_3008_18886)"/>
<path d="M39.1444 18.7952C40.0979 20.2149 41.3768 20.211 42.8191 19.8276C42.1117 20.4917 41.4283 21.1855 40.6883 21.8084C40.2352 22.1897 39.6627 22.268 39.0778 22.1195C38.5465 21.9848 38.1864 21.6476 37.9729 21.1351C37.3008 21.6688 37.3434 22.6119 38.1147 23.1378C38.8221 23.6204 39.5947 24.0006 40.3296 24.4418C40.8345 24.7452 41.3634 25.0267 41.8113 25.4055C42.4638 25.9575 42.8891 26.6933 42.899 27.5835C42.9042 28.0452 42.8349 28.5447 42.6598 28.9655C41.8903 30.8141 40.5788 32.0694 38.6535 32.5703C37.2054 32.9466 36.0106 32.4281 35.2171 31.1181C34.6737 30.2212 34.6734 30.2208 35.4408 29.563C36.1737 28.9348 36.9078 28.3084 37.664 27.6618C37.7313 28.0562 37.767 28.4181 37.8572 28.7648C38.1167 29.7619 38.8221 30.3421 39.6788 30.2931C40.4864 30.2469 40.9172 29.4579 40.5019 28.7408C40.3714 28.5154 40.1724 28.2999 39.9544 28.1662C39.2027 27.7063 38.4356 27.2721 37.6623 26.8513C36.831 26.3987 36.1036 25.8376 35.6379 24.9752C34.9064 23.6207 35.159 22.2423 36.3123 21.248C37.2494 20.4413 38.1819 19.6293 39.1444 18.7952Z" fill="#333333"/>
<path d="M70.6385 19.7576C70.0639 20.3675 69.516 20.9915 68.9219 21.5647C68.5223 21.9501 68.0277 22.1859 67.4551 22.1764C66.724 22.1644 66.1798 21.8457 65.877 21.1392C65.41 21.4967 65.2692 22.0227 65.5495 22.5519C65.6821 22.8022 65.8807 23.055 66.1118 23.2023C66.8033 23.643 67.5126 24.0586 68.2393 24.4334C68.9137 24.7814 69.5601 25.1547 70.0489 25.7604C70.7896 26.6788 71.0429 27.7099 70.5978 28.8405C69.8263 30.8003 68.4598 32.1005 66.4461 32.5923C65.0029 32.9445 63.7915 32.3318 63.0412 30.9498C62.6252 30.1837 62.6249 30.1834 63.2627 29.6352C63.9512 29.0433 64.6396 28.452 65.3294 27.8619C65.4049 27.7974 65.4893 27.7438 65.569 27.6856C65.6524 28.1147 65.6955 28.5275 65.8151 28.9149C66.0995 29.8382 66.779 30.3413 67.5987 30.2849C68.3599 30.2324 68.7865 29.5062 68.4314 28.8092C68.3039 28.5589 68.094 28.3124 67.8616 28.1675C67.0962 27.6909 66.3094 27.2499 65.5194 26.8169C64.4694 26.2412 63.6131 25.4819 63.2696 24.2617C62.9517 23.1329 63.2241 22.1475 64.0886 21.373C65.059 20.5036 66.0506 19.6596 67.0439 18.7952C67.9829 20.1979 69.25 20.224 70.6385 19.7576Z" fill="#333333"/>
<path d="M60.2605 18.7953C60.2605 19.0324 60.2605 19.1697 60.2605 19.3073C60.2605 22.5837 60.2633 25.8601 60.2577 29.1368C60.2566 29.7165 60.3531 30.2455 60.8906 30.6337C60.0553 31.3259 59.2455 31.9973 58.4095 32.6901C57.4707 31.8669 56.9788 30.8574 56.9756 29.6274C56.97 27.478 56.9711 25.3283 56.976 23.179C56.977 22.7109 56.882 22.2805 56.5476 21.8798C57.7626 20.8703 58.9729 19.8649 60.2605 18.7953Z" fill="#333333"/>
<path d="M58.7189 13.7427C59.4289 14.4658 60.1787 15.2297 60.8906 15.9549C60.1859 16.6712 59.4361 17.4334 58.7174 18.1637C58.0146 17.4479 57.2599 16.6788 56.5476 15.9536C57.2523 15.236 58.0029 14.472 58.7189 13.7427Z" fill="#333333"/>
<path d="M32.3606 18.7953C32.3606 19.007 32.3606 19.1293 32.3606 19.252C32.3592 22.6312 32.3592 26.0101 32.3543 29.3893C32.3536 29.8864 32.5266 30.2954 32.9719 30.6357C32.1403 31.3245 31.3251 31.9992 30.491 32.6901C29.5645 31.8852 29.062 30.8937 29.0518 29.6929C29.0332 27.51 29.0413 25.3268 29.0483 23.1438C29.0497 22.6851 28.9515 22.2705 28.629 21.8871C29.853 20.8732 31.0728 19.8624 32.3606 18.7953Z" fill="#333333"/>
<path d="M32.9719 15.9499C32.2527 16.6851 31.5038 17.45 30.805 18.1637C30.1017 17.4483 29.3441 16.6775 28.629 15.9503C29.3448 15.2241 30.1043 14.4533 30.8046 13.7427C31.5057 14.4568 32.2557 15.2206 32.9719 15.9499Z" fill="#333333"/>
<path d="M73.2603 31.191C73.2623 30.3103 73.9429 29.6217 74.8106 29.6221C75.7012 29.6224 76.3689 30.3106 76.3623 31.2211C76.3557 32.1011 75.6682 32.7876 74.8009 32.7799C73.9478 32.7722 73.2582 32.0612 73.2603 31.191Z" fill="#333333"/>
<path d="M14.6365 28.2441C15.3886 27.4461 15.5351 26.4605 15.5422 25.4581C15.5634 22.369 15.5535 19.2796 15.5461 16.1902C15.5432 15.0752 15.9053 14.1334 16.7493 13.3899C17.6985 12.5538 18.6452 11.7148 19.5841 10.8677C21.5118 9.12819 24.1817 9.97533 24.7808 12.5167C25.1411 14.0451 24.8098 15.4591 24.096 16.809C23.4519 18.0279 22.5261 18.9951 21.4138 19.7899C21.3579 19.8297 21.3041 19.8728 21.2156 19.9401C21.8172 20.0231 22.3771 20.0797 22.9281 20.1841C23.2994 20.2546 23.6681 20.3657 24.0199 20.5056C25.8999 21.2545 26.8565 22.8711 26.7613 24.9232C26.6148 28.0803 24.9181 30.1492 22.2401 31.5002C20.677 32.2886 19.0055 32.7757 17.2236 32.6774C16.8495 32.6568 16.4471 32.6016 16.1162 32.4403C14.1867 31.5002 12.2852 31.7306 10.3815 32.5005C10.2828 32.5404 10.183 32.577 10.0832 32.6133C10.0747 32.6166 10.0616 32.6066 10.0163 32.5902C10.5967 31.7598 11.2613 31.0234 12.0357 30.3892C13.1965 29.4388 14.49 28.8011 16.0093 28.6992C17.1914 28.6202 18.2962 28.9075 19.3594 29.4C19.4868 29.4591 19.6117 29.5236 19.7943 29.6133C19.7943 29.432 19.7943 29.2953 19.7943 29.1586C19.7943 24.9318 19.7918 20.7047 19.7975 16.4779C19.7982 15.9804 19.8598 15.4758 19.2532 15.2195C19.5356 14.9438 19.7706 14.7142 19.9975 14.4923C20.2254 14.7209 20.4501 14.946 20.6872 15.1838C20.6886 15.1749 20.6929 15.2077 20.6801 15.2166C20.2215 15.5421 20.145 15.995 20.1649 16.5302C20.201 17.5109 20.1751 18.4937 20.1751 19.4754C20.1751 19.6029 20.1751 19.7304 20.1751 19.8579C20.2155 19.88 20.2555 19.902 20.2958 19.9245C20.5637 19.604 20.8716 19.3088 21.0914 18.958C21.7079 17.9756 21.8572 16.8585 21.9107 15.7269C21.9521 14.8477 21.8632 13.9788 21.5677 13.1459C21.4654 12.8572 21.3257 12.5673 21.142 12.3244C20.5538 11.5471 19.5066 11.5774 19.0334 12.4299C18.8009 12.849 18.6622 13.3778 18.6569 13.8588C18.6229 16.9597 18.6048 20.0619 18.6473 23.1624C18.6763 25.2662 17.5523 27.0502 15.4976 27.924C15.2166 28.0433 14.9239 28.138 14.6365 28.2441ZM20.2137 20.5975C20.1971 20.6737 20.179 20.7185 20.179 20.7634C20.1772 23.7179 20.1748 26.6727 20.1787 29.6272C20.179 29.9665 20.5616 30.1795 20.8571 30.0103C21.5571 29.6104 22.0904 29.0393 22.484 28.3396C23.1727 27.1146 23.3864 25.7818 23.3079 24.3962C23.2548 23.4604 22.9943 22.5823 22.4231 21.8253C21.8717 21.0953 21.1328 20.6943 20.2137 20.5975Z" fill="#333333"/>
<path d="M14.979 15.0058C14.7159 15.8135 14.693 16.6294 14.6941 17.4501C14.6979 19.8643 14.6638 22.2791 14.7046 24.6925C14.743 26.9399 13.6132 28.3862 11.6007 29.2856C11.397 29.3767 11.1856 29.4506 10.9766 29.53C10.9583 29.5369 10.9326 29.5259 10.8718 29.5186C11.6363 28.8388 11.6634 27.9517 11.6637 27.0574C11.6644 25.9487 11.6637 24.8396 11.6637 23.7308C11.6637 23.605 11.6637 23.4796 11.6637 23.36C10.8974 23.2228 10.4921 23.6037 9.94643 24.9884C9.47392 23.6274 9.11259 22.3275 9.70015 20.9771C10.0207 20.2403 10.5678 19.9079 11.6637 19.7244C11.6637 19.4522 11.6676 19.1686 11.663 18.8851C11.6528 18.2705 11.8421 17.7138 12.2464 17.2529C13.0285 16.3617 13.9735 15.6523 14.979 15.0058Z" fill="#333333"/>
<path d="M8.77527 12.8401C9.40684 11.213 10.1624 9.72905 12.0008 9.36532C12.5789 9.25077 13.118 9.36792 13.627 9.6357C14.0085 9.83653 14.3988 10.0452 14.7272 10.3256C15.7069 11.162 16.7264 11.1282 17.7951 10.5703C17.8797 10.5261 17.9644 10.4818 18.0639 10.4297C18.0706 10.4766 18.0898 10.5171 18.0777 10.5383C17.5262 11.5001 16.8766 12.373 15.9889 13.0216C14.6765 13.9804 13.536 13.9811 12.2197 13.0346C12.1609 12.9922 12.1031 12.948 12.0461 12.903C10.9236 12.0178 10.1408 11.9788 8.92794 12.7475C8.87764 12.7791 8.82628 12.8092 8.77527 12.8401Z" fill="#333333"/>
<path d="M73.2603 31.1917C73.2623 30.3106 73.9427 29.6217 74.8101 29.6221C75.7005 29.6224 76.368 30.3109 76.3614 31.2218C76.3548 32.1022 75.6675 32.789 74.8004 32.7813C73.9476 32.7735 73.2582 32.0622 73.2603 31.1917Z" fill="url(#paint3_linear_3008_18886)"/>
<path d="M17.8215 10.7103C16.6925 11.9529 15.3757 13.0969 14.0003 14.1838C13.2999 14.7373 12.5842 15.2789 11.8611 15.813C11.2883 16.2362 10.827 16.7744 10.086 16.9889C8.35204 17.4907 7.82231 16.236 7.75474 15.1764C7.70318 14.3672 7.86008 13.5176 7.83897 12.7018C7.81786 11.8859 7.59139 11.0705 6.89159 10.5886C6.12547 10.061 4.82218 10.0351 3.71704 10.5254C2.6119 11.0156 1.76848 11.9941 1.66275 12.9086C1.274 10.995 2.39574 8.68333 4.39539 7.01136C6.39504 5.33939 9.18315 4.32399 11.7354 4.22677C14.2875 4.12962 16.5767 4.91692 18.0808 6.26858C18.7523 6.87221 19.2919 7.64698 19.1295 8.56734C18.9983 9.31022 18.4292 10.0414 17.8215 10.7103Z" fill="#C50003"/>
<path d="M14.8195 10.1497C14.3058 10.6628 13.7497 11.1435 13.0859 11.5416C12.3871 11.9608 11.5261 12.2384 10.8048 12.1284C10.3027 12.0518 9.91413 11.7956 9.64066 11.4798C9.09467 10.8492 9.20146 10.0244 8.69917 9.38379C7.85847 8.31178 5.61145 8.23538 4.04179 9.22546C3.57002 9.52308 3.1621 9.89606 2.65968 10.1508C2.43226 10.2661 2.1708 10.35 1.92416 10.3809C1.6041 11.2451 1.5014 12.1156 1.66406 12.9163C1.76993 12.0018 2.61321 11.0234 3.71835 10.5331C4.82349 10.0428 6.12678 10.0687 6.8929 10.5963C7.59269 11.0782 7.81917 11.8937 7.84028 12.7095C7.86139 13.5253 7.70449 14.3749 7.75605 15.1841C7.82357 16.2436 8.35349 17.4984 10.0873 16.9966C10.8284 16.7821 11.2896 16.2439 11.8625 15.8207C12.5856 15.2866 13.3012 14.745 14.0016 14.1916C15.3769 13.1046 16.6938 11.9606 17.8228 10.718C18.4305 10.0492 18.9997 9.31803 19.1307 8.57531C19.2578 7.85455 18.9545 7.22295 18.4944 6.69313C18.1736 6.88601 17.8691 7.101 17.5905 7.32726C16.5474 8.17462 15.7539 9.2159 14.8195 10.1497Z" fill="#AC2929"/>
<path d="M23.3359 9.70168C23.5073 9.8525 23.4144 10.131 23.1434 10.2697C22.1751 10.7648 21.2669 11.3609 20.4595 12.0319C19.2716 13.0193 18.3147 14.1547 17.1804 15.1792C14.9193 17.2216 11.939 18.8426 8.8758 19.6172C8.66609 19.6702 8.47304 19.6061 8.40855 19.4638C7.89832 18.3379 7.37218 17.1771 6.86098 16.0489C6.77797 15.8657 6.93674 15.6247 7.20182 15.531C9.70485 14.6456 12.0439 13.1977 13.8138 11.4305C14.7181 10.5277 15.4747 9.54786 16.4121 8.66397C17.2833 7.84254 18.3644 7.08525 19.5606 6.74138C19.726 6.69384 19.8891 6.71858 19.9862 6.80449C21.0951 7.78695 22.2248 8.72426 23.3359 9.70168Z" fill="#C2C2C2"/>
<path d="M3.75427 13.0007C3.67847 12.0617 2.77774 11.5504 1.74244 11.8587C0.707132 12.167 -0.0706983 13.1783 0.00510701 14.1173C0.0809123 15.0564 0.981647 15.5677 2.01695 15.2593C3.05225 14.951 3.83008 13.9398 3.75427 13.0007Z" fill="#ECE7E1"/>
<path d="M3.75493 13.001C3.67913 12.0619 2.7784 11.5506 1.74309 11.859C0.707788 12.1673 -0.0700422 13.1785 0.00576314 14.1176C0.0815684 15.0566 0.982303 15.5679 2.01761 15.2596C3.05291 14.9512 3.83074 13.94 3.75493 13.001Z" fill="#C8C8C8"/>
<path d="M0.767949 13.484C1.13227 13.7177 1.5696 13.881 2.08584 13.7668C2.59135 13.655 2.98608 13.2989 3.26757 12.8626C3.37243 12.7001 3.4633 12.5339 3.54476 12.3654C3.13365 11.7337 2.20895 11.5702 1.32986 12.0212C0.869219 12.2576 0.50235 12.6212 0.271628 13.0275C0.398508 13.2168 0.593505 13.372 0.767949 13.484Z" fill="#F3F3F3"/>
<path d="M19.9842 6.80082C19.8873 6.71485 19.724 6.69016 19.5586 6.73771C18.3626 7.08152 17.2814 7.83881 16.4101 8.6603C15.4727 9.54418 14.716 10.5239 13.8118 11.4269C13.4017 11.8363 12.9608 12.2283 12.4947 12.6004C12.3944 12.7365 12.2807 12.8688 12.1601 12.9935C11.6928 13.4763 11.1161 13.8965 10.6627 14.3863C10.2093 14.876 9.88071 15.4849 10.056 15.9672C10.254 16.5119 11.0118 16.7186 11.7354 16.804C12.3187 16.8727 12.9952 16.8783 13.5595 16.5556C14.0402 16.2807 14.3159 15.8389 14.6175 15.4389C15.189 14.681 15.9515 13.9876 16.8305 13.4265C17.9479 12.7133 19.2363 12.219 20.3187 11.4684C21.3006 10.7876 22.0691 9.90501 22.5118 8.98362C21.6688 8.25711 20.8207 7.54178 19.9842 6.80082Z" fill="#F2F2F2"/>
<path d="M130.077 14.8328C130.077 14.8328 132.673 12.1062 136.296 10.7049C139.918 9.30366 140.592 11.3235 137.269 12.1967C133.946 13.0698 130.077 14.8328 130.077 14.8328Z" fill="#FF0004"/>
<path d="M131.218 15.5862C131.218 15.5862 133.824 15.0324 136.737 15.5586C139.65 16.0848 140.282 17.0588 140.055 17.3926C139.673 17.9554 135.788 16.1095 131.218 15.5862Z" fill="#FFB921"/>
<path d="M129.878 16.1182C129.878 16.1182 131.966 17.8523 133.187 20.2962C134.409 22.7401 133.838 23.6493 133.379 23.6246C132.605 23.5831 132.088 19.8187 129.878 16.1182Z" fill="#FFB921"/>
<path d="M127.127 15.6104C127.127 15.6104 124.382 15.4363 121.744 16.3564C119.107 17.2765 118.858 18.3128 119.204 18.606C119.788 19.1001 122.875 16.7596 127.127 15.6104Z" fill="#FFB921"/>
<path d="M127.172 14.4563C127.172 14.4563 124.643 13.3177 121.712 13.1782C118.782 13.0388 118.069 13.8598 118.264 14.2413C118.591 14.8849 122.602 13.9384 127.172 14.4563Z" fill="#FF0004"/>
<path d="M133.172 17.1799C133.172 17.1799 135.944 18.408 137 19.5773C138.056 20.7465 136.861 20.8009 135.649 19.4524C134.436 18.104 133.172 17.1799 133.172 17.1799Z" fill="#FF0004"/>
<path d="M127.927 13.7578C127.927 13.7578 126.306 9.06564 124.419 7.13113C122.533 5.19683 121.319 6.74061 122.778 8.14419C124.237 9.54792 127.927 13.7578 127.927 13.7578Z" fill="#FFB921"/>
<path d="M122.132 35.0852C122.132 35.0852 129.463 16.7188 128.242 16.3422C126.757 15.8843 122.132 35.0852 122.132 35.0852Z" fill="#FFB921"/>
<path d="M128.803 14.2735C128.803 14.2735 129.004 10.4776 130.389 6.3298C131.775 2.18189 133.806 2.65545 132.34 7.18193C130.875 11.7086 128.803 14.2735 128.803 14.2735Z" fill="#FF0004"/>
<path d="M132.409 10.807C132.409 10.807 134.224 7.1843 136.416 5.8349C138.609 4.48555 139.081 5.74128 136.886 7.16342C134.958 8.41284 132.409 10.807 132.409 10.807Z" fill="#FFB921"/>
<path d="M127.108 1.8243C126.142 1.96356 126.794 7.11578 127.899 9.43456C127.899 9.43456 127.841 7.67515 127.949 5.13618C128.057 2.59721 127.737 1.7338 127.108 1.8243Z" fill="#FFB921"/>
<path d="M118.959 8.95205C118.615 9.60815 121.499 10.8904 122.861 11.0028C122.861 11.0028 121.855 10.0289 120.708 9.18046C119.56 8.33194 119.129 8.62854 118.959 8.95205Z" fill="#FF0004"/>
<path d="M125.735 17.6252C125.735 17.6252 122.074 19.3075 121.062 20.8304C120.05 22.3531 121.136 22.8449 122.382 21.1428C123.628 19.4405 125.735 17.6252 125.735 17.6252Z" fill="#FF0004"/>
<path d="M129.679 18.7615C129.679 18.7615 129.755 23.1951 129.367 25.17C128.978 27.145 130.723 27.0319 130.714 24.0234C130.705 21.015 129.679 18.7615 129.679 18.7615Z" fill="#FF0004"/>
<path d="M137.876 13.7171C137.876 13.7171 140.389 12.5694 142.08 13.1659C143.771 13.7623 141.307 14.5826 137.876 13.7171Z" fill="#FFB921"/>
<path d="M136.227 23.4088C136.647 23.5449 137.083 23.3626 137.2 23.0018C137.316 22.6409 137.07 22.2381 136.65 22.102C136.23 21.966 135.795 22.1482 135.678 22.5091C135.561 22.87 135.807 23.2728 136.227 23.4088Z" fill="#FFB921"/>
<path d="M141.963 18.0685C142.402 18.2104 142.856 18.0202 142.978 17.6437C143.1 17.2672 142.843 16.847 142.405 16.705C141.966 16.5631 141.512 16.7532 141.39 17.1297C141.268 17.5062 141.525 17.9265 141.963 18.0685Z" fill="#FFB921"/>
<path d="M143.06 12.6489C143.352 12.7435 143.655 12.6168 143.736 12.3658C143.817 12.1148 143.646 11.8346 143.354 11.7399C143.062 11.6453 142.759 11.7721 142.678 12.0231C142.596 12.2741 142.767 12.5543 143.06 12.6489Z" fill="#FF0004"/>
<path d="M140.125 10.0879C140.533 10.22 140.956 10.0431 141.069 9.69268C141.183 9.34228 140.944 8.95113 140.536 8.81903C140.128 8.68692 139.705 8.86389 139.591 9.21429C139.478 9.56469 139.717 9.95584 140.125 10.0879Z" fill="#FFB921"/>
<path d="M139.021 4.87865C139.216 4.94174 139.418 4.85722 139.472 4.68989C139.526 4.52255 139.412 4.33576 139.217 4.27267C139.022 4.20959 138.82 4.2941 138.766 4.46143C138.712 4.62877 138.826 4.81556 139.021 4.87865Z" fill="#FF0004"/>
<path d="M133.184 3.30086C133.532 3.41325 133.891 3.2627 133.988 2.96459C134.084 2.66648 133.881 2.33371 133.534 2.22132C133.187 2.10893 132.827 2.25949 132.73 2.55759C132.634 2.8557 132.837 3.18847 133.184 3.30086Z" fill="#FFB921"/>
<path d="M127.561 1.29303C127.963 1.42315 128.379 1.24885 128.491 0.903717C128.603 0.558588 128.368 0.173326 127.966 0.0432113C127.564 -0.0869037 127.147 0.0873997 127.036 0.432529C126.924 0.777658 127.159 1.16292 127.561 1.29303Z" fill="#FF0004"/>
<path d="M121.466 5.36484C121.905 5.50678 122.359 5.31663 122.481 4.94013C122.603 4.56363 122.346 4.14334 121.908 4.0014C121.469 3.85945 121.015 4.0496 120.893 4.42611C120.771 4.80261 121.028 5.2229 121.466 5.36484Z" fill="#FF0004"/>
<path d="M117.713 12.8972C118.066 13.0115 118.432 12.8583 118.53 12.555C118.629 12.2517 118.422 11.9132 118.069 11.7988C117.715 11.6845 117.349 11.8377 117.251 12.141C117.153 12.4443 117.36 12.7828 117.713 12.8972Z" fill="#FFB921"/>
<path d="M118.46 17.1772C118.819 17.2935 119.191 17.1377 119.291 16.8291C119.391 16.5205 119.181 16.1761 118.821 16.0598C118.462 15.9434 118.09 16.0993 117.99 16.4078C117.89 16.7164 118.1 17.0608 118.46 17.1772Z" fill="#FF0004"/>
<path d="M119.472 20.5599C119.643 20.6151 119.819 20.5411 119.867 20.3947C119.914 20.2483 119.814 20.0848 119.644 20.0296C119.473 19.9744 119.297 20.0484 119.249 20.1948C119.202 20.3412 119.302 20.5047 119.472 20.5599Z" fill="#FF0004"/>
<path d="M124.099 22.9793C124.428 23.0857 124.768 22.9431 124.86 22.6607C124.951 22.3783 124.759 22.0631 124.43 21.9567C124.101 21.8502 123.76 21.9928 123.669 22.2752C123.577 22.5576 123.77 22.8728 124.099 22.9793Z" fill="#FFB921"/>
<path d="M127.985 25.9494C128.399 26.0834 128.828 25.9038 128.943 25.5483C129.059 25.1927 128.816 24.7957 128.402 24.6617C127.988 24.5276 127.559 24.7072 127.444 25.0628C127.329 25.4184 127.571 25.8153 127.985 25.9494Z" fill="#FFB921"/>
<defs>
<linearGradient id="paint0_linear_3008_18886" x1="101.283" y1="18.7367" x2="110.685" y2="36.2692" gradientUnits="userSpaceOnUse">
<stop stop-color="#C2570F"/>
<stop offset="0.515625" stop-color="#FFB546"/>
<stop offset="1" stop-color="#DE611A"/>
</linearGradient>
<linearGradient id="paint1_linear_3008_18886" x1="89.4732" y1="18.7392" x2="99.9088" y2="32.3027" gradientUnits="userSpaceOnUse">
<stop stop-color="#C2570F"/>
<stop offset="0.515625" stop-color="#FFAB2D"/>
<stop offset="1" stop-color="#DE611A"/>
</linearGradient>
<linearGradient id="paint2_linear_3008_18886" x1="77.6883" y1="18.7392" x2="87.9455" y2="32.9042" gradientUnits="userSpaceOnUse">
<stop stop-color="#C2570F"/>
<stop offset="0.515625" stop-color="#FFAB2D"/>
<stop offset="1" stop-color="#DE611A"/>
</linearGradient>
<linearGradient id="paint3_linear_3008_18886" x1="73.2737" y1="29.6094" x2="75.3666" y2="33.3469" gradientUnits="userSpaceOnUse">
<stop stop-color="#C2570F"/>
<stop offset="0.515625" stop-color="#FFB546"/>
<stop offset="1" stop-color="#DE611A"/>
</linearGradient>
</defs>
</svg>
