<svg width="193" height="44" viewBox="0 0 193 44" fill="none" xmlns="http://www.w3.org/2000/svg">
<path d="M166.225 21.5204C167.875 20.1264 169.476 18.7748 171.129 17.3782C172.662 18.5397 173.049 20.2254 173.216 22.1298C175.097 20.5269 176.915 18.9779 178.787 17.3834C180.129 18.9929 181.923 20.1518 182.817 22.2627C184.734 20.6291 186.611 19.028 188.558 17.3684C189.561 18.4681 190.601 19.4819 191.493 20.6167C192.541 21.9514 192.992 23.5395 192.987 25.2642C192.975 29.008 192.942 32.7518 192.999 36.4949C193.032 38.678 192.217 40.3995 190.638 41.7915C189.585 42.7213 188.416 43.4609 186.996 44C186.996 43.6419 186.996 43.388 186.996 43.1341C186.996 37.2013 186.991 31.2686 187.002 25.3358C187.003 24.5011 186.893 23.74 186.081 23.3305C185.178 22.8753 184.284 23.0414 183.437 23.5102C183.314 23.5779 183.227 23.8259 183.226 23.9913C183.215 28.4572 183.214 32.923 183.222 37.3895C183.223 38.2528 183.611 38.943 184.317 39.5342C182.837 40.8116 181.39 42.0624 179.89 43.3574C179.657 43.1406 179.424 42.957 179.231 42.7369C177.946 41.2765 177.293 39.5641 177.29 37.5952C177.282 33.5676 177.264 29.5399 177.263 25.5116C177.263 24.5994 177.203 23.7283 176.249 23.2966C175.228 22.8343 174.276 23.1123 173.386 23.6821C173.263 23.7608 173.183 24.0063 173.182 24.1749C173.172 28.6844 173.147 33.1952 173.209 37.704C173.218 38.3069 173.677 38.9039 173.98 39.6312C172.62 40.7745 171.107 42.0461 169.49 43.4056C169.044 42.8665 168.571 42.3944 168.214 41.8443C167.377 40.5525 167.006 39.0993 167.002 37.5555C166.993 33.0676 166.986 28.5796 167.001 24.0922C167.003 23.1651 166.859 22.3082 166.225 21.5204Z" fill="url(#paint0_linear_820_9368)"/>
<path d="M69.4489 17.3684C70.6703 18.2598 71.1101 19.3008 71.5156 22.2566C72.4657 21.4247 73.3759 20.6285 74.2849 19.831C75.2031 19.0256 76.1195 18.2184 77.075 17.3781C78.7705 19.1894 80.7325 20.7657 81.2341 23.4587C81.3487 24.0731 81.4099 24.7088 81.4124 25.3348C81.4289 29.0124 81.3732 32.6914 81.4381 36.3677C81.4773 38.6089 80.6969 40.3781 79.1184 41.8081C78.0961 42.7345 76.9568 43.4485 75.6178 44C75.6178 43.6777 75.6178 43.4258 75.6178 43.1747C75.6178 37.2552 75.6178 31.3364 75.6178 25.417C75.6178 23.4937 74.4674 22.6204 72.7205 23.2205C72.5257 23.2872 72.3413 23.3869 72.1502 23.4652C71.6112 23.686 71.417 24.0588 71.4219 24.7043C71.4544 28.7302 71.4525 32.7561 71.4286 36.782C71.4225 37.8255 71.4887 38.7946 72.4479 39.4439C70.9062 40.7775 69.4281 42.0554 67.9286 43.352C66.3942 42.025 65.6316 40.2985 65.5146 38.2955C65.4031 36.3871 65.4423 34.4684 65.4356 32.5535C65.4252 29.7245 65.4197 26.8956 65.4411 24.0666C65.4485 23.1467 65.3247 22.2922 64.7054 21.4953C66.3023 20.1061 67.8808 18.7324 69.4489 17.3684Z" fill="#222222"/>
<path d="M162.872 30.1128C162.872 31.7125 162.854 33.3127 162.877 34.9123C162.908 37.2146 162.017 39.0776 160.32 40.5658C156.796 43.6568 150.886 43.591 147.432 40.423C145.841 38.9635 145.017 37.1592 145.028 34.9632C145.044 31.895 145.032 28.8268 145.032 25.7585C145.032 22.0404 146.767 19.3809 150.231 18.119C154.148 16.6914 157.774 17.252 160.864 20.2159C162.226 21.5222 162.87 23.2014 162.872 25.1152C162.874 26.7819 162.872 28.4474 162.872 30.1128ZM151.106 30.3397C151.068 30.3397 151.03 30.3397 150.992 30.3397C150.992 31.9836 150.963 33.6282 151 35.2709C151.034 36.7414 151.168 38.2074 151.84 39.5521C152.28 40.4328 152.947 41.0175 153.973 41.009C154.968 41.0012 155.7 40.4608 156.034 39.5678C156.396 38.5972 156.761 37.5608 156.792 36.5432C156.906 32.7776 156.912 29.0073 156.897 25.2384C156.891 23.8134 156.684 22.3937 156.025 21.0966C155.589 20.2368 154.986 19.5745 153.935 19.583C152.916 19.5908 152.257 20.2101 151.915 21.0803C151.553 22.0052 151.195 22.9921 151.142 23.9692C151.027 26.0871 151.106 28.2153 151.106 30.3397Z" fill="url(#paint1_linear_820_9368)"/>
<path d="M142.734 36.8395C142.85 37.5893 142.889 38.2414 142.113 38.7692C141.174 39.4089 140.293 40.145 139.45 40.9084C136.398 43.6704 130.187 43.6678 126.856 39.6328C124.698 37.0198 123.891 33.9818 123.836 30.6796C123.79 27.9534 124.173 25.3117 125.481 22.8712C128.342 17.5339 133.701 16.6137 137.656 17.8645C140.938 18.9026 142.829 21.7961 142.455 25.0443C142.266 26.6804 141.096 27.8701 139.581 27.9749C138.399 28.0569 137.389 27.7256 136.755 26.6771C136.074 25.5519 136.122 24.3635 136.744 23.2402C137.046 22.6948 137.513 22.238 137.92 21.7531C138.506 21.0555 138.44 20.5914 137.665 20.091C135.805 18.8889 133.243 19.4799 132.089 21.3913C131.385 22.5582 131.093 23.8631 130.941 25.1933C130.557 28.5365 130.523 31.8765 131.268 35.18C131.439 35.9388 131.72 36.6937 132.076 37.3862C133.011 39.2059 134.626 39.9309 136.759 39.6107C138.787 39.3067 140.545 38.4177 142.159 37.1994C142.315 37.081 142.474 36.9651 142.633 36.8499C142.647 36.8402 142.672 36.8454 142.734 36.8395Z" fill="url(#paint2_linear_820_9368)"/>
<path d="M54.6076 17.3684C56.3221 19.9712 58.6217 19.9641 61.2152 19.2612C59.9431 20.4788 58.7143 21.7508 57.3837 22.8927C56.569 23.5918 55.5395 23.7353 54.4878 23.4631C53.5324 23.2161 52.885 22.5979 52.5011 21.6583C51.2926 22.6367 51.3692 24.3658 52.756 25.33C54.028 26.2146 55.4173 26.9117 56.7387 27.7206C57.6466 28.2768 58.5977 28.7928 59.4031 29.4873C60.5764 30.4993 61.3411 31.8482 61.359 33.4804C61.3682 34.3268 61.2435 35.2425 60.9288 36.0139C59.5451 39.403 57.1868 41.7045 53.725 42.6227C51.1211 43.3127 48.9726 42.3621 47.5457 39.9605C46.5687 38.316 46.5681 38.3154 47.9481 37.1094C49.2658 35.9577 50.586 34.8092 51.9456 33.6239C52.0666 34.3469 52.1308 35.0103 52.2931 35.646C52.7597 37.4741 54.028 38.5378 55.5685 38.4479C57.0208 38.3632 57.7953 36.9167 57.0485 35.602C56.814 35.1888 56.456 34.7937 56.0641 34.5486C54.7125 33.7054 53.3331 32.9094 51.9425 32.1379C50.4477 31.3083 49.1399 30.2794 48.3024 28.6984C46.9872 26.2152 47.4414 23.6881 49.5151 21.8652C51.2001 20.3863 52.877 18.8977 54.6076 17.3684Z" fill="#222222"/>
<path d="M111.238 19.1329C110.205 20.251 109.22 21.395 108.152 22.446C107.433 23.1524 106.544 23.5848 105.514 23.5674C104.2 23.5454 103.221 22.9611 102.677 21.6659C101.837 22.3212 101.584 23.2856 102.088 24.2557C102.326 24.7146 102.683 25.178 103.099 25.4482C104.342 26.2561 105.618 27.0181 106.924 27.7052C108.137 28.3431 109.299 29.0275 110.178 30.1379C111.51 31.8216 111.966 33.7121 111.165 35.7849C109.778 39.3779 107.321 41.7615 103.7 42.6631C101.105 43.3088 98.9266 42.1855 97.5775 39.6519C96.8295 38.2474 96.8289 38.2468 97.9758 37.2417C99.2137 36.1566 100.452 35.0727 101.692 33.9907C101.828 33.8724 101.98 33.7742 102.123 33.6675C102.273 34.4541 102.35 35.211 102.565 35.9213C103.077 37.614 104.299 38.5363 105.772 38.4329C107.141 38.3366 107.908 37.0052 107.27 35.7274C107.04 35.2685 106.663 34.8167 106.245 34.5511C104.869 33.6772 103.454 32.8687 102.034 32.075C100.145 31.0195 98.6058 29.6273 97.9881 27.3904C97.4165 25.3208 97.9063 23.5144 99.4608 22.0944C101.206 20.5005 102.989 18.9532 104.775 17.3684C106.463 19.9402 108.742 19.988 111.238 19.1329Z" fill="#222222"/>
<path d="M92.5773 17.3683C92.5773 17.8031 92.5773 18.0547 92.5773 18.307C92.5773 24.3137 92.5824 30.3204 92.5723 36.3277C92.5704 37.3906 92.7439 38.3603 93.7103 39.0721C92.2083 40.341 90.7523 41.5719 89.249 42.8421C87.5608 41.3329 86.6764 39.4822 86.6707 37.2271C86.6606 33.2866 86.6625 29.3456 86.6713 25.4051C86.6732 24.5469 86.5023 23.7578 85.9011 23.0232C88.0857 21.1725 90.2621 19.3294 92.5773 17.3683Z" fill="#222222"/>
<path d="M89.8053 8.10522C91.082 9.43097 92.4302 10.8315 93.7103 12.161C92.4432 13.4741 91.095 14.8715 89.8026 16.2105C88.5389 14.8981 87.1818 13.488 85.9011 12.1585C87.1682 10.8429 88.5178 9.44237 89.8053 8.10522Z" fill="#222222"/>
<path d="M42.4095 17.3683C42.4095 17.7566 42.4095 17.9808 42.4095 18.2056C42.407 24.4008 42.407 30.5954 42.3981 36.7906C42.3969 37.702 42.708 38.4518 43.5087 39.0757C42.0132 40.3385 40.5474 41.5754 39.0475 42.8421C37.3817 41.3664 36.4781 39.5488 36.4598 37.3473C36.4264 33.3453 36.4409 29.3427 36.4535 25.3407C36.456 24.4996 36.2794 23.7396 35.6995 23.0366C37.9004 21.1778 40.0937 19.3247 42.4095 17.3683Z" fill="#222222"/>
<path d="M43.5087 12.1518C42.2153 13.4997 40.8688 14.902 39.6123 16.2105C38.3475 14.8988 36.9853 13.4857 35.6995 12.1525C36.9867 10.8211 38.3523 9.40805 39.6116 8.10522C40.8722 9.41439 42.2208 10.8148 43.5087 12.1518Z" fill="#222222"/>
<path d="M116.022 39.9291C116.026 38.3145 117.25 37.0521 118.81 37.0527C120.411 37.0534 121.612 38.3151 121.6 39.9844C121.588 41.5977 120.352 42.8562 118.792 42.8421C117.258 42.828 116.018 41.5244 116.022 39.9291Z" fill="#222222"/>
<path d="M10.5393 34.6914C11.8916 33.2284 12.1551 31.4214 12.1678 29.5836C12.206 23.9203 12.1881 18.2564 12.1748 12.5925C12.1697 10.5484 12.8207 8.82171 14.3384 7.4586C16.0452 5.92576 17.7474 4.38769 19.4357 2.83461C22.902 -0.35446 27.7028 1.19862 28.7801 5.85786C29.428 8.65981 28.8323 11.2522 27.5488 13.7271C26.3906 15.9617 24.7259 17.7348 22.7258 19.1919C22.6252 19.265 22.5285 19.344 22.3694 19.4674C23.4512 19.6195 24.4579 19.7233 25.4488 19.9146C26.1163 20.0438 26.7794 20.2475 27.412 20.5041C30.7923 21.877 32.5124 24.8408 32.3413 28.6031C32.0778 34.3911 29.0271 38.184 24.2117 40.6608C21.4008 42.1062 18.3953 42.9993 15.1912 42.8191C14.5185 42.7812 13.795 42.68 13.2 42.3843C9.7305 40.6608 6.3113 41.0832 2.88828 42.4946C2.71074 42.5678 2.53128 42.635 2.35182 42.7016C2.33655 42.7075 2.31301 42.6892 2.23155 42.6592C3.27519 41.1368 4.47029 39.7867 5.86266 38.624C7.94994 36.8816 10.2759 35.7124 13.0078 35.5257C15.1333 35.3808 17.12 35.9076 19.0316 36.8105C19.2607 36.9188 19.4854 37.037 19.8137 37.2015C19.8137 36.8692 19.8137 36.6185 19.8137 36.3678C19.8137 28.6188 19.8093 20.869 19.8195 13.1199C19.8207 12.2079 19.9315 11.2829 18.8407 10.8128C19.3486 10.3075 19.7711 9.88647 20.179 9.47976C20.5888 9.89888 20.9929 10.3115 21.4193 10.7476C21.4218 10.7312 21.4295 10.7913 21.4066 10.8076C20.5818 11.4043 20.4444 12.2347 20.48 13.2159C20.5449 15.0138 20.4985 16.8156 20.4985 18.6155C20.4985 18.8492 20.4985 19.0829 20.4985 19.3166C20.571 19.3571 20.6429 19.3975 20.7155 19.4387C21.1972 18.8511 21.7508 18.3099 22.146 17.6669C23.2546 15.8657 23.5231 13.8178 23.6192 11.7431C23.6937 10.1313 23.5339 8.53838 23.0026 7.01141C22.8187 6.48197 22.5673 5.95056 22.237 5.50534C21.1794 4.08021 19.2964 4.1357 18.4455 5.69857C18.0275 6.46695 17.778 7.4364 17.7685 8.31838C17.7074 14.0032 17.6749 19.6907 17.7513 25.3748C17.8035 29.2318 15.7823 32.5024 12.0876 34.1045C11.5823 34.3232 11.0561 34.4968 10.5393 34.6914ZM20.5678 20.6725C20.5379 20.8122 20.5055 20.8945 20.5055 20.9767C20.5023 26.3933 20.4978 31.8104 20.5048 37.227C20.5055 37.8491 21.1934 38.2395 21.7247 37.9294C22.9835 37.1963 23.9425 36.1491 24.6501 34.8663C25.8885 32.6206 26.2729 30.1771 26.1316 27.6369C26.0361 25.9213 25.5678 24.3114 24.5407 22.9235C23.5492 21.5852 22.2205 20.8501 20.5678 20.6725Z" fill="#222222"/>
<path d="M11.1552 10.4211C10.682 11.9019 10.6409 13.3977 10.6428 14.9024C10.6497 19.3283 10.5884 23.7554 10.6618 28.18C10.7307 32.3003 8.69931 34.9518 5.0806 36.6008C4.7143 36.7677 4.33408 36.9032 3.95829 37.0488C3.92539 37.0614 3.87921 37.0412 3.76976 37.028C5.14449 35.7816 5.19321 34.1553 5.19384 32.5158C5.19511 30.4831 5.19384 28.4497 5.19384 26.417C5.19384 26.1864 5.19384 25.9564 5.19384 25.7371C3.81594 25.4857 3.08714 26.1839 2.10591 28.7225C1.25627 26.2273 0.606549 23.8443 1.66306 21.3686C2.2394 20.0176 3.22316 19.4083 5.19384 19.0718C5.19384 18.5728 5.2008 18.053 5.19257 17.5331C5.17423 16.4065 5.51459 15.3857 6.2415 14.5408C7.64786 12.9069 9.34714 11.6063 11.1552 10.4211Z" fill="#222222"/>
<path d="M0 6.4507C1.13565 3.46765 2.49422 0.747111 5.79989 0.0802724C6.83936 -0.129734 7.80877 0.0850447 8.72404 0.575969C9.41001 0.944162 10.1119 1.32667 10.7023 1.84078C12.4641 3.37424 14.2972 3.31219 16.2188 2.28943C16.371 2.20829 16.5233 2.12715 16.7022 2.0317C16.7143 2.11761 16.7487 2.19193 16.7271 2.23079C15.7354 3.99403 14.5672 5.59431 12.9711 6.78343C10.6113 8.54122 8.56035 8.54258 6.19351 6.8073C6.08778 6.72957 5.98396 6.64843 5.88142 6.56593C3.86299 4.94315 2.45537 4.87156 0.274517 6.28092C0.184073 6.33887 0.091718 6.3941 0 6.4507Z" fill="#222222"/>
<defs>
<linearGradient id="paint0_linear_820_9368" x1="166.342" y1="17.2612" x2="183.761" y2="49.1227" gradientUnits="userSpaceOnUse">
<stop stop-color="#C2570F"/>
<stop offset="0.515625" stop-color="#FFB546"/>
<stop offset="1" stop-color="#DE611A"/>
</linearGradient>
<linearGradient id="paint1_linear_820_9368" x1="145.106" y1="17.2659" x2="164.329" y2="41.7721" gradientUnits="userSpaceOnUse">
<stop stop-color="#C2570F"/>
<stop offset="0.515625" stop-color="#FFAB2D"/>
<stop offset="1" stop-color="#DE611A"/>
</linearGradient>
<linearGradient id="paint2_linear_820_9368" x1="123.915" y1="17.2659" x2="142.83" y2="42.8865" gradientUnits="userSpaceOnUse">
<stop stop-color="#C2570F"/>
<stop offset="0.515625" stop-color="#FFAB2D"/>
<stop offset="1" stop-color="#DE611A"/>
</linearGradient>
</defs>
</svg>
