<svg width="153" height="129" viewBox="0 0 153 129" fill="none" xmlns="http://www.w3.org/2000/svg">
<g clip-path="url(#clip0_3008_21736)">
<path d="M88.7821 38.327C88.7821 37.5703 89.395 36.9574 90.1517 36.9574C90.9083 36.9574 91.5212 37.5703 91.5212 38.327C91.5212 39.0836 90.9083 39.6965 90.1517 39.6965C89.395 39.6965 88.7821 39.0836 88.7821 38.327ZM88.7821 34.2183C88.7821 33.4616 89.395 32.8487 90.1517 32.8487C90.9083 32.8487 91.5212 33.4616 91.5212 34.2183C91.5212 34.975 90.9083 35.5879 90.1517 35.5879C89.395 35.5879 88.7821 34.975 88.7821 34.2183ZM88.7821 30.1096C88.7821 29.353 89.395 28.7401 90.1517 28.7401C90.9083 28.7401 91.5212 29.353 91.5212 30.1096C91.5212 30.8663 90.9083 31.4792 90.1517 31.4792C89.395 31.4792 88.7821 30.8663 88.7821 30.1096ZM88.7821 26.001C88.7821 25.2443 89.395 24.6314 90.1517 24.6314C90.9083 24.6314 91.5212 25.2443 91.5212 26.001C91.5212 26.7577 90.9083 27.3705 90.1517 27.3705C89.395 27.3705 88.7821 26.7577 88.7821 26.001ZM88.7821 21.8923C88.7821 21.1357 89.395 20.5228 90.1517 20.5228C90.9083 20.5228 91.5212 21.1357 91.5212 21.8923C91.5212 22.649 90.9083 23.2619 90.1517 23.2619C89.395 23.2619 88.7821 22.649 88.7821 21.8923ZM88.7821 17.7837C88.7821 17.027 89.395 16.4141 90.1517 16.4141C90.9083 16.4141 91.5212 17.027 91.5212 17.7837C91.5212 18.5404 90.9083 19.1532 90.1517 19.1532C89.395 19.1532 88.7821 18.5404 88.7821 17.7837ZM88.7821 13.675C88.7821 12.9183 89.395 12.3055 90.1517 12.3055C90.9083 12.3055 91.5212 12.9183 91.5212 13.675C91.5212 14.4317 90.9083 15.0446 90.1517 15.0446C89.395 15.0446 88.7821 14.4317 88.7821 13.675ZM88.7821 9.56637C88.7821 8.8097 89.395 8.19682 90.1517 8.19682C90.9083 8.19682 91.5212 8.8097 91.5212 9.56637C91.5212 10.323 90.9083 10.9359 90.1517 10.9359C89.395 10.9359 88.7821 10.323 88.7821 9.56637ZM88.7821 5.45772C88.7821 4.70104 89.395 4.08817 90.1517 4.08817C90.9083 4.08817 91.5212 4.70104 91.5212 5.45772C91.5212 6.2144 90.9083 6.82727 90.1517 6.82727C89.395 6.82727 88.7821 6.2144 88.7821 5.45772ZM88.7821 1.34907C88.7821 0.592388 89.395 -0.0204859 90.1517 -0.0204859C90.9083 -0.0204859 91.5212 0.592388 91.5212 1.34907C91.5212 2.10574 90.9083 2.71862 90.1517 2.71862C89.395 2.71862 88.7821 2.10574 88.7821 1.34907ZM88.7821 -2.75959C88.7821 -3.51627 89.395 -4.12914 90.1517 -4.12914C90.9083 -4.12914 91.5212 -3.51627 91.5212 -2.75959C91.5212 -2.00291 90.9083 -1.39004 90.1517 -1.39004C89.395 -1.39004 88.7821 -2.00291 88.7821 -2.75959ZM88.7821 -6.86824C88.7821 -7.62492 89.395 -8.23779 90.1517 -8.23779C90.9083 -8.23779 91.5212 -7.62492 91.5212 -6.86824C91.5212 -6.11156 90.9083 -5.49869 90.1517 -5.49869C89.395 -5.49869 88.7821 -6.11156 88.7821 -6.86824Z" fill="#FFDA3B"/>
<path d="M76.7906 57.6606C72.7576 59.9998 70.0818 64.1434 69.5545 68.8163C69.5011 69.2905 68.931 69.5116 68.5654 69.2049C66.6538 67.6011 64.5858 65.4187 61.87 66.372C60.2926 66.9256 59.4674 68.1407 58.6659 69.4326C58.4064 69.851 57.7983 69.7993 57.5898 69.3531C56.5421 67.1095 54.5658 65.3434 51.9051 64.8843C50.2808 64.6039 48.3419 64.9641 46.8583 65.6605C46.5125 65.8228 46.1756 66.0638 45.8418 66.2531C45.4508 66.4747 44.9718 66.1902 44.9502 65.7413C44.8471 63.6055 43.4735 61.572 41.7971 60.3011C39.5179 58.5727 36.9133 58.4364 34.3964 57.7089C33.887 57.5616 33.8127 56.8652 34.2745 56.6043C36.095 55.5768 37.8604 53.783 38.9451 52.2577C40.404 50.2065 40.8542 48.1429 41.0456 45.7712C41.0788 45.3589 41.515 45.1001 41.8923 45.2692C43.9107 46.1742 45.7976 46.5806 48.106 45.7181C50.5503 44.8049 51.7134 43.0872 52.9915 41.078C53.1798 40.7822 53.5876 40.6915 53.8649 40.9062C54.4617 41.368 54.939 42.0443 55.5642 42.4815C56.8971 43.4128 58.4567 43.9949 60.0796 44.0637C61.6447 44.1301 62.931 43.761 64.1753 42.7835C64.5303 42.5044 64.8066 42.1439 65.1192 41.8488C65.4199 41.5646 65.9184 41.6759 66.0851 42.0545C66.8887 43.8788 67.5714 45.2155 69.5925 46.2464C70.7902 46.8572 72.7867 47.5776 74.274 47.2859C74.6431 47.2136 74.9762 47.5262 74.9677 47.9025C74.904 50.7245 74.5072 54.2932 76.9313 56.7039C77.2175 56.9878 77.1401 57.4579 76.7906 57.6606Z" fill="#2F6618"/>
<path d="M64.81 54.0528C60.464 53.6015 55.9431 53.6775 51.5777 53.8021C48.376 53.8939 44.2814 54.0079 41.5146 55.7989C41.441 55.8465 41.4694 55.9688 41.5622 55.966C57.3466 55.5028 73.8014 54.4102 87.9092 63.0267C88.9343 63.653 89.8365 62.0256 88.8161 61.398C81.6257 56.9747 73.1406 54.918 64.81 54.0528Z" fill="#4A8E08"/>
<path d="M101.402 64.7924C103.488 68.9617 103.449 73.8941 101.324 78.089C101.108 78.5146 101.463 79.0125 101.937 78.957C104.415 78.6663 107.342 77.9778 109.089 80.2656C110.103 81.5944 110.125 83.0629 110.086 84.5828C110.073 85.0751 110.61 85.3658 111.029 85.1073C113.137 83.8073 115.758 83.4166 118.234 84.4937C119.745 85.1515 121.168 86.5169 122.026 87.9135C122.226 88.2391 122.375 88.6257 122.55 88.967C122.755 89.367 123.311 89.392 123.576 89.0287C124.835 87.3003 127.1 86.355 129.198 86.2129C132.053 86.0198 134.304 87.3359 136.807 88.1097C137.314 88.2665 137.758 87.7252 137.515 87.2537C136.558 85.3956 136.068 82.927 135.999 81.0562C135.906 78.5407 136.663 76.5689 137.805 74.4817C138.003 74.1187 137.781 73.663 137.373 73.5973C135.189 73.2453 133.389 72.5489 131.933 70.5606C130.392 68.4553 130.363 66.3811 130.398 64.0001C130.403 63.6495 130.111 63.3499 129.762 63.377C129.009 63.4355 128.239 63.7385 127.477 63.7605C125.851 63.807 124.228 63.4369 122.834 62.6035C121.49 61.7996 120.617 60.7848 120.114 59.2848C119.971 58.8564 119.938 58.4038 119.839 57.9854C119.743 57.5827 119.266 57.4023 118.919 57.6269C117.245 58.7106 115.941 59.4529 113.686 59.2047C112.349 59.0574 110.285 58.5633 109.202 57.503C108.933 57.2397 108.483 57.3184 108.284 57.6375C106.787 60.0312 105.16 63.2318 101.81 63.9156C101.414 63.9957 101.221 64.4312 101.402 64.7924Z" fill="#2F6618"/>
<path d="M113.396 68.3556C117.275 70.3644 121.012 72.9104 124.592 75.4119C127.218 77.2464 130.577 79.59 131.906 82.6061C131.942 82.6862 131.851 82.7729 131.775 82.7198C118.837 73.6657 105.684 63.7176 89.1624 63.1729C87.9616 63.1332 88.1013 61.2778 89.2986 61.3134C97.7371 61.5647 105.958 64.5048 113.396 68.3556Z" fill="#4A8E08"/>
<path d="M92.1994 51.7105C96.3173 49.7109 101.16 49.8065 105.253 51.9419C105.669 52.1587 106.162 51.816 106.113 51.35C105.856 48.9135 105.214 46.032 107.481 44.3437C108.797 43.3631 110.239 43.3583 111.731 43.4148C112.214 43.4329 112.506 42.9098 112.257 42.4951C111.005 40.4107 110.652 37.8322 111.739 35.4139C112.402 33.9375 113.759 32.5566 115.14 31.7308C115.462 31.5384 115.844 31.3963 116.181 31.2282C116.576 31.0313 116.607 30.4855 116.254 30.2212C114.571 28.965 113.67 26.7306 113.555 24.6684C113.399 21.8639 114.717 19.6685 115.506 17.2201C115.666 16.7243 115.14 16.2816 114.674 16.5147C112.838 17.433 110.409 17.8857 108.571 17.9319C106.1 17.9939 104.173 17.2279 102.138 16.082C101.784 15.8827 101.334 16.096 101.264 16.4959C100.893 18.6358 100.188 20.395 98.2193 21.8012C96.1341 23.2899 94.0973 23.294 91.7601 23.2324C91.4157 23.2231 91.1182 23.5056 91.1408 23.8494C91.1894 24.5886 91.478 25.3483 91.4907 26.0975C91.5174 27.6937 91.1353 29.2831 90.3005 30.642C89.4956 31.9527 88.489 32.7977 87.0105 33.2739C86.5884 33.4099 86.1433 33.4373 85.7317 33.5294C85.3352 33.618 85.1524 34.0851 85.3691 34.4285C86.4134 36.0839 87.1269 37.3734 86.8571 39.5848C86.6972 40.8952 86.1878 42.9159 85.1342 43.967C84.8727 44.2279 84.9446 44.6707 85.2555 44.8703C87.5881 46.3672 90.7114 48.0028 91.3438 51.2996C91.4174 51.6889 91.8426 51.8837 92.1994 51.7105Z" fill="#7EAE02"/>
<path d="M95.838 39.9758C97.8557 36.1897 100.399 32.5508 102.897 29.0649C104.728 26.5087 107.069 23.2375 110.045 21.9679C110.124 21.934 110.208 22.0244 110.155 22.0984C101.115 34.6955 91.1942 47.4929 90.4666 63.7081C90.4139 64.8866 88.5937 64.7277 88.6427 63.5526C88.9875 55.2709 91.97 47.2334 95.838 39.9758Z" fill="#2F6618"/>
<path d="M85.6409 75.3526C80.9711 77.1409 75.7103 76.5811 71.4561 73.8718C71.0244 73.5969 70.4557 73.9232 70.4652 74.435C70.5152 77.1108 70.9422 80.307 68.3164 81.9309C66.7914 82.8739 65.2216 82.7434 63.6034 82.5417C63.0793 82.4764 62.7126 83.0187 62.9444 83.4932C64.1102 85.8797 64.2519 88.7191 62.842 91.2483C61.9812 92.7925 60.374 94.1675 58.7932 94.9362C58.4248 95.1153 57.9965 95.2341 57.6137 95.3851C57.1652 95.5621 57.0799 96.1534 57.4401 96.4739C59.1528 97.9995 59.9235 100.516 59.8543 102.771C59.7601 105.838 58.1187 108.103 57.0296 110.694C56.8091 111.218 57.3401 111.749 57.8688 111.54C59.9529 110.713 62.6396 110.449 64.6436 110.572C67.3386 110.737 69.3638 111.752 71.4715 113.191C71.8379 113.441 72.3477 113.252 72.461 112.823C73.0664 110.529 73.999 108.68 76.2742 107.335C78.6836 105.911 80.9005 106.099 83.4387 106.386C83.8126 106.429 84.1628 106.149 84.1707 105.773C84.1875 104.964 83.9447 104.11 84.0015 103.294C84.1228 101.554 84.6884 99.8604 85.7248 98.46C86.7242 97.1093 87.8993 96.2849 89.5534 95.9055C90.0255 95.7973 90.5124 95.8096 90.9691 95.748C91.4088 95.6888 91.6519 95.1978 91.4485 94.8037C90.4679 92.9038 89.8129 91.4332 90.3148 89.0523C90.6124 87.6413 91.3567 85.4901 92.6027 84.4454C92.9118 84.1862 92.8752 83.6973 92.5558 83.4508C90.1584 81.6019 86.9129 79.5281 86.5352 75.8806C86.4897 75.4499 86.0456 75.1979 85.6409 75.3526Z" fill="#005700"/>
<path d="M80.5764 87.7807C78.0242 91.711 74.914 95.4321 71.8674 98.9905C69.6333 101.6 66.7782 104.94 63.4193 106.041C63.3303 106.07 63.2471 105.965 63.3118 105.889C74.3364 93.0306 86.3384 80.0376 88.6567 62.4591C88.8252 61.1817 90.7912 61.5257 90.6272 62.8001C89.4716 71.7803 85.4688 80.2465 80.5764 87.7807Z" fill="#4A8E08"/>
<path d="M70.1017 19.9273C69.1238 18.0997 68.1645 16.2566 67.0818 14.4885C66.5107 13.5555 65.9506 12.6149 65.3257 11.7169C64.7046 10.8243 63.9329 10.0238 63.3642 9.10513C63.1865 8.81821 62.7013 9.11712 62.8564 9.41636C63.2854 10.2446 63.5128 11.1667 63.8839 12.026C64.2554 12.8861 64.6502 13.7294 65.0573 14.5731C65.8729 16.2621 66.746 17.9168 67.6112 19.5808C69.3419 22.9102 71.0344 26.2605 72.7114 29.6169C76.0935 36.3849 79.3373 43.2206 82.5307 50.0794C84.3255 53.9346 86.1046 57.7971 87.8836 61.66C88.4581 62.9076 90.4152 62.0496 89.8387 60.7978C83.512 47.0609 77.2391 33.2678 70.1017 19.9273Z" fill="#C45D00"/>
<path d="M61.692 7.94689C61.3184 6.98478 60.9767 6.01171 60.6682 5.03214C60.447 4.3299 58.9778 -1.89471 60.886 0.781049C63.2241 4.05941 64.9696 7.8767 66.535 11.6392C66.9034 12.5246 70.4742 20.555 69.0266 20.3006C67.2147 19.9822 65.108 15.0658 64.1681 13.3196C63.2348 11.5858 62.4058 9.78585 61.692 7.94689Z" fill="#60A403"/>
<path d="M74.5146 15.3729C74.7317 14.3638 74.9809 13.3634 75.2617 12.3753C75.463 11.6669 77.6577 5.66 77.7806 8.94384C77.9313 12.9676 77.291 17.116 76.5303 21.1195C76.3512 22.0617 74.9193 30.7327 73.85 29.7244C72.5113 28.4623 73.4546 23.1975 73.6292 21.2219C73.8028 19.2607 74.0996 17.3015 74.5146 15.3729Z" fill="#538606"/>
<path d="M77.2699 19.7116C77.5634 18.7221 77.8883 17.7436 78.244 16.7798C78.4988 16.0888 81.1461 10.2669 81.0177 13.551C80.8606 17.5748 79.9053 21.6619 78.8408 25.5959C78.5902 26.5217 76.4999 35.0578 75.5107 33.9711C74.2723 32.6104 75.6152 27.4332 75.9404 25.4764C76.263 23.534 76.7088 21.603 77.2699 19.7116Z" fill="#2F6618"/>
<path d="M80.31 22.874C80.6979 21.9177 81.1163 20.9751 81.5638 20.0507C81.8846 19.3878 85.0839 13.85 84.6378 17.1061C84.091 21.0956 82.7437 25.0708 81.3029 28.8829C80.9639 29.78 78.0553 38.0729 77.1764 36.8955C76.076 35.4211 77.9146 30.3983 78.4279 28.4827C78.937 26.5807 79.568 24.702 80.31 22.874Z" fill="#538606"/>
<path d="M82.7653 26.6132C83.1484 25.6552 83.5586 24.7099 83.9945 23.781C84.3067 23.115 87.3862 17.5351 86.8715 20.7669C86.2409 24.7267 84.8878 28.6997 83.4555 32.515C83.1186 33.4127 80.2073 41.705 79.4537 40.5717C78.5104 39.1532 80.3432 34.1283 80.8726 32.2181C81.3985 30.322 82.0326 28.4443 82.7653 26.6132Z" fill="#2F6618"/>
<path d="M84.3348 31.1727C84.7227 30.2164 85.1411 29.2738 85.5886 28.3494C85.9094 27.6865 89.1087 22.1487 88.6625 25.4048C88.1157 29.3944 86.7684 33.3695 85.3277 37.1816C84.9887 38.0787 82.0801 46.3717 81.2012 45.1942C80.1008 43.7199 81.9394 38.697 82.4526 36.7814C82.9621 34.8797 83.5931 33.0011 84.3348 31.1727Z" fill="#60A403"/>
<path d="M90.0159 38.5471C90.5114 37.6418 91.0352 36.7537 91.5858 35.8864C91.9805 35.2646 95.7951 30.1312 94.9775 33.3147C93.976 37.2149 92.1808 41.0092 90.3114 44.6303C89.8714 45.4825 86.0295 53.3865 85.2917 52.1156C84.3679 50.5245 86.7715 45.7465 87.5014 43.9024C88.2263 42.0717 89.0689 40.2779 90.0159 38.5471Z" fill="#2F6618"/>
<path d="M86.5346 35.3313C86.9225 34.375 87.3409 33.4324 87.7884 32.508C88.1089 31.8451 91.3085 26.3073 90.8624 29.5634C90.3156 33.5529 88.9683 37.528 87.5275 41.3402C87.1882 42.2372 84.28 50.5302 83.4007 49.3528C82.3003 47.8784 84.1386 42.8556 84.6521 40.9399C85.1616 39.038 85.7926 37.1593 86.5346 35.3313Z" fill="#538606"/>
<path d="M66.5907 27.8403C65.6995 27.3199 64.7925 26.8289 63.8739 26.3698C63.2151 26.0407 57.3001 23.6088 59.6416 25.9151C62.5105 28.7405 66.0049 31.066 69.4737 33.2052C70.2899 33.7085 77.6571 38.5002 77.6341 37.0307C77.6054 35.1911 73.0824 32.3362 71.5061 31.1324C69.9414 29.9378 68.2945 28.8353 66.5907 27.8403Z" fill="#538606"/>
<path d="M71.0449 39.7023C70.103 39.2804 69.1487 38.8891 68.1863 38.531C67.496 38.2742 61.3546 36.4896 63.9297 38.5316C67.0845 41.0338 70.808 42.9721 74.4855 44.7272C75.3511 45.1404 83.1887 49.1159 83.0086 47.6573C82.783 45.8314 77.9806 43.4771 76.2844 42.4489C74.6006 41.4289 72.8452 40.5089 71.0449 39.7023Z" fill="#2F6618"/>
<path d="M68.0885 33.3004C67.152 32.8662 66.2033 32.4629 65.2453 32.0921C64.5584 31.8264 58.441 29.9621 60.9891 32.0376C64.1109 34.5805 67.8087 36.5671 71.4634 38.3701C72.3235 38.7943 80.1087 42.8715 79.9478 41.4108C79.7461 39.5821 74.9746 37.1656 73.2917 36.1155C71.6216 35.0729 69.8781 34.1303 68.0885 33.3004Z" fill="#005700"/>
<path d="M75.4875 35.4687C74.8206 34.6809 74.1293 33.916 73.4161 33.1768C72.9049 32.6467 68.1385 28.3826 69.5776 31.3374C71.3409 34.9575 73.8602 38.3146 76.4178 41.4875C77.0197 42.2343 82.3685 49.2073 82.8369 47.8142C83.4231 46.0701 80.1101 41.871 79.0251 40.2108C77.9473 38.5628 76.7622 36.9745 75.4875 35.4687Z" fill="#005700"/>
<path d="M74.1792 50.6176C73.1828 50.3488 72.1789 50.1126 71.172 49.9103C70.4502 49.7651 64.1044 48.9677 66.9685 50.58C70.4773 52.5552 74.4589 53.8844 78.3669 55.0399C79.2866 55.3118 87.6518 58.0064 87.2447 56.5943C86.7352 54.8266 81.6223 53.2561 79.7858 52.5073C77.9622 51.7643 76.0842 51.1315 74.1792 50.6176Z" fill="#60A403"/>
<path d="M68.1875 9.24514C68.4456 8.21387 68.7918 7.20417 69.2201 6.23076C69.3536 5.41006 73.2127 0.00888658 72.3156 3.13694C71.2429 6.88198 70.3435 10.8376 70.2295 14.7843C70.1942 15.2465 70.2315 17.6059 70.5123 19.7438C70.7287 21.8871 71.1885 23.809 70.5092 23.5183C68.6942 22.8064 67.6489 17.3217 67.6831 15.2835C67.5222 13.2661 67.6924 11.2163 68.1875 9.24514Z" fill="#538606"/>
<path d="M71.5486 13.6373C71.8876 12.6297 72.3121 11.6504 72.8158 10.7137C73.0137 9.90598 77.287 4.82631 76.1458 7.87356C74.7807 11.5224 73.5721 15.3945 73.1472 19.3199C73.0756 19.778 72.9267 22.133 73.038 24.2863C73.0845 26.4399 73.3913 28.3922 72.737 28.0484C70.984 27.1955 70.3745 21.6458 70.5694 19.6164C70.5683 17.5933 70.8994 15.5633 71.5486 13.6373Z" fill="#2F6618"/>
<path d="M91.0158 43.6326C91.6618 42.7944 92.3798 42.0111 93.1588 41.2934C93.6069 40.5977 99.2882 37.2087 97.2243 39.7058C94.7543 42.6958 92.36 45.9471 90.6891 49.5046C90.4734 49.9123 89.5712 52.081 88.9803 54.1446C88.328 56.1873 87.987 58.1255 87.4796 57.5887C86.0984 56.2136 87.3166 50.7899 88.1568 48.943C88.8101 47.0373 89.7794 45.2343 91.0158 43.6326Z" fill="#538606"/>
<path d="M62.2846 11.8474C61.3492 11.3424 60.3703 10.9168 59.3627 10.5761C58.6666 10.1211 52.0763 9.32674 54.9907 10.7744C58.4793 12.5086 62.0059 14.5129 64.9967 17.0907C65.3616 17.3766 67.0784 18.9954 68.4671 20.6451C69.9034 22.2505 71.0121 23.8864 71.2555 23.1887C71.9543 21.3685 68.6106 16.8973 67.0828 15.5476C65.702 14.0688 64.0739 12.8116 62.2846 11.8474Z" fill="#2F6618"/>
<path d="M62.1237 15.9611C61.1513 15.5317 60.1419 15.1845 59.1107 14.9243C58.381 14.5254 51.7483 14.2536 54.7678 15.467C58.3821 16.9204 62.0562 18.6402 65.2408 20.9743C65.6273 21.2304 67.4663 22.7088 68.981 24.2434C70.5396 25.7304 71.7735 27.2739 71.9615 26.559C72.5145 24.6896 68.8283 20.496 67.1989 19.2713C65.7057 17.9055 63.9835 16.7807 62.1237 15.9611Z" fill="#005700"/>
<path d="M65.5404 22.8798C64.568 22.4504 63.5587 22.1032 62.5274 21.843C61.7978 21.4441 55.165 21.1723 58.1846 22.3857C61.7988 23.8391 65.473 25.5589 68.6575 27.893C69.0441 28.1491 70.883 29.6275 72.3978 31.1621C73.9563 32.6491 75.1906 34.1926 75.3783 33.4777C75.9312 31.6079 72.2451 27.4147 70.6156 26.19C69.1221 24.8242 67.3999 23.6994 65.5404 22.8798Z" fill="#60A403"/>
<path d="M73.8319 45.767C72.7897 45.5578 71.7289 45.4372 70.6658 45.4064C69.8674 45.175 63.3326 46.3435 66.5431 46.8753C70.3864 47.5128 74.3451 48.3975 77.9594 49.9876C78.3922 50.154 80.5071 51.2 82.318 52.3709C84.1611 53.4858 85.6997 54.7259 85.7288 53.9873C85.8644 52.0426 81.3586 48.7454 79.5029 47.9017C77.7495 46.891 75.8249 46.1652 73.8319 45.767Z" fill="#005700"/>
<path d="M75.9127 22.552C75.6353 21.5577 75.3265 20.5741 74.9869 19.6048C74.7434 18.9097 72.1919 13.0453 72.2662 16.3312C72.3577 20.3567 73.2458 24.4591 74.2459 28.41C74.4811 29.3395 76.4317 37.9088 77.4383 36.8382C78.6987 35.4981 77.4411 30.2992 77.1477 28.3377C76.8566 26.3905 76.4427 24.4523 75.9127 22.552Z" fill="#005700"/>
<path d="M70.6525 11.8676C70.3752 10.8733 70.0664 9.88962 69.7267 8.92032C69.4833 8.22527 66.9318 2.36085 67.0061 5.64675C67.0975 9.6722 67.9857 13.7747 68.9858 17.7255C69.221 18.6551 71.1716 27.2244 72.1782 26.1537C73.4385 24.8136 72.181 19.6148 71.8875 17.6533C71.5965 15.7058 71.1826 13.7678 70.6525 11.8676Z" fill="#005700"/>
<path d="M81.4531 27.8214C81.3337 26.7963 81.1809 25.7764 80.9961 24.766C80.8635 24.0418 79.2533 17.8521 78.8168 21.1096C78.2819 25.1005 78.5226 29.2913 78.8972 33.3493C78.9856 34.3042 79.5816 43.0724 80.7427 42.1709C82.1958 41.0427 81.7603 35.7118 81.7753 33.7283C81.7897 31.7599 81.6815 29.7809 81.4531 27.8214Z" fill="#005700"/>
<path d="M86.0817 39.151C85.9622 38.1259 85.8098 37.1059 85.6246 36.0956C85.4921 35.3714 83.8818 29.1817 83.4453 32.4392C82.9105 36.4301 83.1512 40.6209 83.5258 44.6789C83.6137 45.6338 84.2102 54.402 85.3712 53.5008C86.8243 52.3727 86.3888 47.0417 86.4039 45.0582C86.4182 43.0895 86.3101 41.1105 86.0817 39.151Z" fill="#005700"/>
<path d="M129.916 43.5427C131.744 42.5649 133.587 41.6055 135.355 40.5229C136.288 39.9518 137.229 39.3916 138.127 38.7668C139.02 38.1457 139.82 37.3739 140.739 36.8052C141.026 36.6279 140.727 36.1424 140.427 36.2975C139.599 36.7265 138.677 36.9538 137.818 37.325C136.958 37.6964 136.114 38.0912 135.271 38.4983C133.582 39.3139 131.927 40.187 130.263 41.0522C126.934 42.783 123.583 44.4754 120.227 46.1524C113.459 49.5345 106.623 52.7783 99.7644 55.9717C95.9091 57.7665 92.0467 59.5456 88.1838 61.3246C86.9362 61.8992 87.7942 63.8562 89.046 63.2797C102.783 56.953 116.576 50.6801 129.916 43.5427Z" fill="#C45D00"/>
<path d="M141.897 35.1331C142.859 34.7596 143.832 34.4179 144.812 34.1094C145.514 33.8882 151.739 32.419 149.063 34.3271C145.784 36.6653 141.967 38.4108 138.205 39.9762C137.319 40.3446 129.289 43.9154 129.543 42.4678C129.862 40.6558 134.778 38.5491 136.524 37.6093C138.258 36.6759 140.058 35.8467 141.897 35.1331Z" fill="#60A403"/>
<path d="M134.471 47.9554C135.48 48.1725 136.48 48.4217 137.468 48.7025C138.177 48.9038 144.184 51.0985 140.9 51.2214C136.876 51.3721 132.728 50.7318 128.724 49.971C127.782 49.792 119.111 48.3601 120.119 47.2908C121.381 45.9521 126.646 46.8954 128.622 47.0703C130.583 47.2439 132.542 47.5408 134.471 47.9554Z" fill="#538606"/>
<path d="M130.132 50.7107C131.122 51.0042 132.1 51.3291 133.064 51.6848C133.755 51.9395 139.577 54.5869 136.293 54.4585C132.269 54.3013 128.182 53.3461 124.248 52.2816C123.322 52.031 114.786 49.9407 115.873 48.9515C117.234 47.7131 122.411 49.056 124.368 49.3812C126.31 49.7041 128.241 50.1499 130.132 50.7107Z" fill="#2F6618"/>
<path d="M126.97 53.7507C127.926 54.1387 128.869 54.5571 129.793 55.0046C130.456 55.3254 135.994 58.5247 132.738 58.0785C128.748 57.5317 124.773 56.1844 120.961 54.7437C120.064 54.4044 111.771 51.4961 112.948 50.6169C114.423 49.5164 119.446 51.3551 121.361 51.8683C123.263 52.3781 125.142 53.0091 126.97 53.7507Z" fill="#538606"/>
<path d="M123.231 56.2063C124.189 56.5895 125.134 57 126.063 57.4355C126.729 57.7478 132.309 60.8275 129.077 60.3126C125.117 59.6819 121.144 58.3288 117.329 56.8966C116.431 56.5597 108.139 53.6483 109.272 52.8948C110.691 51.9515 115.716 53.7843 117.626 54.3136C119.522 54.8392 121.4 55.4736 123.231 56.2063Z" fill="#2F6618"/>
<path d="M118.671 57.7759C119.627 58.1638 120.57 58.5822 121.494 59.0297C122.157 59.3502 127.695 62.5498 124.439 62.1037C120.449 61.5572 116.474 60.2096 112.662 58.7688C111.765 58.4299 103.472 55.5213 104.649 54.6424C106.124 53.5419 111.146 55.3806 113.062 55.8938C114.964 56.4033 116.843 57.0339 118.671 57.7759Z" fill="#60A403"/>
<path d="M111.297 63.4571C112.202 63.9525 113.09 64.4764 113.957 65.0269C114.579 65.4217 119.712 69.2362 116.529 68.4186C112.629 67.4171 108.835 65.622 105.213 63.7526C104.361 63.3126 96.4573 59.4707 97.7282 58.7328C99.3193 57.8091 104.097 60.2126 105.941 60.9426C107.772 61.6674 109.566 62.51 111.297 63.4571Z" fill="#2F6618"/>
<path d="M114.512 59.9754C115.469 60.3633 116.411 60.7817 117.336 61.2292C117.999 61.5497 123.536 64.7493 120.28 64.3032C116.291 63.7564 112.316 62.4091 108.504 60.9683C107.607 60.629 99.3132 57.7208 100.491 56.8415C101.965 55.7411 106.988 57.5794 108.904 58.0929C110.806 58.6028 112.684 59.2338 114.512 59.9754Z" fill="#538606"/>
<path d="M122.004 40.0319C122.524 39.1407 123.015 38.2337 123.474 37.3151C123.803 36.6563 126.235 30.7412 123.929 33.0828C121.104 35.9517 118.778 39.4461 116.639 42.9148C116.136 43.7311 111.344 51.0982 112.814 51.0753C114.653 51.0465 117.508 46.5236 118.712 44.9472C119.906 43.3825 121.009 41.7356 122.004 40.0319Z" fill="#538606"/>
<path d="M110.142 44.486C110.564 43.5441 110.955 42.5899 111.313 41.6274C111.57 40.9372 113.354 34.7958 111.312 37.3709C108.81 40.5257 106.872 44.2491 105.117 47.9267C104.703 48.7922 100.728 56.6299 102.187 56.4498C104.013 56.2241 106.367 51.4218 107.395 49.7256C108.415 48.0417 109.335 46.2863 110.142 44.486Z" fill="#2F6618"/>
<path d="M116.544 41.5295C116.978 40.5931 117.381 39.6443 117.752 38.6863C118.018 37.9995 119.882 31.882 117.806 34.4301C115.263 37.552 113.277 41.2498 111.474 44.9044C111.05 45.7645 106.972 53.5497 108.433 53.3888C110.262 53.1871 112.678 48.4156 113.728 46.7328C114.771 45.0623 115.714 43.3192 116.544 41.5295Z" fill="#005700"/>
<path d="M114.375 48.9286C115.163 48.2616 115.928 47.5703 116.667 46.8571C117.197 46.3459 121.461 41.5796 118.506 43.0186C114.886 44.7819 111.529 47.3012 108.356 49.8588C107.609 50.4608 100.636 55.8095 102.03 56.2779C103.774 56.8641 107.973 53.5511 109.633 52.4661C111.281 51.3883 112.869 50.2029 114.375 48.9286Z" fill="#005700"/>
<path d="M99.2259 47.6202C99.4947 46.6239 99.7309 45.62 99.9333 44.613C100.078 43.8913 100.876 37.5454 99.2636 40.4095C97.2883 43.9183 95.9592 47.8999 94.8036 51.8079C94.5318 52.7276 91.8372 61.0928 93.2492 60.6857C95.0169 60.1762 96.5875 55.0634 97.3363 53.2264C98.0796 51.4032 98.7123 49.5249 99.2259 47.6202Z" fill="#60A403"/>
<path d="M140.599 41.6285C141.63 41.8867 142.64 42.2328 143.613 42.6612C144.434 42.7947 149.835 46.6537 146.707 45.7567C142.962 44.684 139.007 43.7845 135.06 43.6705C134.598 43.6353 132.238 43.6726 130.1 43.9533C127.957 44.1697 126.035 44.6299 126.326 43.9503C127.038 42.1353 132.522 41.0899 134.561 41.1242C136.578 40.9633 138.628 41.1334 140.599 41.6285Z" fill="#538606"/>
<path d="M136.206 44.9897C137.214 45.3287 138.193 45.7533 139.13 46.2569C139.938 46.4548 145.017 50.7282 141.97 49.587C138.321 48.2219 134.449 47.0133 130.524 46.5884C130.066 46.5168 127.711 46.3679 125.558 46.4791C123.404 46.5257 121.452 46.8325 121.795 46.1782C122.648 44.4252 128.198 43.8157 130.227 44.0105C132.251 44.0092 134.281 44.3406 136.206 44.9897Z" fill="#2F6618"/>
<path d="M106.211 64.4569C107.049 65.103 107.833 65.821 108.55 66.5999C109.246 67.0481 112.635 72.7293 110.138 70.6654C107.148 68.1954 103.897 65.8015 100.34 64.1303C99.9319 63.9146 97.7632 63.0124 95.6996 62.4214C93.6569 61.7692 91.7187 61.4281 92.2555 60.9207C93.6306 59.5395 99.0543 60.7578 100.901 61.598C102.807 62.2513 104.61 63.2206 106.211 64.4569Z" fill="#538606"/>
<path d="M137.997 35.7257C138.502 34.7903 138.927 33.8111 139.268 32.8038C139.723 32.1077 140.517 25.5174 139.07 28.4315C137.335 31.9201 135.331 35.4467 132.753 38.4374C132.467 38.8024 130.849 40.5191 129.199 41.9079C127.593 43.3442 125.958 44.4528 126.655 44.6963C128.475 45.3951 132.947 42.051 134.296 40.5236C135.775 39.1427 137.032 37.5147 137.997 35.7257Z" fill="#2F6618"/>
<path d="M133.883 35.5648C134.312 34.5925 134.659 33.5828 134.919 32.5518C135.318 31.8222 135.59 25.1895 134.377 28.209C132.923 31.8232 131.203 35.4974 128.869 38.6819C128.613 39.0685 127.135 40.9075 125.6 42.4222C124.113 43.9807 122.57 45.2147 123.285 45.4027C125.155 45.9556 129.348 42.2695 130.572 40.6401C131.938 39.1466 133.063 37.4247 133.883 35.5648Z" fill="#005700"/>
<path d="M126.964 38.9815C127.394 38.0091 127.741 36.9997 128.001 35.9685C128.4 35.2388 128.672 28.6061 127.458 31.6256C126.005 35.2399 124.285 38.914 121.951 42.0986C121.695 42.4851 120.216 44.3241 118.682 45.8388C117.195 47.3974 115.651 48.6313 116.366 48.8193C118.236 49.3722 122.429 45.6861 123.654 44.0567C125.02 42.5632 126.144 40.841 126.964 38.9815Z" fill="#60A403"/>
<path d="M104.077 47.2732C104.286 46.2309 104.407 45.1702 104.437 44.1071C104.669 43.3087 103.5 36.7739 102.968 39.9844C102.331 43.8277 101.446 47.7864 99.8562 51.4006C99.6898 51.8334 98.6438 53.9484 97.4728 55.7593C96.358 57.6023 95.1179 59.141 95.8564 59.1701C97.8012 59.3057 101.098 54.7999 101.942 52.9441C102.953 51.1908 103.679 49.2662 104.077 47.2732Z" fill="#005700"/>
<path d="M127.292 49.3539C128.286 49.0765 129.27 48.7677 130.239 48.428C130.934 48.1846 136.799 45.6328 133.513 45.7074C129.487 45.7988 125.385 46.687 121.434 47.6871C120.504 47.9223 111.935 49.8729 113.006 50.8795C114.346 52.1399 119.545 50.8823 121.506 50.5888C123.453 50.2978 125.392 49.8835 127.292 49.3539Z" fill="#005700"/>
<path d="M137.976 44.0937C138.971 43.8164 139.954 43.5075 140.924 43.1679C141.619 42.9244 147.483 40.373 144.197 40.4473C140.171 40.5387 136.069 41.4268 132.118 42.427C131.188 42.6622 122.62 44.6128 123.69 45.6194C125.03 46.8797 130.229 45.6221 132.191 45.3287C134.138 45.0376 136.076 44.6237 137.976 44.0937Z" fill="#005700"/>
<path d="M122.022 54.8939C123.047 54.7744 124.067 54.6217 125.078 54.4368C125.802 54.304 131.992 52.6941 128.734 52.2576C124.743 51.7227 120.552 51.9634 116.495 52.338C115.54 52.4263 106.771 53.0224 107.673 54.1835C108.801 55.6366 114.132 55.2011 116.115 55.2161C118.084 55.2308 120.063 55.1226 122.022 54.8939Z" fill="#005700"/>
<path d="M110.693 59.5227C111.718 59.4032 112.738 59.2509 113.748 59.0656C114.472 58.9331 120.662 57.3229 117.404 56.8863C113.413 56.3515 109.223 56.5922 105.165 56.9668C104.21 57.0548 95.4415 57.6512 96.3427 58.8123C97.4709 60.2654 102.802 59.8298 104.785 59.8449C106.754 59.8593 108.733 59.7511 110.693 59.5227Z" fill="#005700"/>
<path d="M49.8344 84.4028C48.1187 85.5659 46.3855 86.7122 44.74 87.9733C43.8717 88.6385 42.9949 89.2935 42.1666 90.0088C41.3435 90.7195 40.6279 91.5704 39.7737 92.2319C39.507 92.4383 39.8548 92.8899 40.1363 92.7044C40.9152 92.1915 41.8088 91.8693 42.6247 91.4105C43.4413 90.9513 44.2391 90.471 45.0355 89.9779C46.6303 88.9908 48.1851 87.9496 49.7498 86.9156C52.8803 84.8473 56.0361 82.8148 59.1994 80.7968C65.5777 76.7275 72.0382 72.7884 78.5265 68.8975C82.1736 66.7103 85.8296 64.5385 89.4856 62.3664C90.6665 61.6649 89.6092 59.8081 88.4246 60.5117C75.4221 68.2367 62.3579 75.9133 49.8344 84.4028Z" fill="#C45D00"/>
<path d="M38.7961 94.0161C37.8782 94.4879 36.9462 94.9292 36.004 95.3384C35.3284 95.6318 29.2911 97.7419 31.7532 95.565C34.77 92.8978 38.3842 90.7637 41.9632 88.8145C42.8055 88.3557 50.4195 83.9673 50.3178 85.4334C50.1901 87.2686 45.5203 89.8763 43.8813 90.9935C42.2546 92.1021 40.5509 93.1146 38.7961 94.0161Z" fill="#60A403"/>
<path d="M44.8448 80.489C43.8186 80.3784 42.7976 80.2349 41.7856 80.0586C41.06 79.9323 34.857 78.3761 38.1104 77.9112C42.0964 77.3418 46.289 77.5458 50.35 77.8852C51.3056 77.9649 60.0786 78.485 59.1878 79.6536C58.0723 81.1166 52.7379 80.7273 50.7544 80.7595C48.7857 80.7913 46.806 80.7006 44.8448 80.489Z" fill="#538606"/>
<path d="M48.8726 77.2965C47.8577 77.1079 46.8508 76.8867 45.8551 76.6337C45.1416 76.4522 39.0755 74.4266 42.3549 74.2116C46.3728 73.9483 50.5376 74.4722 54.561 75.121C55.5077 75.2737 64.2153 76.4625 63.2375 77.5595C62.0134 78.9328 56.7242 78.1374 54.7445 78.018C52.7792 77.8991 50.8122 77.6571 48.8726 77.2965Z" fill="#2F6618"/>
<path d="M51.7007 73.9433C50.7091 73.6571 49.7282 73.3393 48.762 72.9908C48.0693 72.7412 42.2282 70.1366 45.5131 70.2407C49.5378 70.3684 53.6318 71.2939 57.5733 72.3296C58.5009 72.5734 67.052 74.601 65.9724 75.5984C64.621 76.8467 59.4339 75.5419 57.4751 75.231C55.5303 74.9218 53.5961 74.4904 51.7007 73.9433Z" fill="#538606"/>
<path d="M55.1633 71.1113C54.1704 70.8298 53.1874 70.5207 52.2184 70.1841C51.5237 69.943 45.6528 67.4621 48.9205 67.6367C52.9244 67.8511 57.017 68.7823 60.9606 69.8092C61.8888 70.0509 70.4393 72.0816 69.3905 72.9492C68.0778 74.0353 62.8896 72.7366 60.9346 72.4089C58.9943 72.084 57.0611 71.6488 55.1633 71.1113Z" fill="#2F6618"/>
<path d="M59.5345 69.0749C58.543 68.7886 57.5621 68.4709 56.5958 68.1224C55.9032 67.8728 50.062 65.2682 53.3469 65.3723C57.3717 65.5 61.4656 66.4255 65.4072 67.4612C66.3347 67.705 74.8859 69.7326 73.8063 70.73C72.4549 71.9783 67.2677 70.6735 65.3089 70.3626C63.3642 70.0534 61.43 69.622 59.5345 69.0749Z" fill="#60A403"/>
<path d="M66.2763 62.6557C65.3241 62.2575 64.3863 61.8288 63.4663 61.3717C62.8069 61.0441 57.3037 57.7856 60.555 58.2666C64.5383 58.8559 68.4991 60.2456 72.2955 61.7275C73.1887 62.076 81.4506 65.0733 80.2635 65.9395C78.7775 67.0242 73.7749 65.1322 71.8644 64.5981C69.9682 64.068 68.0964 63.4168 66.2763 62.6557Z" fill="#2F6618"/>
<path d="M63.441 66.4535C62.4495 66.1672 61.4685 65.8495 60.5023 65.5009C59.8097 65.251 53.9685 62.6464 57.2534 62.7509C61.2782 62.8786 65.3721 63.804 69.3137 64.8398C70.2412 65.0836 78.7923 67.1115 77.7128 68.1085C76.3614 69.3569 71.1742 68.0521 69.2154 67.7412C67.2706 67.4323 65.3365 67.0006 63.441 66.4535Z" fill="#538606"/>
<path d="M58.0704 87.0693C57.6458 88.0098 57.2521 88.963 56.8912 89.9248C56.6324 90.6143 54.8307 96.7506 56.8799 94.1813C59.391 91.0334 61.3395 87.3158 63.1049 83.6427C63.5205 82.7781 67.5179 74.9518 66.0586 75.1278C64.232 75.3483 61.8644 80.1441 60.8317 81.8376C59.807 83.5184 58.8822 85.271 58.0704 87.0693Z" fill="#538606"/>
<path d="M69.4032 81.4028C69.0817 82.3834 68.7924 83.3732 68.5366 84.3679C68.3531 85.0811 67.2184 91.3752 68.9814 88.6012C71.1408 85.2026 72.6802 81.2977 74.0426 77.4568C74.363 76.5529 77.4997 68.3435 76.0678 68.6745C74.2754 69.0892 72.4344 74.111 71.589 75.9051C70.7498 77.6865 70.0178 79.5282 69.4032 81.4028Z" fill="#2F6618"/>
<path d="M63.3442 85.0109C63.01 85.9874 62.7076 86.9732 62.4389 87.9647C62.2461 88.6755 61.0299 94.9542 62.8285 92.2035C65.0321 88.8334 66.6222 84.9486 68.0342 81.1259C68.3666 80.2261 71.6097 72.0581 70.1738 72.3707C68.3762 72.762 66.4701 77.7595 65.6012 79.5423C64.7387 81.3121 63.983 83.1442 63.3442 85.0109Z" fill="#005700"/>
<path d="M64.7296 77.426C64.0157 78.1714 63.3268 78.9387 62.666 79.7251C62.1925 80.289 58.4485 85.4738 61.2369 83.7348C64.6536 81.6038 67.7296 78.748 70.6183 75.8736C71.2983 75.1971 77.6753 69.1502 76.241 68.83C74.4455 68.4291 70.6146 72.1615 69.0766 73.4139C67.5502 74.6571 66.094 76.0013 64.7296 77.426Z" fill="#005700"/>
<path d="M79.9327 77.1473C79.7693 78.1663 79.6389 79.1893 79.5427 80.212C79.4735 80.9451 79.342 87.3392 80.6469 84.3227C82.2455 80.627 83.1521 76.5286 83.8941 72.5216C84.0687 71.5787 85.8762 62.9783 84.5145 63.5302C82.8094 64.2211 81.7805 69.47 81.2276 71.3747C80.6784 73.2657 80.2449 75.1995 79.9327 77.1473Z" fill="#60A403"/>
<path d="M39.4101 87.4206C38.3576 87.2713 37.3171 87.0323 36.3043 86.7081C35.474 86.6608 29.6999 83.3862 32.9044 83.9519C36.7408 84.6284 40.7687 85.1101 44.7058 84.8123C45.169 84.7993 47.5116 84.5161 49.6088 84.0138C51.7179 83.5752 53.5812 82.9171 53.3627 83.6235C52.844 85.5029 47.4983 87.1145 45.4676 87.2929C43.4787 87.663 41.4223 87.7075 39.4101 87.4206Z" fill="#538606"/>
<path d="M43.428 83.6194C42.3905 83.3876 41.3723 83.0671 40.3882 82.6641C39.5645 82.5515 34.0667 78.8314 37.2164 79.6484C40.9874 80.6256 44.9649 81.4237 48.913 81.4374C49.3759 81.461 51.7336 81.3634 53.8636 81.0282C56.0004 80.7574 57.9103 80.2486 57.6367 80.9351C56.9711 82.7675 51.5152 83.9522 49.4766 83.97C47.4647 84.1823 45.4111 84.0642 43.428 83.6194Z" fill="#2F6618"/>
<path d="M71.2299 61.131C70.329 60.576 69.4748 59.9433 68.6798 59.2438C67.9409 58.8706 63.9784 53.5738 66.6768 55.3659C69.9082 57.5103 73.3914 59.5526 77.1035 60.8434C77.5315 61.0156 79.7824 61.6867 81.8966 62.0592C83.9961 62.4947 85.9594 62.6321 85.4783 63.1929C84.255 64.71 78.7336 64.0636 76.8091 63.4206C74.8462 62.9696 72.9517 62.1934 71.2299 61.131Z" fill="#538606"/>
<path d="M42.6137 93.0197C42.209 94.0027 41.8879 95.0207 41.654 96.0584C41.274 96.798 41.1712 103.436 42.3073 100.386C43.6683 96.736 45.2939 93.0194 47.5462 89.7763C47.7923 89.3836 49.2235 87.5077 50.7191 85.9542C52.166 84.3584 53.6773 83.0854 52.9579 82.9155C51.0748 82.4105 46.9768 86.2021 45.7938 87.8624C44.4664 89.3898 43.3861 91.1397 42.6137 93.0197Z" fill="#2F6618"/>
<path d="M46.7218 92.7509C46.3959 93.7627 46.1562 94.8032 46.0048 95.8557C45.6844 96.623 46.1055 103.248 46.9974 100.118C48.0664 96.372 49.3935 92.539 51.3827 89.1281C51.5971 88.7173 52.8759 86.7342 54.2441 85.0674C55.5605 83.3623 56.9667 81.9739 56.2364 81.8616C54.3194 81.5066 50.5333 85.6101 49.4849 87.3583C48.2821 88.9857 47.3432 90.8158 46.7218 92.7509Z" fill="#005700"/>
<path d="M53.2463 88.6317C52.9207 89.6434 52.6807 90.6836 52.5294 91.7364C52.2089 92.5037 52.63 99.1286 53.522 95.9992C54.5906 92.2528 55.918 88.4197 57.9073 85.0089C58.1216 84.598 59.4004 82.6149 60.7686 80.9482C62.0851 79.2431 63.4913 77.8547 62.761 77.7424C60.8439 77.3873 57.0578 81.4908 56.0094 83.2391C54.8069 84.8664 53.8681 86.6965 53.2463 88.6317Z" fill="#60A403"/>
<path d="M75.1444 77.9984C75.0451 79.0567 75.0358 80.1243 75.1159 81.1846C74.9691 82.0029 76.8125 88.3803 77.0066 85.1317C77.2401 81.2428 77.7071 77.2133 78.9117 73.4532C79.0322 73.0057 79.8519 70.7928 80.8273 68.87C81.7439 66.9208 82.8169 65.2609 82.0794 65.3091C80.1309 65.3773 77.3216 70.2022 76.6762 72.1357C75.8538 73.9849 75.3327 75.9749 75.1444 77.9984Z" fill="#005700"/>
<path d="M51.8391 78.35C50.8794 78.7294 49.933 79.1392 49.0044 79.5782C48.3388 79.8928 42.7723 83.0421 46.0322 82.6254C50.0265 82.1149 54.0136 80.8036 57.8387 79.3971C58.7389 79.066 67.0579 76.2327 65.8883 75.3432C64.4239 74.2294 59.385 76.0225 57.4645 76.5186C55.5581 77.011 53.6739 77.6249 51.8391 78.35Z" fill="#005700"/>
<path d="M41.7612 84.6953C40.8015 85.0746 39.8552 85.4845 38.9266 85.9234C38.2607 86.2381 32.6945 89.3873 35.9543 88.9707C39.9486 88.4602 43.9361 87.1488 47.7609 85.7423C48.661 85.4112 56.98 82.5779 55.8104 81.6884C54.346 80.5746 49.3071 82.3677 47.3867 82.8638C45.4799 83.3562 43.5957 83.9701 41.7612 84.6953Z" fill="#005700"/>
<path d="M56.5021 72.2902C55.4951 72.5158 54.4967 72.774 53.511 73.0633C52.8043 73.2708 46.8166 75.5175 50.1018 75.612C54.1269 75.7277 58.2695 75.0515 62.2662 74.2558C63.2067 74.0685 71.865 72.5613 70.8474 71.5006C69.5737 70.1728 64.3174 71.162 62.3432 71.3541C60.3841 71.5448 58.427 71.8588 56.5021 72.2902Z" fill="#005700"/>
<path d="M67.2873 66.5056C66.2804 66.7312 65.282 66.9894 64.2962 67.2787C63.5896 67.4862 57.6019 69.733 60.8871 69.8274C64.9122 69.9432 69.0548 69.267 73.0514 68.4713C73.992 68.284 82.6499 66.7764 81.6327 65.7161C80.359 64.3883 75.1027 65.3774 73.1285 65.5695C71.169 65.7602 69.2122 66.0742 67.2873 66.5056Z" fill="#005700"/>
<path d="M107.108 103.614C108.051 105.46 108.976 107.32 110.026 109.109C110.579 110.052 111.122 111.003 111.73 111.913C112.335 112.816 113.091 113.631 113.643 114.56C113.815 114.85 114.306 114.561 114.156 114.259C113.743 113.422 113.533 112.496 113.178 111.63C112.822 110.763 112.443 109.913 112.052 109.061C111.268 107.357 110.425 105.687 109.591 104.007C107.923 100.646 106.293 97.2649 104.678 93.8776C101.423 87.048 98.3066 80.153 95.2415 73.2361C93.5186 69.3483 91.8118 65.4532 90.105 61.5582C89.5538 60.3 87.5809 61.1217 88.1342 62.3837C94.2041 76.2357 100.219 90.1432 107.108 103.614Z" fill="#C45D00"/>
<path d="M115.293 115.749C115.649 116.718 115.972 117.697 116.263 118.682C116.471 119.389 117.824 125.639 115.966 122.929C113.689 119.607 112.015 115.758 110.52 111.967C110.168 111.075 106.747 102.98 108.19 103.261C109.995 103.613 112.01 108.567 112.918 110.331C113.818 112.082 114.614 113.897 115.293 115.749Z" fill="#60A403"/>
<path d="M102.611 108.086C102.375 109.091 102.107 110.087 101.808 111.069C101.594 111.774 99.2878 117.739 99.2259 114.453C99.1499 110.427 99.8672 106.291 100.703 102.303C100.899 101.364 102.492 92.7215 103.542 93.7493C104.857 95.036 103.816 100.282 103.605 102.255C103.394 104.212 103.061 106.165 102.611 108.086Z" fill="#538606"/>
<path d="M99.9367 103.697C99.6248 104.68 99.2817 105.653 98.9085 106.61C98.6407 107.296 95.8859 113.068 96.0752 109.786C96.307 105.766 97.3383 101.697 98.4757 97.7843C98.7435 96.8633 100.992 88.3677 101.961 89.4729C103.174 90.8565 101.735 96.0077 101.373 97.9579C101.014 99.8934 100.533 101.816 99.9367 103.697Z" fill="#2F6618"/>
<path d="M96.9559 100.478C96.5502 101.427 96.1143 102.362 95.6501 103.278C95.3173 103.935 92.0153 109.412 92.522 106.165C93.1427 102.186 94.5637 98.2363 96.0753 94.4519C96.431 93.5614 99.4934 85.3235 100.35 86.5174C101.423 88.0119 99.4916 92.9995 98.9425 94.9056C98.3974 96.7976 97.7314 98.6643 96.9559 100.478Z" fill="#538606"/>
<path d="M94.5705 96.6941C94.1696 97.6449 93.7416 98.5824 93.2889 99.503C92.9644 100.163 89.7815 105.685 90.3561 102.463C91.0603 98.5159 92.4871 94.5686 93.9902 90.7811C94.3438 89.8895 97.4089 81.653 98.1413 82.8C99.0582 84.236 97.1322 89.2256 96.5673 91.1258C96.0061 93.0114 95.3371 94.8767 94.5705 96.6941Z" fill="#2F6618"/>
<path d="M93.0858 92.1058C92.6801 93.0549 92.2442 93.9893 91.7799 94.9055C91.4471 95.5622 88.1451 101.039 88.6519 97.7922C89.2726 93.8136 90.6935 89.8638 92.2052 86.0794C92.5609 85.1889 95.6232 76.9514 96.4802 78.1449C97.5533 79.6394 95.6215 84.627 95.0723 86.5331C94.5273 88.4255 93.8617 90.2918 93.0858 92.1058Z" fill="#60A403"/>
<path d="M87.5429 84.6273C87.0307 85.5234 86.4904 86.4016 85.9238 87.2582C85.5177 87.8725 81.6083 92.934 82.4848 89.7666C83.5586 85.8856 85.4239 82.1255 87.3604 78.5397C87.8162 77.6957 91.8046 69.8646 92.5189 71.1489C93.4128 72.7568 90.9209 77.4896 90.1567 79.3196C89.3977 81.1367 88.5218 82.9144 87.5429 84.6273Z" fill="#2F6618"/>
<path d="M90.9641 87.9071C90.5584 88.8562 90.1225 89.7905 89.6582 90.7068C89.3254 91.3635 86.0234 96.8406 86.5302 93.5934C87.1509 89.6149 88.5718 85.6654 90.0835 81.8807C90.4392 80.9901 93.5015 72.7526 94.3585 73.9462C95.4316 75.4407 93.4998 80.4283 92.9506 82.3344C92.4056 84.2267 91.7396 86.0931 90.9641 87.9071Z" fill="#538606"/>
<path d="M110.765 95.7679C111.646 96.3048 112.544 96.8126 113.454 97.2888C114.106 97.6302 119.975 100.172 117.677 97.8223C114.861 94.9438 111.41 92.5536 107.982 90.3507C107.175 89.8323 99.8986 84.9043 99.8942 86.3738C99.8887 88.2135 104.358 91.1522 105.911 92.3851C107.454 93.6085 109.08 94.7415 110.765 95.7679Z" fill="#538606"/>
<path d="M106.532 83.8253C107.466 84.2645 108.413 84.6733 109.368 85.0493C110.054 85.3187 116.161 87.2176 113.624 85.1277C110.517 82.5673 106.83 80.5602 103.186 78.737C102.328 78.308 94.5657 74.1874 94.7184 75.649C94.9098 77.4788 99.6676 79.922 101.345 80.9814C103.009 82.0328 104.747 82.9854 106.532 83.8253Z" fill="#2F6618"/>
<path d="M109.369 90.2812C110.297 90.7328 111.239 91.1536 112.189 91.5422C112.871 91.8206 118.953 93.7986 116.444 91.6761C113.37 89.0753 109.709 87.0207 106.089 85.1502C105.237 84.7099 97.5286 80.4886 97.6629 81.9523C97.8306 83.7844 102.556 86.2893 104.219 87.3706C105.87 88.4429 107.595 89.418 109.369 90.2812Z" fill="#005700"/>
<path d="M102.012 87.9753C102.664 88.7751 103.341 89.553 104.04 90.3052C104.542 90.8445 109.228 95.1966 107.844 92.2158C106.149 88.5635 103.692 85.1598 101.194 81.9404C100.606 81.1827 95.3876 74.1113 94.8936 75.4956C94.2752 77.2284 97.5094 81.4884 98.5633 83.1685C99.61 84.8363 100.765 86.4462 102.012 87.9753Z" fill="#005700"/>
<path d="M103.601 72.8533C104.592 73.1405 105.592 73.3953 106.595 73.6165C107.314 73.775 113.643 74.6905 110.81 73.0252C107.339 70.9849 103.382 69.5821 99.4967 68.354C98.5822 68.065 90.2687 65.2153 90.6494 66.6348C91.126 68.4118 96.2087 70.0772 98.0313 70.8599C99.8405 71.6368 101.706 72.3041 103.601 72.8533Z" fill="#60A403"/>
<path d="M108.823 114.33C108.545 115.356 108.18 116.359 107.734 117.325C107.586 118.143 103.627 123.472 104.582 120.361C105.724 116.636 106.696 112.698 106.884 108.754C106.928 108.292 106.934 105.933 106.693 103.79C106.517 101.643 106.093 99.7129 106.767 100.017C108.568 100.762 109.511 106.265 109.439 108.302C109.563 110.322 109.354 112.369 108.823 114.33Z" fill="#538606"/>
<path d="M105.544 109.876C105.186 110.877 104.743 111.849 104.222 112.776C104.01 113.58 99.6426 118.579 100.84 115.553C102.272 111.93 103.553 108.081 104.051 104.164C104.131 103.708 104.324 101.356 104.253 99.2008C104.246 97.0468 103.976 95.089 104.624 95.4448C106.361 96.3302 106.867 101.891 106.634 103.915C106.597 105.939 106.228 107.963 105.544 109.876Z" fill="#2F6618"/>
<path d="M86.638 79.524C85.9765 80.3499 85.2438 81.1199 84.4519 81.8232C83.991 82.5107 78.2475 85.7932 80.3573 83.3348C82.8824 80.3913 85.3366 77.1848 87.0735 73.6593C87.2968 73.2556 88.239 71.104 88.8683 69.0518C89.5586 67.0214 89.9356 65.09 90.433 65.6361C91.7886 67.0365 90.4693 72.4366 89.5949 74.2677C88.9067 76.1611 87.9038 77.9456 86.638 79.524Z" fill="#538606"/>
<path d="M114.773 111.838C115.698 112.36 116.67 112.804 117.67 113.163C118.358 113.631 124.932 114.548 122.045 113.046C118.59 111.247 115.101 109.178 112.159 106.545C111.799 106.252 110.113 104.602 108.755 102.927C107.349 101.295 106.271 99.6384 106.014 100.332C105.282 102.139 108.542 106.671 110.044 108.049C111.397 109.554 113.002 110.841 114.773 111.838Z" fill="#2F6618"/>
<path d="M115.01 107.728C115.974 108.176 116.977 108.541 118.003 108.821C118.725 109.233 125.352 109.628 122.355 108.359C118.769 106.838 115.127 105.051 111.987 102.658C111.605 102.395 109.794 100.882 108.308 99.3196C106.777 97.8039 105.572 96.2378 105.371 96.9489C104.783 98.8077 108.391 103.069 109.997 104.324C111.465 105.717 113.166 106.874 115.01 107.728Z" fill="#005700"/>
<path d="M111.723 100.747C112.687 101.195 113.69 101.561 114.716 101.84C115.438 102.252 122.065 102.647 119.068 101.378C115.481 99.8575 111.84 98.0699 108.699 95.6769C108.318 95.4136 106.507 93.9013 105.021 92.3386C103.49 90.8229 102.285 89.2568 102.084 89.9679C101.496 91.8268 105.104 96.0881 106.71 97.343C108.178 98.7365 109.879 99.8927 111.723 100.747Z" fill="#60A403"/>
<path d="M103.858 77.7098C104.897 77.9381 105.955 78.0785 107.017 78.1292C107.812 78.3754 114.367 77.3287 111.167 76.7374C107.336 76.0283 103.394 75.0703 99.8104 73.4131C99.381 73.2385 97.2856 72.1535 95.497 70.9493C93.6748 69.8003 92.1594 68.5317 92.1169 69.2696C91.945 71.2116 96.3889 74.592 98.2285 75.4699C99.9624 76.5128 101.873 77.2742 103.858 77.7098Z" fill="#005700"/>
<path d="M101.346 100.882C101.605 101.881 101.895 102.87 102.217 103.846C102.447 104.545 104.89 110.456 104.876 107.17C104.86 103.143 104.048 99.0251 103.122 95.0565C102.903 94.1225 101.113 85.5186 100.086 86.5704C98.8013 87.8869 99.962 93.108 100.219 95.0746C100.474 97.0266 100.852 98.972 101.346 100.882Z" fill="#005700"/>
<path d="M106.407 111.663C106.666 112.662 106.956 113.651 107.278 114.627C107.508 115.326 109.951 121.237 109.937 117.951C109.921 113.924 109.109 109.806 108.182 105.837C107.964 104.903 106.174 96.2994 105.147 97.3512C103.862 98.6676 105.023 103.889 105.28 105.855C105.534 107.807 105.912 109.753 106.407 111.663Z" fill="#005700"/>
<path d="M95.9047 95.5101C96.005 96.5372 96.1385 97.5596 96.3049 98.5734C96.4241 99.3 97.919 105.518 98.4158 102.27C99.0245 98.2896 98.8619 94.0953 98.563 90.0309C98.4928 89.0742 98.0593 80.2968 96.8822 81.1764C95.4082 82.2775 95.7445 87.6153 95.6928 89.5981C95.6414 91.5661 95.713 93.5468 95.9047 95.5101Z" fill="#005700"/>
<path d="M91.4879 84.0966C91.5882 85.1238 91.7217 86.1462 91.8881 87.16C92.0073 87.8865 93.5021 94.105 93.9993 90.8564C94.608 86.8761 94.4454 82.6815 94.1465 78.6174C94.076 77.6608 93.6428 68.8833 92.4654 69.7629C90.9914 70.864 91.3276 76.2019 91.2759 78.1846C91.2246 80.1527 91.2958 82.133 91.4879 84.0966Z" fill="#005700"/>
<path d="M105.017 73.6564C110.487 72.9729 114.367 67.9845 113.683 62.5145C113 57.0445 108.011 53.1644 102.541 53.8479C97.0714 54.5315 93.1912 59.5199 93.8747 64.9898C94.5583 70.4598 99.5467 74.34 105.017 73.6564Z" fill="#FF4800"/>
<path d="M111.172 60.6061C110.753 60.0936 110.199 59.9796 109.691 60.083C109.222 60.0878 108.751 60.2737 108.463 60.6397C106.928 62.591 107.145 66.6691 110.899 66.4394C112.553 64.6152 112.589 62.3397 111.172 60.6061Z" fill="white"/>
<path d="M83.7652 77.5335C86.7214 72.8813 85.3464 66.7134 80.6941 63.7572C76.0418 60.801 69.8739 62.1759 66.9177 66.8282C63.9615 71.4805 65.3365 77.6484 69.9888 80.6046C74.6411 83.5608 80.809 82.1858 83.7652 77.5335Z" fill="#D33700"/>
<path d="M69.0458 77.1818C69.5858 77.5649 70.15 77.5282 70.6129 77.2934C71.0632 77.1646 71.4685 76.8602 71.649 76.4312C72.6118 74.1431 71.3217 70.2679 67.7625 71.4847C66.6518 73.6822 67.2202 75.8858 69.0458 77.1818Z" fill="white"/>
<path d="M95.8764 62.562C101.3 61.5725 104.894 56.374 103.904 50.9507C102.915 45.5275 97.7163 41.9332 92.2931 42.9227C86.8698 43.9122 83.2755 49.1108 84.265 54.534C85.2545 59.9573 90.4531 63.5515 95.8764 62.562Z" fill="#D33700"/>
<path d="M94.3355 44.7042C93.6943 44.8689 93.358 45.3233 93.2378 45.8283C93.0451 46.2553 93.016 46.761 93.2265 47.1759C94.3513 49.3891 98.1425 50.9076 99.5128 47.405C98.5534 45.1377 96.5042 44.1479 94.3355 44.7042Z" fill="white"/>
<path d="M85.8517 59.356C88.8107 54.7053 87.4393 48.5363 82.7886 45.5773C78.1378 42.6183 71.9689 43.9897 69.0099 48.6405C66.0509 53.2912 67.4223 59.4602 72.073 62.4192C76.7238 65.3782 82.8927 64.0068 85.8517 59.356Z" fill="#FF4800"/>
<path d="M71.1043 49.043C70.8584 49.6576 71.0265 50.1976 71.3631 50.5927C71.5939 51.0005 71.9845 51.3226 72.444 51.3976C74.8942 51.7972 78.3588 49.6343 76.3414 46.46C73.9451 45.8955 71.9359 46.9644 71.1043 49.043Z" fill="white"/>
<path d="M94.6256 86.7928C99.9611 85.407 103.163 79.9583 101.777 74.6228C100.391 69.2873 94.9426 66.0855 89.6071 67.4713C84.2717 68.8572 81.0698 74.3058 82.4557 79.6413C83.8415 84.9768 89.2902 88.1786 94.6256 86.7928Z" fill="#FF2A00"/>
<path d="M97.8186 82.7894C98.135 82.208 98.0313 81.652 97.7433 81.2202C97.5619 80.7885 97.2116 80.4221 96.7644 80.2941C94.378 79.61 90.6836 81.3514 92.3148 84.7407C94.6286 85.5822 96.749 84.7564 97.8186 82.7894Z" fill="white"/>
<path d="M93.0775 72.6133C97.8411 69.8401 99.4547 63.7303 96.6815 58.9667C93.9083 54.203 87.7985 52.5894 83.0349 55.3626C78.2712 58.1358 76.6577 64.2456 79.4308 69.0092C82.204 73.7729 88.3138 75.3865 93.0775 72.6133Z" fill="#C1272D"/>
<path d="M80.1795 65.4616C79.958 67.3208 80.8304 68.9293 82.4841 69.7949C83.0706 70.1016 83.6249 69.9893 84.0519 69.6945C84.4809 69.5062 84.8411 69.1501 84.9623 68.7009C85.5218 66.6243 84.2457 63.5952 81.7079 63.9181C80.803 64.0332 80.2887 64.5457 80.1795 65.4616Z" fill="white"/>
<path d="M62.3258 55.6147H61.1836L61.6845 55.1217C61.7711 55.0364 61.7722 54.8974 61.6869 54.8112C61.6017 54.7245 61.4627 54.7235 61.3764 54.8084L60.557 55.6147H59.3535L60.7012 54.2883C60.7878 54.2034 60.7888 54.0641 60.7036 53.9778C60.6183 53.8912 60.4793 53.8901 60.3927 53.975L58.727 55.6147H56.8695L58.7239 53.8312L60.4468 53.8716C60.4485 53.8716 60.4502 53.8716 60.4523 53.8716C60.5711 53.8716 60.669 53.7765 60.6717 53.657C60.6745 53.5358 60.5786 53.4351 60.4574 53.4324L59.17 53.4022L59.7507 52.8435L60.5913 52.8633C60.593 52.8633 60.5947 52.8633 60.5964 52.8633C60.7152 52.8633 60.8131 52.7685 60.8159 52.649C60.8186 52.5274 60.7228 52.4271 60.6015 52.424L60.1968 52.4144L60.8018 51.8327C60.8998 51.7382 60.9028 51.5828 60.8087 51.4845C60.7145 51.3866 60.5587 51.3835 60.4605 51.4777L59.8682 52.0474L59.8736 51.6896C59.8757 51.5684 59.7788 51.4684 59.6572 51.4664C59.5371 51.4619 59.4361 51.5612 59.434 51.6828L59.4213 52.4768L58.8434 53.0325L58.8626 51.818C58.8646 51.6965 58.7677 51.5968 58.6462 51.5948C58.6451 51.5948 58.6438 51.5948 58.6427 51.5948C58.5229 51.5948 58.425 51.6906 58.4229 51.8108L58.3969 53.4615L56.5042 55.2823V53.4111L58.1809 51.7862C58.2682 51.7019 58.2702 51.5629 58.1857 51.4753C58.1011 51.3883 57.9621 51.3859 57.8751 51.4705L56.5042 52.7989V51.6201L57.3475 50.8028C57.4348 50.7186 57.4369 50.5793 57.3523 50.4919C57.2677 50.405 57.1287 50.4026 57.0417 50.4871L56.5042 51.0083V49.7941C56.5042 49.6582 56.3939 49.548 56.258 49.548C56.1221 49.548 56.0118 49.6582 56.0118 49.7941V50.9713L55.539 50.4909C55.4537 50.4043 55.3147 50.4036 55.2281 50.4885C55.1418 50.5734 55.1405 50.7128 55.2257 50.7991L56.0118 51.5975V52.8007L54.7056 51.4739C54.6207 51.3873 54.4814 51.3862 54.3947 51.4715C54.3085 51.5564 54.3071 51.6954 54.3923 51.7821L56.0118 53.4269V55.2819L54.0126 53.3591L54.051 51.7211C54.0537 51.5999 53.9579 51.4992 53.8366 51.4965C53.7158 51.492 53.6148 51.5896 53.6117 51.7108L53.5826 52.9455L53.0231 52.4073L53.0427 51.577C53.0454 51.4558 52.9495 51.3548 52.828 51.3524C52.8263 51.3524 52.8246 51.3524 52.8228 51.3524C52.7037 51.3524 52.6061 51.4472 52.6034 51.5667L52.5934 51.994L52.0562 51.4773C51.9583 51.3828 51.8025 51.3859 51.708 51.4842C51.6139 51.5821 51.6166 51.7379 51.7149 51.8324L52.2007 52.3001L51.8689 52.295C51.7488 52.2908 51.6478 52.3898 51.6457 52.511C51.6437 52.6322 51.7406 52.7322 51.8621 52.7342L52.665 52.7469L53.2666 53.3255L51.997 53.3053C51.996 53.3053 51.9946 53.3053 51.9936 53.3053C51.8737 53.3053 51.7758 53.4015 51.7738 53.5214C51.7721 53.6429 51.8686 53.7426 51.9902 53.7446L53.7312 53.772L55.6469 55.6144H53.6141L52.0282 53.9785C51.9439 53.8915 51.8046 53.8891 51.7176 53.9737C51.6303 54.0579 51.6282 54.1973 51.7128 54.2842L53.0022 55.6144H51.9333L51.1551 54.8119C51.0705 54.7249 50.9315 54.7225 50.8445 54.807C50.7572 54.8916 50.7552 55.0306 50.8397 55.1179L51.3215 55.6147H50.1912C50.0553 55.6147 49.9451 55.725 49.9451 55.8609C49.9451 55.9968 50.0553 56.1071 50.1912 56.1071H51.365L50.8432 56.6207C50.7565 56.7056 50.7555 56.845 50.8408 56.9312C50.8839 56.9751 50.9404 56.997 50.9976 56.997C51.053 56.997 51.1088 56.9757 51.1516 56.9336L51.9915 56.1071H53.0851L51.7169 57.4537C51.6303 57.5386 51.6293 57.678 51.7145 57.7643C51.7577 57.8081 51.8142 57.83 51.871 57.83C51.9268 57.83 51.9823 57.8088 52.0251 57.7667L53.7117 56.1068H55.6475L53.7562 57.9259L52.0826 57.8865C51.9628 57.8814 51.8604 57.9796 51.8576 58.1012C51.8549 58.2224 51.9508 58.323 52.0723 58.3258L53.3101 58.3549L52.7294 58.9133L51.9385 58.8945C51.9367 58.8945 51.935 58.8945 51.9333 58.8945C51.8145 58.8945 51.7166 58.9897 51.7138 59.1091C51.7111 59.2304 51.807 59.331 51.9285 59.3341L52.2836 59.3423L51.7159 59.8884C51.618 59.9829 51.6149 60.1387 51.7091 60.2366C51.7573 60.2866 51.822 60.312 51.8864 60.312C51.9477 60.312 52.0093 60.289 52.0569 60.2431L52.6626 59.6607L52.6561 60.0678C52.654 60.189 52.7509 60.289 52.8725 60.2911C52.8739 60.2911 52.8749 60.2911 52.8759 60.2911C52.9954 60.2911 53.0937 60.1949 53.0954 60.075L53.1087 59.2317L53.6863 58.6757L53.6665 59.9394C53.6648 60.0606 53.7613 60.1606 53.8829 60.1627C53.8842 60.1627 53.8853 60.1627 53.8863 60.1627C54.0061 60.1627 54.1041 60.0665 54.1061 59.9466L54.1328 58.2467L56.0122 56.4389V58.3624L54.3965 59.9282C54.3095 60.0127 54.3074 60.1517 54.3917 60.239C54.4348 60.2835 54.492 60.3055 54.5495 60.3055C54.6046 60.3055 54.6597 60.2849 54.7025 60.2438L56.0125 58.9743V60.0983L55.2302 60.8567C55.1432 60.9409 55.1408 61.0803 55.2254 61.1672C55.2685 61.2117 55.3257 61.234 55.3832 61.234C55.4383 61.234 55.4935 61.2135 55.5363 61.172L56.0129 60.7102V61.9267C56.0129 62.0626 56.1231 62.1728 56.259 62.1728C56.395 62.1728 56.5052 62.0626 56.5052 61.9267V60.6259L57.039 61.1683C57.1243 61.2549 57.2633 61.2559 57.3499 61.1707C57.4365 61.0858 57.4375 60.9464 57.3523 60.8601L56.5052 59.9997V58.851L57.8724 60.2401C57.9573 60.3267 58.0966 60.3274 58.1829 60.2428C58.2695 60.1576 58.2706 60.0182 58.1853 59.9319L56.5049 58.2248V56.4389L58.6201 58.4737L58.5037 60.1558C58.4955 60.2767 58.5866 60.3818 58.7078 60.39C58.7129 60.3907 58.7181 60.3907 58.7232 60.3907C58.8376 60.3907 58.9341 60.302 58.9423 60.1863L59.0334 58.8712L59.5675 59.3848L59.5052 60.2907C59.4967 60.4119 59.5881 60.5167 59.7093 60.5249C59.7144 60.5253 59.7196 60.5256 59.7247 60.5256C59.8391 60.5256 59.9356 60.4369 59.9438 60.3212L59.9808 59.7826L60.4605 60.2438C60.5084 60.2897 60.5697 60.3126 60.6313 60.3126C60.696 60.3126 60.7604 60.2873 60.8087 60.2373C60.9028 60.1394 60.9001 59.9836 60.8018 59.8891L60.518 59.6162L60.7101 59.6282C60.8313 59.6364 60.9354 59.5437 60.9429 59.4224C60.9501 59.3012 60.858 59.1971 60.7368 59.1896L60.0291 59.1461L59.4569 58.5959L60.6276 58.6678C60.7495 58.6767 60.8529 58.5832 60.8604 58.462C60.8679 58.3408 60.7755 58.2367 60.6546 58.2292L58.968 58.1258L56.8695 56.1074H58.7838L60.3893 57.7636C60.4324 57.8081 60.4896 57.8303 60.5471 57.8303C60.6022 57.8303 60.6574 57.8094 60.7002 57.7684C60.7875 57.6838 60.7895 57.5448 60.7049 57.4575L59.396 56.1074H60.5748L61.3726 56.9302C61.4157 56.9747 61.4733 56.997 61.5304 56.997C61.5856 56.997 61.6407 56.9764 61.6831 56.935C61.7705 56.8508 61.7725 56.7114 61.6879 56.6241L61.1867 56.1071H62.3255C62.4614 56.1071 62.5716 55.9968 62.5716 55.8609C62.5716 55.725 62.4614 55.6147 62.3258 55.6147Z" fill="white"/>
<path d="M105.09 37.043H103.947L104.448 36.5496C104.535 36.4644 104.536 36.3254 104.451 36.2391C104.366 36.1524 104.226 36.1514 104.14 36.2367L103.321 37.043H102.118L103.465 35.7166C103.552 35.6317 103.553 35.4923 103.468 35.406C103.382 35.3194 103.243 35.3184 103.157 35.4036L101.491 37.0433H99.6336L101.488 35.2598L103.211 35.3002C103.213 35.3006 103.214 35.3006 103.216 35.3006C103.335 35.3006 103.433 35.2054 103.436 35.0859C103.439 34.9647 103.343 34.864 103.221 34.8613L101.934 34.8312L102.515 34.2724L103.355 34.2922C103.357 34.2922 103.359 34.2922 103.36 34.2922C103.479 34.2922 103.577 34.1974 103.58 34.0779C103.583 33.9564 103.487 33.856 103.366 33.853L102.961 33.8434L103.566 33.2617C103.664 33.1675 103.667 33.0117 103.573 32.9135C103.479 32.8155 103.323 32.8124 103.225 32.9066L102.632 33.4763L102.638 33.1185C102.64 32.9973 102.543 32.8974 102.421 32.8953C102.301 32.8909 102.2 32.9902 102.198 33.1114L102.186 33.9054L101.608 34.461L101.627 33.2466C101.629 33.125 101.532 33.0254 101.411 33.0234C101.41 33.0234 101.408 33.0234 101.407 33.0234C101.287 33.0234 101.189 33.1192 101.187 33.2394L101.161 34.8901L99.2686 36.7109V34.8397L100.945 33.2147C101.033 33.1305 101.035 32.9915 100.95 32.9039C100.866 32.8169 100.727 32.8145 100.639 32.8991L99.2683 34.2275V33.0487L100.112 32.2314C100.199 32.1472 100.201 32.0078 100.116 31.9205C100.032 31.8336 99.8928 31.8312 99.8058 31.9157L99.2683 32.4369V31.2227C99.2683 31.0868 99.158 30.9766 99.0221 30.9766C98.8862 30.9766 98.7759 31.0868 98.7759 31.2227V32.3999L98.3031 31.9195C98.2178 31.8329 98.0788 31.8322 97.9922 31.9171C97.9059 32.002 97.9045 32.1414 97.9898 32.2276L98.7759 33.0261V34.2292L97.4697 32.9025C97.3848 32.8159 97.2455 32.8148 97.1588 32.9001C97.0725 32.9854 97.0712 33.124 97.1564 33.2106L98.7759 34.8555V36.7105L96.7767 34.7877L96.8151 33.1497C96.8178 33.0285 96.7219 32.9278 96.6007 32.9251C96.4799 32.9206 96.3789 33.0182 96.3758 33.1394L96.3467 34.3741L95.7872 33.8362L95.8067 33.0059C95.8095 32.8847 95.7136 32.784 95.5924 32.7813C95.5907 32.7813 95.589 32.7813 95.5873 32.7813C95.4681 32.7813 95.3705 32.8761 95.3678 32.9956L95.3579 33.4229L94.821 32.9063C94.7231 32.8118 94.5673 32.8148 94.4728 32.9131C94.3786 33.011 94.3814 33.1668 94.4796 33.2613L94.9655 33.729L94.6337 33.7235C94.5135 33.7194 94.4125 33.8184 94.4105 33.9399C94.4084 34.0611 94.5053 34.1611 94.6269 34.1632L95.4298 34.1758L96.0313 34.7545L94.7618 34.7343C94.7607 34.7343 94.7594 34.7343 94.7583 34.7343C94.6385 34.7343 94.5406 34.8305 94.5385 34.9503C94.5368 35.0719 94.6334 35.1715 94.7549 35.1736L96.496 35.2009L98.4116 37.0433H96.3789L94.7929 35.4074C94.7084 35.3204 94.5693 35.318 94.4824 35.4026C94.3951 35.4868 94.393 35.6262 94.4776 35.7132L95.767 37.0433H94.6981L93.9198 36.2408C93.8353 36.1538 93.6963 36.1514 93.6093 36.236C93.522 36.3205 93.5199 36.4596 93.6045 36.5469L94.0862 37.0437H92.956C92.8201 37.0437 92.7098 37.1539 92.7098 37.2899C92.7098 37.4258 92.8201 37.536 92.956 37.536H94.1297L93.6079 38.0496C93.5213 38.1345 93.5203 38.2739 93.6055 38.3601C93.6487 38.404 93.7052 38.4259 93.7623 38.4259C93.8178 38.4259 93.8736 38.4047 93.9164 38.3625L94.7563 37.536H95.8499L94.4817 38.8826C94.3951 38.9675 94.394 39.1069 94.4793 39.1932C94.5224 39.237 94.5793 39.2589 94.6361 39.2589C94.6916 39.2589 94.7474 39.2377 94.7902 39.1956L96.4768 37.5357H98.4126L96.5213 39.3548L94.8477 39.3154C94.7279 39.3103 94.6258 39.4086 94.6231 39.5301C94.62 39.6513 94.7162 39.752 94.8374 39.7547L96.0752 39.7838L95.4945 40.3426L94.7036 40.3238C94.7019 40.3238 94.7001 40.3238 94.6984 40.3238C94.5796 40.3238 94.4817 40.4189 94.479 40.5384C94.4762 40.6596 94.5721 40.7603 94.6936 40.7634L95.0487 40.7716L94.481 41.3177C94.3831 41.4122 94.38 41.568 94.4742 41.6659C94.5224 41.7159 94.5871 41.7412 94.6515 41.7412C94.7128 41.7412 94.7744 41.7183 94.8224 41.6724L95.4277 41.09L95.4212 41.4971C95.4192 41.6183 95.516 41.7183 95.6376 41.7203C95.6386 41.7203 95.64 41.7203 95.641 41.7203C95.7605 41.7203 95.8588 41.6241 95.8605 41.5043L95.8738 40.661L96.4515 40.105L96.4316 41.3687C96.4295 41.4899 96.5264 41.5899 96.648 41.592C96.6494 41.592 96.6504 41.592 96.6514 41.592C96.7712 41.592 96.8692 41.4957 96.8712 41.3759L96.8979 39.6759L98.7776 37.8682V39.7917L97.1619 41.3574C97.0749 41.442 97.0729 41.581 97.1571 41.6683C97.2003 41.7128 97.2574 41.7347 97.315 41.7347C97.3701 41.7347 97.4252 41.7142 97.468 41.6731L98.778 40.4035V41.5276L97.9956 42.286C97.9083 42.3702 97.9063 42.5096 97.9908 42.5965C98.034 42.641 98.0911 42.6633 98.1487 42.6633C98.2038 42.6633 98.2589 42.6427 98.3017 42.6013L98.7783 42.1394V43.3559C98.7783 43.4919 98.8886 43.6021 99.0245 43.6021C99.1604 43.6021 99.2707 43.4919 99.2707 43.3559V42.0552L99.8045 42.5976C99.8894 42.6842 100.029 42.6852 100.115 42.6C100.202 42.515 100.203 42.3757 100.118 42.2894L99.2707 41.429V40.2806L100.638 41.6697C100.723 41.7563 100.862 41.757 100.948 41.6721C101.035 41.5868 101.036 41.4478 100.951 41.3615L99.2703 39.6544V37.8685L101.386 39.9033L101.268 41.5848C101.26 41.7056 101.351 41.8107 101.472 41.819C101.477 41.8197 101.482 41.8196 101.487 41.8196C101.602 41.8196 101.698 41.731 101.706 41.6152L101.797 40.3001L102.332 40.8137L102.269 41.7197C102.261 41.8409 102.352 41.9456 102.473 41.9539C102.478 41.9542 102.483 41.9545 102.488 41.9545C102.603 41.9545 102.699 41.8659 102.707 41.7501L102.745 41.2112L103.224 41.6724C103.272 41.7183 103.333 41.7412 103.395 41.7412C103.46 41.7412 103.524 41.7159 103.572 41.6659C103.667 41.568 103.664 41.4122 103.566 41.3177L103.282 41.0448L103.474 41.0568C103.595 41.065 103.699 40.9722 103.707 40.851C103.714 40.7298 103.622 40.6257 103.501 40.6182L102.793 40.5747L102.221 40.0245L103.392 40.0964C103.514 40.1053 103.617 40.0118 103.624 39.8906C103.632 39.7694 103.54 39.6653 103.419 39.6578L101.732 39.5544L99.6336 37.536H101.548L103.153 39.1922C103.196 39.2367 103.253 39.2589 103.311 39.2589C103.366 39.2589 103.421 39.238 103.464 39.197C103.551 39.1124 103.553 38.9734 103.469 38.8861L102.16 37.536H103.339L104.136 38.3588C104.179 38.4033 104.237 38.4256 104.294 38.4256C104.349 38.4256 104.404 38.405 104.447 38.3636C104.534 38.2793 104.536 38.14 104.452 38.053L103.95 37.536H105.089C105.225 37.536 105.335 37.4258 105.335 37.2899C105.335 37.1532 105.225 37.043 105.09 37.043Z" fill="white"/>
<path d="M125.94 47.6235H124.798L125.299 47.1301C125.385 47.0449 125.386 46.9058 125.301 46.8196C125.216 46.7329 125.077 46.7319 124.991 46.8172L124.171 47.6235H122.968L124.315 46.2971C124.402 46.2122 124.403 46.0728 124.318 45.9865C124.233 45.8999 124.094 45.8989 124.007 45.9838L122.341 47.6235H120.484L122.338 45.84L124.061 45.8804C124.063 45.8804 124.064 45.8804 124.066 45.8804C124.185 45.8804 124.283 45.7852 124.286 45.6657C124.289 45.5445 124.193 45.4438 124.072 45.4411L122.784 45.411L123.365 44.8522L124.205 44.8721C124.207 44.8721 124.209 44.8721 124.211 44.8721C124.329 44.8721 124.427 44.7772 124.43 44.6577C124.433 44.5362 124.337 44.4359 124.216 44.4328L123.811 44.4232L124.416 43.8415C124.514 43.747 124.517 43.5915 124.423 43.4933C124.329 43.3953 124.173 43.3923 124.075 43.4864L123.482 44.0561L123.488 43.6984C123.49 43.5772 123.393 43.4772 123.271 43.4751C123.151 43.4707 123.05 43.57 123.048 43.6912L123.036 44.4852L122.458 45.0409L122.477 43.8264C122.479 43.7049 122.382 43.6052 122.261 43.6032C122.26 43.6032 122.258 43.6032 122.257 43.6032C122.137 43.6032 122.04 43.699 122.037 43.8192L122.011 45.4699L120.119 47.2907V45.4192L121.795 43.7942C121.883 43.71 121.885 43.571 121.8 43.4833C121.716 43.3964 121.577 43.394 121.49 43.4785L120.119 44.807V43.6282L120.962 42.8105C121.049 42.7263 121.051 42.587 120.967 42.5C120.882 42.413 120.743 42.4106 120.656 42.4952L120.119 43.0163V41.8022C120.119 41.6663 120.008 41.556 119.873 41.556C119.737 41.556 119.626 41.6663 119.626 41.8022V42.9793L119.154 42.499C119.068 42.4124 118.929 42.4117 118.843 42.4966C118.756 42.5815 118.755 42.7208 118.84 42.8071L119.626 43.6056V44.8087L118.32 43.482C118.235 43.3953 118.096 43.3943 118.009 43.4796C117.923 43.5645 117.922 43.7035 118.007 43.7901L119.626 45.435V47.29L117.627 45.3672L117.666 43.7292C117.668 43.608 117.572 43.507 117.451 43.5042C117.33 43.4998 117.229 43.5974 117.226 43.7186L117.197 44.9532L116.638 44.4153L116.657 43.585C116.66 43.4638 116.564 43.3632 116.443 43.3604C116.441 43.3604 116.439 43.3604 116.438 43.3604C116.319 43.3604 116.221 43.4553 116.218 43.5747L116.208 44.002L115.671 43.4854C115.574 43.3912 115.418 43.3943 115.323 43.4922C115.229 43.5902 115.232 43.7459 115.33 43.8404L115.816 44.3082L115.484 44.3027C115.364 44.2986 115.263 44.3975 115.261 44.5191C115.259 44.6403 115.356 44.7402 115.477 44.7423L116.28 44.755L116.882 45.3336L115.612 45.3134C115.611 45.3134 115.61 45.3134 115.609 45.3134C115.489 45.3134 115.391 45.4096 115.389 45.5295C115.387 45.651 115.484 45.7506 115.605 45.7527L117.346 45.7801L119.262 47.6225H117.229L115.643 45.9865C115.559 45.8996 115.42 45.8972 115.333 45.9817C115.246 46.066 115.243 46.2053 115.328 46.2923L116.617 47.6225H115.549L114.77 46.8199C114.686 46.7329 114.547 46.7305 114.46 46.8151C114.372 46.8997 114.37 47.0387 114.455 47.1257L114.937 47.6225H113.806C113.671 47.6225 113.56 47.7327 113.56 47.8686C113.56 48.0046 113.671 48.1148 113.806 48.1148H114.98L114.458 48.6284C114.372 48.7133 114.371 48.8527 114.456 48.9389C114.499 48.9828 114.556 49.0047 114.613 49.0047C114.668 49.0047 114.724 48.9835 114.767 48.9413L115.607 48.1148H116.7L115.332 49.4614C115.246 49.5463 115.245 49.6857 115.329 49.772C115.373 49.8158 115.429 49.8377 115.486 49.8377C115.542 49.8377 115.598 49.8165 115.64 49.7744L117.327 48.1145H119.263L117.371 49.9336L115.698 49.8942C115.578 49.8891 115.476 49.9873 115.473 50.1089C115.47 50.2301 115.566 50.3307 115.688 50.3335L116.925 50.3626L116.345 50.9214L115.554 50.9025C115.552 50.9025 115.55 50.9025 115.549 50.9025C115.43 50.9025 115.332 50.9977 115.329 51.1172C115.326 51.2384 115.422 51.3391 115.544 51.3422L115.899 51.3504L115.331 51.8965C115.233 51.991 115.23 52.1468 115.324 52.2447C115.373 52.2947 115.437 52.32 115.502 52.32C115.563 52.32 115.625 52.2971 115.672 52.2512L116.278 51.6688L116.271 52.0759C116.269 52.1971 116.366 52.2971 116.488 52.2991C116.489 52.2991 116.49 52.2991 116.491 52.2991C116.611 52.2991 116.709 52.2029 116.711 52.0831L116.724 51.2398L117.302 50.6837L117.282 51.9475C117.28 52.0687 117.377 52.1687 117.498 52.1707C117.499 52.1707 117.5 52.1707 117.502 52.1707C117.621 52.1707 117.719 52.0745 117.721 51.9547L117.748 50.2547L119.628 48.4469V50.3705L118.012 51.9362C117.925 52.0208 117.923 52.1598 118.007 52.2471C118.05 52.2916 118.108 52.3135 118.165 52.3135C118.22 52.3135 118.275 52.293 118.318 52.2519L119.628 50.9823V52.1064L118.846 52.8648C118.758 52.949 118.756 53.0883 118.841 53.1753C118.884 53.2198 118.941 53.2421 118.999 53.2421C119.054 53.2421 119.109 53.2215 119.152 53.1801L119.628 52.7182V53.9347C119.628 54.0706 119.739 54.1809 119.875 54.1809C120.011 54.1809 120.121 54.0706 120.121 53.9347V52.634L120.655 53.1763C120.739 53.263 120.879 53.264 120.965 53.1787C121.052 53.0938 121.053 52.9545 120.968 52.8682L120.121 52.0078V50.8591L121.488 52.2481C121.573 52.3348 121.712 52.3354 121.798 52.2505C121.885 52.1653 121.886 52.0263 121.801 51.9396L120.12 50.2325V48.4466L122.236 50.4814L122.119 52.1636C122.111 52.2844 122.202 52.3895 122.323 52.3978C122.329 52.3984 122.334 52.3984 122.339 52.3984C122.453 52.3984 122.55 52.3097 122.558 52.194L122.649 50.8789L123.183 51.3925L123.121 52.2984C123.112 52.4197 123.204 52.5244 123.325 52.5326C123.33 52.533 123.335 52.5333 123.34 52.5333C123.455 52.5333 123.551 52.4446 123.559 52.3289L123.596 51.79L124.076 52.2512C124.124 52.2971 124.185 52.32 124.247 52.32C124.311 52.32 124.376 52.2947 124.424 52.2447C124.518 52.1468 124.515 51.991 124.417 51.8965L124.133 51.6236L124.325 51.6356C124.447 51.6438 124.551 51.551 124.558 51.4298C124.566 51.3086 124.473 51.2045 124.352 51.197L123.644 51.1535L123.072 50.6033L124.243 50.6752C124.365 50.6841 124.468 50.5906 124.476 50.4694C124.483 50.3482 124.391 50.2441 124.27 50.2366L122.583 50.1332L120.485 48.1148H122.399L124.005 49.771C124.048 49.8155 124.105 49.8377 124.162 49.8377C124.217 49.8377 124.273 49.8168 124.315 49.7757C124.403 49.6912 124.405 49.5522 124.32 49.4648L123.011 48.1148H124.19L124.988 48.9376C125.031 48.9821 125.088 49.0043 125.146 49.0043C125.201 49.0043 125.256 48.9838 125.298 48.9424C125.386 48.8581 125.388 48.7188 125.303 48.6318L124.802 48.1148H125.941C126.077 48.1148 126.187 48.0046 126.187 47.8686C126.187 47.7327 126.076 47.6235 125.94 47.6235Z" fill="white"/>
<path d="M124.789 75.786H123.646L124.147 75.2926C124.234 75.2073 124.235 75.0683 124.15 74.9821C124.064 74.8954 123.925 74.8944 123.839 74.9793L123.02 75.7856H121.816L123.164 74.4592C123.251 74.3743 123.252 74.235 123.166 74.1487C123.081 74.0621 122.942 74.061 122.855 74.1463L121.19 75.786H119.332L121.187 74.0025L122.91 74.0429C122.911 74.0429 122.913 74.0429 122.915 74.0429C123.034 74.0429 123.132 73.9477 123.135 73.8282C123.137 73.707 123.041 73.6064 122.92 73.6033L121.633 73.5731L122.214 73.0144L123.054 73.0342C123.056 73.0342 123.057 73.0342 123.059 73.0342C123.178 73.0342 123.276 72.9394 123.279 72.8199C123.282 72.6983 123.186 72.598 123.064 72.5949L122.66 72.5853L123.265 72.0036C123.363 71.9091 123.366 71.7537 123.271 71.6554C123.177 71.5575 123.022 71.5544 122.923 71.6486L122.331 72.2183L122.336 71.8605C122.338 71.7393 122.242 71.6393 122.12 71.6373C122 71.6328 121.899 71.7321 121.897 71.8537L121.884 72.6477L121.307 73.2034L121.326 71.9889C121.328 71.8674 121.231 71.7677 121.109 71.7657C121.108 71.7657 121.107 71.7657 121.106 71.7657C120.986 71.7657 120.888 71.8615 120.886 71.9817L120.86 73.6324L118.967 75.4532V73.582L120.644 71.9571C120.731 71.8729 120.733 71.7338 120.649 71.6462C120.564 71.5592 120.425 71.5568 120.338 71.6414L118.967 72.9698V71.791L119.811 70.9737C119.898 70.8895 119.9 70.7502 119.815 70.6628C119.731 70.5759 119.592 70.5735 119.505 70.6581L118.967 71.1792V69.965C118.967 69.8291 118.857 69.7189 118.721 69.7189C118.585 69.7189 118.475 69.8291 118.475 69.965V71.1422L118.002 70.6618C117.917 70.5752 117.778 70.5745 117.691 70.6594C117.605 70.7443 117.604 70.8837 117.689 70.97L118.475 71.7684V72.9716L117.169 71.6448C117.084 71.5582 116.944 71.5572 116.858 71.6424C116.772 71.7277 116.77 71.8663 116.855 71.953L118.475 73.5978V75.4528L116.476 73.53L116.514 71.892C116.517 71.7708 116.421 71.6702 116.3 71.6674C116.179 71.663 116.078 71.7605 116.076 71.8817L116.046 73.1164L115.487 72.5785L115.506 71.7482C115.509 71.627 115.413 71.5263 115.292 71.5236C115.29 71.5236 115.289 71.5236 115.287 71.5236C115.168 71.5236 115.07 71.6185 115.068 71.7379L115.058 72.1652L114.521 71.6486C114.423 71.5541 114.267 71.5572 114.173 71.6554C114.078 71.7533 114.081 71.9091 114.179 72.0036L114.666 72.4713L114.334 72.4662C114.214 72.4621 114.113 72.561 114.111 72.6822C114.109 72.8035 114.205 72.9034 114.327 72.9055L115.13 72.9181L115.731 73.4968L114.462 73.4766C114.46 73.4766 114.459 73.4766 114.458 73.4766C114.339 73.4766 114.241 73.5728 114.239 73.693C114.237 73.8145 114.333 73.9142 114.455 73.9162L116.196 73.9436L118.112 75.786H116.079L114.493 74.1501C114.408 74.0631 114.269 74.0607 114.182 74.1453C114.095 74.2295 114.093 74.3688 114.178 74.4558L115.467 75.786H114.398L113.62 74.9834C113.535 74.8965 113.397 74.8941 113.309 74.9786C113.222 75.0632 113.22 75.2022 113.305 75.2892L113.786 75.786H112.656C112.52 75.786 112.41 75.8962 112.41 76.0322C112.41 76.1681 112.52 76.2783 112.656 76.2783H113.83L113.308 76.7919C113.221 76.8768 113.22 77.0162 113.306 77.1025C113.349 77.1463 113.405 77.1682 113.462 77.1682C113.518 77.1682 113.574 77.147 113.616 77.1049L114.456 76.2783H115.55L114.182 77.625C114.095 77.7099 114.094 77.8492 114.179 77.9355C114.223 77.9793 114.279 78.0012 114.336 78.0012C114.392 78.0012 114.447 77.98 114.49 77.9379L116.177 76.278H118.113L116.221 78.0971L114.548 78.0577C114.428 78.0526 114.326 78.1509 114.323 78.2724C114.32 78.3936 114.416 78.4943 114.538 78.497L115.775 78.5261L115.195 79.0849L114.404 79.0661C114.402 79.0661 114.4 79.0661 114.398 79.0661C114.279 79.0661 114.181 79.1612 114.179 79.2807C114.176 79.4019 114.272 79.5026 114.393 79.5057L114.748 79.5139L114.181 80.06C114.083 80.1545 114.08 80.3103 114.174 80.4082C114.222 80.4582 114.287 80.4835 114.351 80.4835C114.413 80.4835 114.474 80.461 114.522 80.4147L115.127 79.8323L115.121 80.2394C115.119 80.3606 115.216 80.4606 115.337 80.4627C115.338 80.4627 115.34 80.4627 115.341 80.4627C115.46 80.4627 115.559 80.3665 115.56 80.2463L115.574 79.403L116.151 78.8473L116.131 80.111C116.129 80.2322 116.226 80.3322 116.348 80.3343C116.349 80.3343 116.35 80.3343 116.351 80.3343C116.471 80.3343 116.569 80.2381 116.571 80.1179L116.598 78.4179L118.477 76.6101V78.5336L116.862 80.0994C116.775 80.184 116.773 80.323 116.857 80.4103C116.9 80.4548 116.957 80.4767 117.015 80.4767C117.07 80.4767 117.125 80.4562 117.168 80.4151L118.478 79.1455V80.2696L117.695 81.028C117.608 81.1122 117.606 81.2515 117.691 81.3385C117.734 81.383 117.791 81.4053 117.848 81.4053C117.904 81.4053 117.959 81.3847 118.001 81.3433L118.478 80.8814V82.0979C118.478 82.2338 118.588 82.3441 118.724 82.3441C118.86 82.3441 118.97 82.2338 118.97 82.0979V80.7972L119.504 81.3395C119.589 81.4261 119.728 81.4272 119.815 81.3419C119.901 81.257 119.902 81.1177 119.817 81.0314L118.97 80.171V79.0222L120.337 80.4113C120.422 80.4979 120.561 80.4986 120.648 80.414C120.734 80.3288 120.735 80.1898 120.65 80.1035L118.97 78.3963V76.6105L121.085 78.6453L120.969 80.3274C120.96 80.4483 121.051 80.5534 121.173 80.5616C121.178 80.5623 121.183 80.5623 121.188 80.5623C121.302 80.5623 121.399 80.4736 121.407 80.3579L121.498 79.0428L122.032 79.5564L121.97 80.4623C121.962 80.5835 122.053 80.6883 122.174 80.6965C122.179 80.6969 122.184 80.6972 122.189 80.6972C122.304 80.6972 122.4 80.6085 122.408 80.4928L122.445 79.9539L122.925 80.4154C122.973 80.4613 123.034 80.4842 123.096 80.4842C123.161 80.4842 123.225 80.4589 123.273 80.4089C123.367 80.311 123.365 80.1552 123.266 80.0607L122.983 79.7878L123.175 79.7998C123.296 79.808 123.4 79.7152 123.407 79.594C123.415 79.4728 123.322 79.3687 123.201 79.3612L122.494 79.3177L121.921 78.7675L123.092 78.8394C123.214 78.8483 123.317 78.7548 123.325 78.6336C123.332 78.5124 123.24 78.4083 123.119 78.4008L121.433 78.2974L119.334 76.279H121.249L122.854 77.9352C122.897 77.9797 122.954 78.0019 123.012 78.0019C123.067 78.0019 123.122 77.981 123.165 77.94C123.252 77.8554 123.254 77.7164 123.17 77.6291L121.861 76.2787H123.04L123.837 77.1014C123.881 77.146 123.938 77.1682 123.995 77.1682C124.05 77.1682 124.106 77.1477 124.148 77.1062C124.235 77.022 124.237 76.8827 124.153 76.7954L123.652 76.2783H124.79C124.926 76.2783 125.036 76.1681 125.036 76.0322C125.036 75.8962 124.925 75.786 124.789 75.786Z" fill="white"/>
<path d="M90.5703 92.7899H89.4281L89.929 92.2965C90.0156 92.2113 90.0167 92.0722 89.9314 91.986C89.8462 91.8993 89.7072 91.8983 89.6209 91.9832L88.8015 92.7895H87.598L88.9457 91.4631C89.0323 91.3782 89.0333 91.2389 88.9481 91.1526C88.8628 91.066 88.7238 91.065 88.6372 91.1502L86.9715 92.7899H85.114L86.9684 91.0064L88.6913 91.0468C88.693 91.0468 88.6947 91.0468 88.6968 91.0468C88.8156 91.0468 88.9135 90.9516 88.9162 90.8321C88.919 90.7109 88.8231 90.6103 88.7019 90.6072L87.4145 90.577L87.9952 90.0183L88.8358 90.0381C88.8375 90.0381 88.8392 90.0381 88.8409 90.0381C88.9597 90.0381 89.0576 89.9433 89.0604 89.8238C89.0635 89.7022 88.9673 89.6019 88.8461 89.5988L88.4413 89.5893L89.0463 89.0075C89.1443 88.913 89.1474 88.7576 89.0532 88.6593C88.959 88.5614 88.8033 88.5583 88.705 88.6525L88.1127 89.2222L88.1181 88.8644C88.1202 88.7432 88.0233 88.6432 87.9017 88.6412C87.7816 88.6367 87.6806 88.736 87.6785 88.8576L87.6662 89.6516L87.0882 90.2073L87.1074 88.9928C87.1095 88.8713 87.0126 88.7716 86.891 88.7696C86.8896 88.7696 86.8886 88.7696 86.8876 88.7696C86.7678 88.7696 86.6698 88.8654 86.6678 88.9856L86.6418 90.6363L84.749 92.4571V90.5859L86.4257 88.961C86.513 88.8768 86.5151 88.7377 86.4305 88.6501C86.3459 88.5631 86.2069 88.5607 86.12 88.6453L84.749 89.9737V88.7949L85.5923 87.9776C85.6796 87.8934 85.6817 87.7541 85.5971 87.6667C85.5126 87.5798 85.3736 87.5774 85.2866 87.662L84.749 88.1831V86.969C84.749 86.833 84.6388 86.7228 84.5029 86.7228C84.3669 86.7228 84.2567 86.833 84.2567 86.969V88.1461L83.7838 87.6657C83.6986 87.5791 83.5596 87.5784 83.473 87.6633C83.3867 87.7482 83.3853 87.8876 83.4706 87.9739L84.2567 88.7723V89.9755L82.9505 88.6487C82.8656 88.5621 82.7262 88.5611 82.6396 88.6463C82.5533 88.7316 82.5519 88.8702 82.6372 88.9569L84.2567 90.6017V92.4568L82.2575 90.5339L82.2962 88.8959C82.2989 88.7747 82.203 88.6741 82.0818 88.6713C81.961 88.6669 81.86 88.7644 81.8572 88.8856L81.8281 90.1203L81.2687 89.5824L81.2882 88.7521C81.2909 88.6309 81.1951 88.5302 81.0738 88.5275C81.0721 88.5275 81.0704 88.5275 81.0687 88.5275C80.9496 88.5275 80.852 88.6224 80.8492 88.7419L80.8393 89.1691L80.3024 88.6525C80.2045 88.558 80.0487 88.5611 79.9542 88.6593C79.8601 88.7572 79.8628 88.913 79.9611 89.0075L80.4469 89.4752L80.1152 89.4701C79.995 89.466 79.894 89.5649 79.8919 89.6862C79.8899 89.8074 79.9868 89.9073 80.1083 89.9094L80.9112 89.922L81.5128 90.5007L80.2432 90.4805C80.2422 90.4805 80.2408 90.4805 80.2398 90.4805C80.12 90.4805 80.022 90.5767 80.02 90.6969C80.0183 90.8184 80.1148 90.9181 80.2364 90.9201L81.9774 90.9475L83.8931 92.7899H81.8603L80.2744 91.154C80.1898 91.067 80.0508 91.0646 79.9638 91.1492C79.8765 91.2334 79.8745 91.3728 79.959 91.4597L81.2485 92.7899H80.1795L79.4013 91.9873C79.3167 91.9004 79.1777 91.898 79.0907 91.9825C79.0034 92.0671 79.0014 92.2061 79.0859 92.2931L79.5677 92.7899H78.4375C78.3015 92.7899 78.1913 92.9001 78.1913 93.0361C78.1913 93.172 78.3015 93.2823 78.4375 93.2823H79.6112L79.0894 93.7958C79.0027 93.8807 79.0017 94.0201 79.087 94.1064C79.1301 94.1502 79.1866 94.1721 79.2438 94.1721C79.2993 94.1721 79.3551 94.1509 79.3979 94.1088L80.2377 93.2823H81.3313L79.9631 94.6289C79.8765 94.7138 79.8755 94.8531 79.9607 94.9394C80.0039 94.9832 80.0607 95.0051 80.1176 95.0051C80.173 95.0051 80.2288 94.9839 80.2716 94.9418L81.9582 93.2819H83.8941L82.0027 95.101L80.3292 95.0616C80.2093 95.0565 80.1073 95.1548 80.1045 95.2763C80.1018 95.3975 80.1977 95.4982 80.3189 95.5009L81.5566 95.53L80.9759 96.0888L80.185 96.07C80.1833 96.07 80.1816 96.07 80.1795 96.07C80.0607 96.07 79.9628 96.1652 79.9601 96.2846C79.9573 96.4058 80.0532 96.5065 80.1747 96.5096L80.5298 96.5178L79.9621 97.0639C79.8642 97.1584 79.8611 97.3142 79.9553 97.4121C80.0035 97.4621 80.0683 97.4875 80.1326 97.4875C80.1939 97.4875 80.2555 97.4649 80.3031 97.4186L80.9088 96.8362L80.9023 97.2433C80.9003 97.3645 80.9972 97.4645 81.1187 97.4666C81.1201 97.4666 81.1211 97.4666 81.1221 97.4666C81.2416 97.4666 81.3399 97.3704 81.3416 97.2502L81.3549 96.4069L81.9326 95.8512L81.9127 97.1149C81.9106 97.2361 82.0075 97.3361 82.1291 97.3382C82.1305 97.3382 82.1315 97.3382 82.1325 97.3382C82.2523 97.3382 82.3503 97.242 82.3523 97.1218L82.379 95.4218L84.2587 93.614V95.5376L82.643 97.1033C82.556 97.1879 82.554 97.3269 82.6382 97.4142C82.6814 97.4587 82.7385 97.4806 82.7961 97.4806C82.8512 97.4806 82.9063 97.4601 82.9491 97.419L84.2591 96.1494V97.2735L83.4767 98.0319C83.3894 98.1161 83.3874 98.2554 83.4719 98.3424C83.5151 98.3869 83.5723 98.4092 83.6298 98.4092C83.6849 98.4092 83.74 98.3886 83.7828 98.3472L84.2594 97.8853V99.1018C84.2594 99.2377 84.3697 99.348 84.5056 99.348C84.6415 99.348 84.7518 99.2377 84.7518 99.1018V97.8011L85.2856 98.3434C85.3708 98.43 85.5098 98.4311 85.5965 98.3458C85.6831 98.2609 85.6841 98.1216 85.5988 98.0353L84.7518 97.1749V96.0261L86.1189 97.4152C86.2042 97.5018 86.3432 97.5025 86.4295 97.4179C86.5161 97.3327 86.5171 97.1937 86.4319 97.1074L84.7514 95.4003V93.6144L86.8667 95.6492L86.7503 97.3313C86.7421 97.4522 86.8332 97.5573 86.9544 97.5655C86.9595 97.5662 86.9646 97.5662 86.9698 97.5662C87.0841 97.5662 87.1807 97.4775 87.1889 97.3618L87.28 96.0467L87.8141 96.5603L87.7518 97.4662C87.7432 97.5874 87.8346 97.6922 87.9558 97.7004C87.961 97.7008 87.9661 97.7011 87.9712 97.7011C88.0856 97.7011 88.1822 97.6124 88.19 97.4967L88.227 96.9578L88.7067 97.4193C88.7546 97.4652 88.8159 97.4881 88.8776 97.4881C88.9423 97.4881 89.0066 97.4628 89.0549 97.4128C89.1491 97.3149 89.1463 97.1591 89.0481 97.0646L88.7642 96.7917L88.9563 96.8037C89.0775 96.8119 89.1816 96.7191 89.1891 96.5979C89.1963 96.4767 89.1042 96.3727 88.983 96.3651L88.2753 96.3216L87.7032 95.7714L88.8738 95.8433C88.9957 95.8522 89.0991 95.7588 89.1066 95.6375C89.1138 95.5163 89.0217 95.4122 88.9008 95.4047L87.2142 95.3013L85.1157 93.2829H87.03L88.6355 94.9391C88.6786 94.9836 88.7358 95.0058 88.7933 95.0058C88.8484 95.0058 88.9036 94.985 88.9464 94.9439C89.0337 94.8593 89.0357 94.7203 88.9512 94.633L87.6422 93.2826H88.8211L89.6188 94.1053C89.662 94.1499 89.7191 94.1721 89.7767 94.1721C89.8318 94.1721 89.8869 94.1516 89.9294 94.1102C90.0167 94.0259 90.0187 93.8866 89.9342 93.7993L89.4329 93.2823H90.5717C90.7076 93.2823 90.8179 93.172 90.8179 93.0361C90.8179 92.9001 90.7062 92.7899 90.5703 92.7899Z" fill="white"/>
<path d="M72.2647 35.0935L73.2371 37.0639L75.4116 37.3796L73.838 38.9135L74.2094 41.0791L72.2647 40.0564L70.3196 41.0791L70.6911 38.9135L69.1178 37.3796L71.2923 37.0639L72.2647 35.0935Z" fill="white"/>
<path d="M73.3817 11.8138L74.3541 13.7843L76.5286 14.1L74.955 15.6339L75.3265 17.7995L73.3817 16.7768L71.4366 17.7995L71.8081 15.6339L70.2349 14.1L72.4094 13.7843L73.3817 11.8138Z" fill="white"/>
<path d="M134.327 33.7267L135.299 35.6971L137.474 36.0128L135.9 37.5467L136.272 39.7123L134.327 38.6899L132.382 39.7123L132.753 37.5467L131.18 36.0128L133.354 35.6971L134.327 33.7267Z" fill="white"/>
<path d="M131.164 54.2585L132.137 56.229L134.311 56.5447L132.738 58.0786L133.109 60.2442L131.164 59.2218L129.219 60.2442L129.591 58.0786L128.018 56.5447L130.192 56.229L131.164 54.2585Z" fill="white"/>
<path d="M111.877 97.3909L112.85 99.3613L115.024 99.677L113.451 101.211L113.822 103.376L111.877 102.354L109.932 103.376L110.304 101.211L108.731 99.677L110.905 99.3613L111.877 97.3909Z" fill="white"/>
<path d="M96.1271 102.527L97.0999 104.497L99.274 104.813L97.7007 106.347L98.0722 108.512L96.1271 107.49L94.1824 108.512L94.5539 106.347L92.9806 104.813L95.1548 104.497L96.1271 102.527Z" fill="white"/>
<path d="M68.332 87.6788L69.3047 89.6493L71.4789 89.965L69.9056 91.4988L70.2771 93.6645L68.332 92.6417L66.3872 93.6645L66.7587 91.4988L65.1854 89.965L67.3596 89.6493L68.332 87.6788Z" fill="white"/>
<path d="M47.6648 81.9728L48.6372 83.9429L50.8117 84.2589L49.2384 85.7928L49.6099 87.9584L47.6648 86.9357L45.7201 87.9584L46.0916 85.7928L44.5179 84.2589L46.6924 83.9429L47.6648 81.9728Z" fill="white"/>
<path d="M121.966 73.3936C121.966 74.3454 122.052 75.2773 122.217 76.1809C122.811 79.4476 124.432 82.3492 126.728 84.5285C129.413 87.0761 133.02 88.6358 136.985 88.6358C137.395 88.6358 137.802 88.6191 138.204 88.5857C138.329 88.576 138.454 88.5645 138.578 88.5503C138.939 88.5124 139.296 88.461 139.649 88.3967C146.673 87.1204 152.004 80.8891 152.004 73.3936C152.004 73.2207 152.001 73.0479 151.995 72.8763C151.807 67.1462 148.502 62.2169 143.747 59.7799C143.746 59.7793 143.745 59.7793 143.745 59.7793C142.283 59.0293 140.683 58.5152 138.995 58.2864C138.994 58.2857 138.994 58.2857 138.994 58.2857C138.336 58.197 137.666 58.1508 136.985 58.1508C136.704 58.1508 136.424 58.1585 136.147 58.1745C135.823 58.1919 135.503 58.2208 135.185 58.2594C134.847 58.3005 134.512 58.3526 134.181 58.4162C133.661 58.5158 133.151 58.6424 132.651 58.7954C126.469 60.6829 121.966 66.5048 121.966 73.3936Z" fill="#EEE1C8"/>
<path d="M139.649 88.3966C139.649 88.3966 150.654 85.3638 151.995 72.8761C151.806 67.1461 148.502 62.2168 143.747 59.7798C143.848 59.8344 151.04 63.7515 149.486 72.9192C149.486 72.9192 145.948 84.5701 139.649 88.3966Z" fill="url(#paint0_linear_3008_21736)"/>
<path d="M136.121 86.4319C136.618 88.2802 137.649 88.5713 138.204 88.5855C138.43 88.5913 138.578 88.5508 138.578 88.5501C139.768 87.9614 139.965 85.1922 140.412 83.831C140.858 82.4698 143.541 78.1601 145.328 74.4403C147.038 70.8839 147.78 65.7172 144.981 62.4899C143.4 60.666 141.18 59.3051 139.018 58.2969C139.01 58.2931 139.002 58.2892 138.994 58.2854C138.336 58.1967 137.666 58.1504 136.985 58.1504C138.191 58.8454 139.438 59.6297 140.386 60.674C141.448 61.843 142.189 63.3162 142.465 64.8833C142.774 66.6362 142.355 68.2745 141.804 69.9304C140.981 72.3979 139.869 74.8482 138.489 77.0487C136.925 79.5436 135.42 83.8308 136.121 86.4317V86.4319Z" fill="url(#paint1_linear_3008_21736)"/>
<path d="M128.775 84.3908C129.397 85.6542 130.708 86.4884 131.907 87.1105C132.522 87.4299 133.16 87.7063 133.808 87.9512C134.427 88.1864 135.188 88.2494 135.77 88.5443C134.807 88.0186 133.809 87.4634 133.167 86.563C132.255 85.2841 132.169 83.4929 132.231 81.9698C132.27 80.9852 132.493 80.0167 132.801 79.0855C133.311 77.5483 134.141 76.162 134.705 74.6524C135.361 72.8979 137.626 69.2687 138.311 66.2443C138.576 65.0766 138.776 63.8851 138.451 62.7064C138.114 61.4828 137.412 60.3234 136.797 59.2244C136.605 58.88 136.309 58.5336 136.147 58.1743C135.823 58.1917 135.503 58.2206 135.185 58.2592C134.503 58.9841 134.437 62.3735 134.139 64.0972C133.949 65.1974 133.489 66.2668 133.037 67.2777C132.177 69.2013 131.123 71.0386 129.908 72.7533C129.881 72.7912 129.855 72.8291 129.828 72.8677C127.644 76.0425 127.046 80.8818 128.775 84.3908Z" fill="url(#paint2_linear_3008_21736)"/>
<path d="M122.217 76.1807C122.811 79.4474 124.432 82.349 126.728 84.5283C125.43 81.8375 124.735 78.9532 125.198 75.9558C125.692 72.7553 127.216 69.8054 128.732 67.0259C129.561 65.5053 130.453 64.0195 131.386 62.5619C131.854 61.8312 132.331 61.1082 132.817 60.3903C133.247 59.7553 133.854 59.0799 134.181 58.416C133.661 58.5156 133.151 58.6422 132.651 58.7952C132.136 59.2194 131.523 59.7238 130.801 60.317C128.104 62.5362 126.148 65.925 124.445 68.9442C123.168 71.209 122.468 73.5952 122.217 76.1807Z" fill="url(#paint3_linear_3008_21736)"/>
<path d="M140.29 58.6731H133.679V56.6013C133.679 56.2298 133.976 55.9283 134.342 55.9283H139.627C139.993 55.9283 140.29 56.2298 140.29 56.6013V58.6731Z" fill="#EEE1C8"/>
<path d="M133.565 55.9282V58.6731H133.793V57.1178C133.793 57.0747 133.827 57.04 133.869 57.04H134.453C134.495 57.04 134.53 57.0747 134.53 57.1178V58.6731H135.584V57.1178C135.584 57.0747 135.618 57.04 135.661 57.04H136.244C136.287 57.04 136.322 57.0747 136.322 57.1178V58.6731H137.51V57.1178C137.51 57.0747 137.544 57.04 137.587 57.04H138.171C138.213 57.04 138.247 57.0747 138.247 57.1178V58.6731H139.324V57.1178C139.324 57.0747 139.358 57.04 139.4 57.04H139.984C140.027 57.04 140.062 57.0747 140.062 57.1178V58.6731H140.404V55.9282C140.404 55.6403 140.174 55.4064 139.89 55.4064H134.079C133.795 55.4064 133.565 55.6403 133.565 55.9282Z" fill="url(#paint4_linear_3008_21736)"/>
<path d="M136.616 54.726H137.353V-38.7711H136.616V54.726Z" fill="url(#paint5_linear_3008_21736)"/>
<path d="M136.985 53.4494V54.4346C136.985 54.4346 139.344 54.0844 140.121 58.621C140.121 58.621 140.718 57.9867 140.719 57.9854C141.132 57.5471 140.542 56.1795 140.337 55.72C139.911 54.7618 139.031 54.0844 138.082 53.7213C139.1 54.1107 140.744 54.0677 141.783 53.7881C142.496 53.5966 143.195 53.1371 143.252 52.3203C143.327 51.255 142.215 50.943 141.369 51.0571C140.466 51.1789 139.614 51.7362 138.985 52.3508C138.684 52.6443 138.377 52.9398 138.007 53.143C138 53.1469 137.989 53.1523 137.973 53.1589C137.779 53.2418 136.985 53.5174 136.985 53.4494ZM140.121 52.9501C140.121 52.9501 141.077 52.2245 141.457 52.0433C141.837 51.8614 142.463 51.7708 142.261 52.4289C142.061 53.0863 140.121 52.9501 140.121 52.9501Z" fill="url(#paint6_linear_3008_21736)"/>
<path d="M135.996 53.1588C135.981 53.1522 135.969 53.1468 135.962 53.1429C135.592 52.9398 135.285 52.6444 134.984 52.3507C134.355 51.7361 133.504 51.1788 132.601 51.057C131.755 50.9429 130.643 51.2549 130.717 52.3201C130.774 53.137 131.473 53.5965 132.186 53.788C133.226 54.0676 134.869 54.1106 135.887 53.7211C134.938 54.0843 134.058 54.7616 133.632 55.7199C133.428 56.1794 132.838 57.547 133.25 57.9853C133.251 57.9865 133.848 58.6209 133.848 58.6209C134.625 54.0843 136.985 54.4345 136.985 54.4345V53.4493C136.985 53.5173 136.19 53.2416 135.996 53.1587L135.996 53.1588ZM131.708 52.4289C131.507 51.7708 132.132 51.8614 132.512 52.0433C132.892 52.2245 133.848 52.9501 133.848 52.9501C133.848 52.9501 131.909 53.0863 131.708 52.4289Z" fill="url(#paint7_linear_3008_21736)"/>
<path d="M14.5148 59.4785C14.5148 59.5679 14.5155 59.6574 14.5174 59.7461C14.5431 61.1021 14.763 62.4106 15.1501 63.6446C15.226 63.885 15.3077 64.1223 15.3957 64.357C15.8755 65.636 16.5383 66.8254 17.3524 67.8936C17.6469 68.2807 17.9613 68.651 18.2937 69.0046C20.8283 71.6948 24.4234 73.3745 28.4106 73.3745C32.3978 73.3745 35.9934 71.695 38.5267 69.0046C38.8605 68.651 39.1762 68.2793 39.4713 67.8916C40.2846 66.8236 40.9469 65.6347 41.426 64.3558C41.514 64.1218 41.5957 63.8844 41.671 63.6446C41.9334 62.808 42.1192 61.938 42.2195 61.0418C42.2773 60.5287 42.3069 60.0072 42.3069 59.4787C42.3069 57.6191 41.9417 55.8445 41.2787 54.2235C40.2866 51.7955 38.6264 49.7116 36.5271 48.1986C36.3418 48.0643 36.1528 47.9356 35.9606 47.8115C33.7872 46.4014 31.1947 45.5829 28.4106 45.5829C25.6265 45.5829 23.0344 46.4008 20.8611 47.8108C20.6689 47.9349 20.4804 48.0641 20.2953 48.198C18.1882 49.7161 16.5235 51.8103 15.5321 54.2505C14.8762 55.8645 14.5148 57.6295 14.5148 59.4787V59.4785Z" fill="url(#paint8_linear_3008_21736)"/>
<path d="M20.2954 48.1978C20.8483 49.7352 24.1784 50.8534 28.4107 50.8534C32.5849 50.8534 35.9774 49.7397 36.5272 48.1985C36.3419 48.0641 36.1529 47.9354 35.9607 47.8114C35.9562 47.859 35.9459 47.9072 35.9305 47.9547C35.5884 49.04 32.6165 50.2103 28.4107 50.2103C26.3685 50.2103 24.4466 49.9319 22.9979 49.4271C21.7158 48.9809 20.9217 48.3784 20.8613 47.8107C20.6691 47.9347 20.4807 48.0639 20.2956 48.1978H20.2954Z" fill="#950E0E"/>
<path d="M28.4107 69.9207C31.7704 69.9207 34.9905 69.4834 37.4789 68.6886C38.2299 68.4488 38.8986 68.18 39.4715 67.8914C39.1764 68.279 38.8606 68.6508 38.527 69.0044C38.2557 69.1079 37.9709 69.2069 37.6744 69.3014C35.125 70.1154 31.8348 70.5636 28.4108 70.5636C24.7613 70.5636 21.3128 70.0627 18.7016 69.1522C18.5628 69.104 18.4271 69.0544 18.294 69.0042C17.9615 68.6506 17.6472 68.2803 17.3527 67.8932C17.8117 68.1247 18.3339 68.3433 18.9133 68.5452C21.4582 69.4318 24.8314 69.9205 28.4108 69.9205L28.4107 69.9207Z" fill="#950E0E"/>
<path d="M14.5149 59.4786C14.5149 59.568 14.5156 59.6574 14.5176 59.7461L15.9315 57.7438L18.073 63.1536L23.0198 60.0811L28.4106 65.8153L33.761 59.6278L38.9435 63.5324L41.1142 57.9933L42.2195 61.0417C42.2773 60.5286 42.3069 60.0071 42.3069 59.4786C42.3069 57.619 41.9417 55.8444 41.2787 54.2234L41.0685 57.7438L36.8967 53.8633L33.7685 59.4786L28.4104 54.6124L23.0118 59.9903L20.2952 54.839L15.9994 57.2672L15.5319 54.2503C14.8761 55.8642 14.5146 57.6292 14.5146 59.4784L14.5149 59.4786Z" fill="#950E0E"/>
<path d="M39.968 54.906L40.6942 54.1798L39.9681 53.4536L39.2419 54.1798L39.968 54.906Z" fill="#950E0E"/>
<path d="M33.2508 56.6762L33.9769 55.9501L33.2508 55.2239L32.5246 55.9501L33.2508 56.6762Z" fill="#950E0E"/>
<path d="M23.5829 56.4957L24.3092 55.7694L23.5829 55.0432L22.8567 55.7694L23.5829 56.4957Z" fill="#950E0E"/>
<path d="M17.0928 54.5885L17.819 53.8623L17.0928 53.1361L16.3667 53.8623L17.0928 54.5885Z" fill="#950E0E"/>
<path d="M41.1936 62.5311L41.9198 61.8049L41.1937 61.0788L40.4675 61.8049L41.1936 62.5311Z" fill="#950E0E"/>
<path d="M33.7497 64.6211L34.4758 63.8949L33.7497 63.1688L33.0235 63.8949L33.7497 64.6211Z" fill="#950E0E"/>
<path d="M22.8567 64.6201L23.583 63.8938L22.8567 63.1675L22.1305 63.8938L22.8567 64.6201Z" fill="#950E0E"/>
<path d="M15.6404 62.2136L16.3666 61.4874L15.6404 60.7613L14.9143 61.4874L15.6404 62.2136Z" fill="#950E0E"/>
<path d="M31.7676 46.8829H25.0541V44.81C25.0541 44.4384 25.3559 44.1367 25.7275 44.1367H31.0942C31.4658 44.1367 31.7676 44.4384 31.7676 44.81V46.8829Z" fill="url(#paint9_linear_3008_21736)"/>
<path d="M24.9387 44.1368V46.8831H25.1695V45.3271C25.1695 45.284 25.2043 45.2493 25.2473 45.2493H25.8402C25.8832 45.2493 25.918 45.2839 25.918 45.3271V46.8831H26.9886V45.3271C26.9886 45.284 27.0233 45.2493 27.0664 45.2493H27.6593C27.7023 45.2493 27.7376 45.2839 27.7376 45.3271V46.8831H28.944V45.3271C28.944 45.284 28.9793 45.2493 29.0225 45.2493H29.6154C29.6584 45.2493 29.6932 45.2839 29.6932 45.3271V46.8831H30.7863V45.3271C30.7863 45.284 30.8211 45.2493 30.8641 45.2493H31.457C31.5001 45.2493 31.5355 45.2839 31.5355 45.3271V46.8831H31.8834V44.1368C31.8834 43.8487 31.6493 43.6147 31.3613 43.6147H25.4612C25.1724 43.6147 24.9391 43.8487 24.9391 44.1368H24.9387Z" fill="url(#paint10_linear_3008_21736)"/>
<path d="M28.0363 42.9338H28.7853L28.7853 -50.6105H28.0363L28.0363 42.9338Z" fill="url(#paint11_linear_3008_21736)"/>
<path d="M28.411 41.6566V42.6424C28.411 42.6424 30.8067 42.292 31.5958 46.8309C31.5958 46.8309 32.2021 46.1962 32.2035 46.195C32.622 45.7564 32.0228 44.3882 31.8151 43.9285C31.3823 42.9697 30.4892 42.292 29.5254 41.9288C30.5593 42.3184 32.2279 42.2754 33.2836 41.9957C34.0077 41.804 34.7168 41.3444 34.7748 40.5272C34.8507 39.4614 33.7219 39.1491 32.8626 39.2633C31.9457 39.3851 31.0815 39.9428 30.4424 40.5576C30.137 40.8514 29.8252 41.1469 29.4497 41.3501C29.4424 41.354 29.4307 41.3595 29.415 41.3661C29.2183 41.449 28.4113 41.7248 28.4113 41.6568L28.411 41.6566ZM31.5958 41.1571C31.5958 41.1571 32.5667 40.4312 32.9526 40.2498C33.3384 40.068 33.9736 39.9772 33.7691 40.6357C33.5653 41.2936 31.5958 41.1571 31.5958 41.1571Z" fill="url(#paint12_linear_3008_21736)"/>
<path d="M27.4071 41.3659C27.3915 41.3594 27.3796 41.3539 27.3725 41.35C26.9968 41.1467 26.685 40.8511 26.3797 40.5575C25.7406 39.9427 24.8764 39.385 23.9596 39.2632C23.1003 39.149 21.9715 39.4611 22.0473 40.527C22.1052 41.3443 22.8144 41.804 23.5385 41.9956C24.5944 42.2753 26.2628 42.3184 27.2967 41.9287C26.3329 42.292 25.4398 42.9697 25.007 43.9283C24.7993 44.3881 24.2001 45.7563 24.6187 46.1948C24.6199 46.1961 25.2264 46.8308 25.2264 46.8308C26.0153 42.2919 28.4111 42.6422 28.4111 42.6422V41.6565C28.4111 41.7246 27.6039 41.4486 27.4074 41.3658L27.4071 41.3659ZM23.0528 40.6356C22.8482 39.9772 23.4836 40.0678 23.8693 40.2497C24.2552 40.4311 25.2261 41.1569 25.2261 41.1569C25.2261 41.1569 23.2566 41.2934 23.0528 40.6356Z" fill="url(#paint13_linear_3008_21736)"/>
</g>
<defs>
<linearGradient id="paint0_linear_3008_21736" x1="146.595" y1="58.6686" x2="145.49" y2="89.1527" gradientUnits="userSpaceOnUse">
<stop stop-color="#8A491D"/>
<stop offset="0.17" stop-color="#D19944"/>
<stop offset="0.267" stop-color="#A56235"/>
<stop offset="0.411" stop-color="#D59D46"/>
<stop offset="0.532" stop-color="#BE884C"/>
<stop offset="0.675" stop-color="#FEF8DE"/>
<stop offset="0.835" stop-color="#C48B3E"/>
<stop offset="1" stop-color="#905020"/>
</linearGradient>
<linearGradient id="paint1_linear_3008_21736" x1="142.031" y1="58.5031" x2="140.926" y2="88.9871" gradientUnits="userSpaceOnUse">
<stop stop-color="#8A491D"/>
<stop offset="0.17" stop-color="#D19944"/>
<stop offset="0.267" stop-color="#A56235"/>
<stop offset="0.411" stop-color="#D59D46"/>
<stop offset="0.532" stop-color="#BE884C"/>
<stop offset="0.675" stop-color="#FEF8DE"/>
<stop offset="0.835" stop-color="#C48B3E"/>
<stop offset="1" stop-color="#905020"/>
</linearGradient>
<linearGradient id="paint2_linear_3008_21736" x1="133.675" y1="58.2002" x2="132.569" y2="88.6842" gradientUnits="userSpaceOnUse">
<stop stop-color="#8A491D"/>
<stop offset="0.17" stop-color="#D19944"/>
<stop offset="0.267" stop-color="#A56235"/>
<stop offset="0.411" stop-color="#D59D46"/>
<stop offset="0.532" stop-color="#BE884C"/>
<stop offset="0.675" stop-color="#FEF8DE"/>
<stop offset="0.835" stop-color="#C48B3E"/>
<stop offset="1" stop-color="#905020"/>
</linearGradient>
<linearGradient id="paint3_linear_3008_21736" x1="128.526" y1="58.0135" x2="127.42" y2="88.4977" gradientUnits="userSpaceOnUse">
<stop stop-color="#8A491D"/>
<stop offset="0.17" stop-color="#D19944"/>
<stop offset="0.267" stop-color="#A56235"/>
<stop offset="0.411" stop-color="#D59D46"/>
<stop offset="0.532" stop-color="#BE884C"/>
<stop offset="0.675" stop-color="#FEF8DE"/>
<stop offset="0.835" stop-color="#C48B3E"/>
<stop offset="1" stop-color="#905020"/>
</linearGradient>
<linearGradient id="paint4_linear_3008_21736" x1="140.404" y1="57.0397" x2="133.565" y2="57.0397" gradientUnits="userSpaceOnUse">
<stop stop-color="#8A491D"/>
<stop offset="0.17" stop-color="#D19944"/>
<stop offset="0.267" stop-color="#A56235"/>
<stop offset="0.411" stop-color="#D59D46"/>
<stop offset="0.532" stop-color="#BE884C"/>
<stop offset="0.675" stop-color="#FEF8DE"/>
<stop offset="0.835" stop-color="#C48B3E"/>
<stop offset="1" stop-color="#905020"/>
</linearGradient>
<linearGradient id="paint5_linear_3008_21736" x1="137.353" y1="7.97733" x2="136.616" y2="7.97733" gradientUnits="userSpaceOnUse">
<stop offset="0.006" stop-color="#876943"/>
<stop offset="0.506" stop-color="#BC9A51"/>
<stop offset="1" stop-color="#8A693C"/>
</linearGradient>
<linearGradient id="paint6_linear_3008_21736" x1="143.255" y1="54.828" x2="136.985" y2="54.828" gradientUnits="userSpaceOnUse">
<stop offset="0.006" stop-color="#BD2326"/>
<stop offset="0.221" stop-color="#F45F39"/>
<stop offset="0.383" stop-color="#FE0B07"/>
<stop offset="0.539" stop-color="#E00703"/>
<stop offset="0.798" stop-color="#CB0000"/>
<stop offset="1" stop-color="#7E0307"/>
</linearGradient>
<linearGradient id="paint7_linear_3008_21736" x1="130.714" y1="54.828" x2="136.985" y2="54.828" gradientUnits="userSpaceOnUse">
<stop offset="0.006" stop-color="#BD2326"/>
<stop offset="0.221" stop-color="#F45F39"/>
<stop offset="0.383" stop-color="#FE0B07"/>
<stop offset="0.539" stop-color="#E00703"/>
<stop offset="0.798" stop-color="#CB0000"/>
<stop offset="1" stop-color="#7E0307"/>
</linearGradient>
<linearGradient id="paint8_linear_3008_21736" x1="28.5877" y1="45.1546" x2="28.2246" y2="74.5658" gradientUnits="userSpaceOnUse">
<stop stop-color="#D4B79A"/>
<stop offset="0.307" stop-color="#FDFEFE"/>
<stop offset="1" stop-color="#C5AF93"/>
</linearGradient>
<linearGradient id="paint9_linear_3008_21736" x1="28.3965" y1="44.0896" x2="28.4192" y2="46.881" gradientUnits="userSpaceOnUse">
<stop stop-color="#FDFEFE"/>
<stop offset="0.836" stop-color="#D4B79A"/>
</linearGradient>
<linearGradient id="paint10_linear_3008_21736" x1="31.8831" y1="45.2488" x2="24.9387" y2="45.2488" gradientUnits="userSpaceOnUse">
<stop stop-color="#8A491D"/>
<stop offset="0.17" stop-color="#D19944"/>
<stop offset="0.267" stop-color="#A56235"/>
<stop offset="0.411" stop-color="#D59D46"/>
<stop offset="0.532" stop-color="#BE884C"/>
<stop offset="0.675" stop-color="#FEF8DE"/>
<stop offset="0.835" stop-color="#C48B3E"/>
<stop offset="1" stop-color="#905020"/>
</linearGradient>
<linearGradient id="paint11_linear_3008_21736" x1="28.7853" y1="-3.83838" x2="28.0363" y2="-3.83838" gradientUnits="userSpaceOnUse">
<stop offset="0.006" stop-color="#876943"/>
<stop offset="0.506" stop-color="#BC9A51"/>
<stop offset="1" stop-color="#8A693C"/>
</linearGradient>
<linearGradient id="paint12_linear_3008_21736" x1="34.7784" y1="43.0359" x2="28.411" y2="43.0359" gradientUnits="userSpaceOnUse">
<stop offset="0.006" stop-color="#BD2326"/>
<stop offset="0.221" stop-color="#F45F39"/>
<stop offset="0.383" stop-color="#FE0B07"/>
<stop offset="0.539" stop-color="#E00703"/>
<stop offset="0.798" stop-color="#CB0000"/>
<stop offset="1" stop-color="#7E0307"/>
</linearGradient>
<linearGradient id="paint13_linear_3008_21736" x1="22.0436" y1="43.0359" x2="28.4109" y2="43.0359" gradientUnits="userSpaceOnUse">
<stop offset="0.006" stop-color="#BD2326"/>
<stop offset="0.221" stop-color="#F45F39"/>
<stop offset="0.383" stop-color="#FE0B07"/>
<stop offset="0.539" stop-color="#E00703"/>
<stop offset="0.798" stop-color="#CB0000"/>
<stop offset="1" stop-color="#7E0307"/>
</linearGradient>
<clipPath id="clip0_3008_21736">
<rect width="152.693" height="128.941" fill="white"/>
</clipPath>
</defs>
</svg>
