<svg width="69" height="71" viewBox="0 0 69 71" fill="none" xmlns="http://www.w3.org/2000/svg">
<path d="M44.0235 21.5092C44.0235 21.5092 45.6105 16.4183 49.3332 12.3666C53.0559 8.315 55.1784 10.458 51.5048 13.6512C47.8312 16.8442 44.0235 21.5092 44.0235 21.5092Z" fill="#FF0004"/>
<path d="M45.945 21.7507C45.945 21.7507 48.9079 19.413 52.9379 18.2547C56.9679 17.0963 58.3805 17.9374 58.302 18.5036C58.1698 19.4579 52.0776 19.5496 45.945 21.7507Z" fill="#FFB921"/>
<path d="M44.5759 23.2671C44.5759 23.2671 48.3153 24.1604 51.3996 26.4985C54.484 28.8365 54.3295 30.3492 53.7309 30.6056C52.7219 31.0382 49.7036 26.5816 44.5759 23.2671Z" fill="#FFB921"/>
<path d="M40.7633 24.3472C40.7633 24.3472 37.1681 25.8472 34.3947 28.67C31.6213 31.4928 31.9558 32.9648 32.5789 33.1203C33.6296 33.3821 36.0837 28.473 40.7633 24.3472Z" fill="#FFB921"/>
<path d="M40.0973 22.8525C40.0973 22.8525 36.1706 22.9924 32.3608 24.6531C28.551 26.3138 28.161 27.8033 28.647 28.1661C29.4663 28.7783 33.9676 25.0607 40.0973 22.8525Z" fill="#FF0004"/>
<path d="M49.4263 22.5496C49.4263 22.5496 53.7168 22.3714 55.7915 23.1943C57.8662 24.0171 56.3821 24.8358 53.9967 23.883C51.6115 22.9305 49.4263 22.5496 49.4263 22.5496Z" fill="#FF0004"/>
<path d="M40.6182 21.4923C40.6182 21.4923 35.616 16.5492 32.0069 15.275C28.398 14.001 27.8247 16.7229 30.5576 17.5909C33.2906 18.4592 40.6182 21.4923 40.6182 21.4923Z" fill="#FFB921"/>
<path d="M46.6312 52.2159C46.6312 52.2159 44.4264 24.2897 42.6384 24.5775C40.4652 24.9271 46.6312 52.2159 46.6312 52.2159Z" fill="#FFB921"/>
<path d="M42.0538 21.598C42.0538 21.598 39.9286 16.6505 39.0874 10.5133C38.2462 4.37581 41.1225 3.7039 42.0999 10.3722C43.0776 17.0406 42.0538 21.598 42.0538 21.598Z" fill="#FF0004"/>
<path d="M44.46 14.9335C44.46 14.9335 44.4938 9.19376 46.4325 6.10486C48.3714 3.01593 49.7577 4.31529 47.8617 7.498C46.1964 10.294 44.46 14.9335 44.46 14.9335Z" fill="#FFB921"/>
<path d="M32.0945 6.84818C30.9545 7.63104 35.0141 13.7661 37.8718 16.0184C37.8718 16.0184 36.6942 13.8203 35.2392 10.5276C33.7843 7.23493 32.8365 6.33887 32.0945 6.84818Z" fill="#FFB921"/>
<path d="M26.2133 21.0119C26.1881 22.0608 30.6549 21.8811 32.4561 21.1694C32.4561 21.1694 30.5677 20.5633 28.578 20.2052C26.5881 19.8471 26.2258 20.4946 26.2133 21.0119Z" fill="#FF0004"/>
<path d="M40.2595 27.7787C40.2595 27.7787 36.6641 32.2115 36.3334 34.7806C36.0024 37.3496 37.6911 37.2927 38.2063 34.3495C38.7213 31.4059 40.2595 27.7787 40.2595 27.7787Z" fill="#FF0004"/>
<path d="M45.9807 26.749C45.9807 26.749 48.8583 32.3324 49.6029 35.0848C50.3476 37.8371 52.4933 36.5991 50.5955 32.7834C48.6978 28.9676 45.9807 26.749 45.9807 26.749Z" fill="#FF0004"/>
<path d="M53.2294 15.2014C53.2294 15.2014 55.7014 12.1679 58.2236 11.865C60.7458 11.5619 58.1307 14.149 53.2294 15.2014Z" fill="#FFB921"/>
<path d="M57.2128 28.5455C57.8319 28.4547 58.2707 27.9502 58.1928 27.4186C58.1148 26.887 57.5497 26.5296 56.9306 26.6203C56.3115 26.7111 55.8727 27.2156 55.9507 27.7472C56.0286 28.2788 56.5937 28.6362 57.2128 28.5455Z" fill="#FFB921"/>
<path d="M61.1499 18.1653C61.7958 18.0706 62.2536 17.5442 62.1723 16.9895C62.091 16.4349 61.5014 16.062 60.8554 16.1567C60.2095 16.2514 59.7517 16.7778 59.833 17.3324C59.9143 17.8871 60.5039 18.2599 61.1499 18.1653Z" fill="#FFB921"/>
<path d="M59.1438 10.5938C59.5745 10.5306 59.8797 10.1797 59.8255 9.80995C59.7713 9.44018 59.3782 9.1916 58.9476 9.25472C58.5169 9.31785 58.2117 9.66878 58.2659 10.0385C58.3201 10.4083 58.7132 10.6569 59.1438 10.5938Z" fill="#FF0004"/>
<path d="M53.8102 9.18132C54.4114 9.0932 54.8374 8.6033 54.7617 8.0871C54.6861 7.5709 54.1374 7.22388 53.5362 7.312C52.935 7.40012 52.509 7.89002 52.5846 8.40622C52.6603 8.92242 53.209 9.26944 53.8102 9.18132Z" fill="#FFB921"/>
<path d="M49.141 3.2573C49.4281 3.21522 49.6315 2.98126 49.5954 2.73475C49.5593 2.48824 49.2972 2.32251 49.0101 2.3646C48.723 2.40668 48.5196 2.64063 48.5557 2.88715C48.5919 3.13366 48.8539 3.29938 49.141 3.2573Z" fill="#FF0004"/>
<path d="M40.7382 4.91298C41.2497 4.838 41.6121 4.42122 41.5477 3.98205C41.4834 3.54289 41.0166 3.24765 40.5051 3.32263C39.9936 3.3976 39.6312 3.81439 39.6955 4.25355C39.7599 4.69271 40.2267 4.98795 40.7382 4.91298Z" fill="#FFB921"/>
<path d="M32.3364 5.88912C32.9286 5.80232 33.3482 5.31979 33.2737 4.81136C33.1992 4.30293 32.6587 3.96112 32.0666 4.04792C31.4744 4.13472 31.0548 4.61724 31.1293 5.12568C31.2039 5.63411 31.7443 5.97592 32.3364 5.88912Z" fill="#FF0004"/>
<path d="M27.1486 14.883C27.7946 14.7883 28.2524 14.2619 28.1711 13.7073C28.0898 13.1526 27.5002 12.7798 26.8542 12.8745C26.2082 12.9691 25.7505 13.4955 25.8318 14.0502C25.9131 14.6048 26.5027 14.9777 27.1486 14.883Z" fill="#FF0004"/>
<path d="M27.1047 26.8041C27.6251 26.7279 27.9939 26.3038 27.9284 25.857C27.8629 25.4102 27.3879 25.1098 26.8676 25.1861C26.3472 25.2624 25.9784 25.6864 26.0439 26.1332C26.1094 26.58 26.5844 26.8804 27.1047 26.8041Z" fill="#FFB921"/>
<path d="M30.7371 31.7724C31.2665 31.6948 31.6417 31.2633 31.5751 30.8088C31.5084 30.3542 31.0252 30.0486 30.4958 30.1262C29.9664 30.2038 29.5912 30.6352 29.6579 31.0898C29.7245 31.5444 30.2077 31.85 30.7371 31.7724Z" fill="#FF0004"/>
<path d="M34.1443 35.4338C34.3955 35.397 34.5735 35.1923 34.5419 34.9766C34.5103 34.7609 34.281 34.6159 34.0298 34.6527C33.7786 34.6895 33.6006 34.8942 33.6322 35.1099C33.6638 35.3256 33.8931 35.4706 34.1443 35.4338Z" fill="#FF0004"/>
<path d="M41.5381 35.6058C42.0226 35.5347 42.3659 35.1399 42.3049 34.724C42.244 34.308 41.8018 34.0283 41.3173 34.0993C40.8328 34.1703 40.4895 34.5651 40.5505 34.9811C40.6114 35.3971 41.0536 35.6768 41.5381 35.6058Z" fill="#FFB921"/>
<path d="M48.3372 36.9412C48.9473 36.8518 49.3796 36.3547 49.3028 35.8308C49.2261 35.307 48.6692 34.9548 48.0591 35.0443C47.449 35.1337 47.0167 35.6308 47.0935 36.1547C47.1703 36.6785 47.7271 37.0307 48.3372 36.9412Z" fill="#FFB921"/>
<path d="M22.661 44.7124C22.661 44.7124 21.2831 41.5205 21.403 37.9353C21.5228 34.3501 23.4829 34.5083 23.0226 37.6481C22.5623 40.7877 22.661 44.7124 22.661 44.7124Z" fill="#FF0004"/>
<path d="M23.7139 44.0155C23.7139 44.0155 24.1861 41.6008 25.6871 39.3159C27.188 37.031 28.2439 36.8469 28.4456 37.1602C28.7856 37.6883 25.8117 40.3217 23.7139 44.0155Z" fill="#FFD321"/>
<path d="M23.681 45.3472C23.681 45.3472 25.9098 44.2004 28.4284 44.0464C30.947 43.8923 31.5132 44.7061 31.3261 45.0872C31.0109 45.7297 27.6249 44.808 23.681 45.3472Z" fill="#FFD321"/>
<path d="M22.2543 47.501C22.2543 47.501 21.1135 49.7701 20.9411 52.3443C20.7687 54.9185 21.5595 55.5044 21.9337 55.3166C22.5646 54.9997 21.6927 51.5294 22.2543 47.501Z" fill="#FFD321"/>
<path d="M21.2901 47.0447C21.2901 47.0447 19.4075 48.7821 18.2289 51.2219C17.0502 53.6616 17.4902 54.5639 17.8846 54.5369C18.5499 54.4916 19.1967 50.7408 21.2901 47.0447Z" fill="#FF0004"/>
<path d="M25.7749 42.9318C25.7749 42.9318 27.821 41.021 29.1967 40.5466C30.5723 40.0721 30.1861 41.1075 28.6017 41.6496C27.0174 42.1918 25.7749 42.9318 25.7749 42.9318Z" fill="#FF0004"/>
<path d="M20.9698 46.1508C20.9698 46.1508 16.3961 45.8312 14.0699 46.7343C11.7439 47.6373 12.6167 49.227 14.337 48.4953C16.0574 47.7637 20.9698 46.1508 20.9698 46.1508Z" fill="#FFD321"/>
<path d="M36.9955 58.7905C36.9955 58.7905 24.0414 45.9163 23.2795 46.8182C22.3533 47.9143 36.9955 58.7905 36.9955 58.7905Z" fill="#FFD321"/>
<path d="M21.7247 45.5932C21.7247 45.5932 18.5719 44.0492 15.5486 41.3714C12.5253 38.6935 13.6623 37.1393 16.9785 40.0219C20.2949 42.9044 21.7247 45.5932 21.7247 45.5932Z" fill="#FF0004"/>
<path d="M20.0835 41.275C20.0835 41.275 17.6618 38.4221 17.3083 36.0709C16.955 33.7196 18.1926 33.7732 18.607 36.1527C18.9712 38.2429 20.0835 41.275 20.0835 41.275Z" fill="#FFD321"/>
<path d="M10.5333 42.5296C10.3021 43.4011 14.916 44.7106 17.2861 44.6104C17.2861 44.6104 15.7699 44.0236 13.6516 43.0133C11.5333 42.003 10.6839 41.9625 10.5333 42.5296Z" fill="#FFD321"/>
<path d="M13.6418 52.0326C14.0749 52.5621 16.2077 50.5756 16.7961 49.4584C16.7961 49.4584 15.6047 49.9609 14.4686 50.6291C13.3324 51.2974 13.4283 51.7714 13.6418 52.0326Z" fill="#FF0004"/>
<path d="M23.4629 49.412C23.4629 49.412 23.568 53.1316 24.4959 54.5427C25.4235 55.9538 26.2345 55.2082 25.2389 53.5338C24.2432 51.8593 23.4629 49.412 23.4629 49.412Z" fill="#FF0004"/>
<path d="M25.8549 46.4724C25.8549 46.4724 29.65 48.0112 31.1875 49.056C32.725 50.1008 33.2602 48.5771 30.7007 47.4962C28.1412 46.4153 25.8549 46.4724 25.8549 46.4724Z" fill="#FF0004"/>
<path d="M24.5341 37.6821C24.5341 37.6821 24.4679 35.1318 25.5866 33.9105C26.7052 32.6891 26.5109 35.0795 24.5341 37.6821Z" fill="#FFD321"/>
<path d="M32.1729 42.5891C32.4406 42.2812 32.4432 41.8453 32.1789 41.6155C31.9145 41.3857 31.4832 41.449 31.2156 41.7569C30.9479 42.0649 30.9453 42.5007 31.2096 42.7305C31.474 42.9603 31.9053 42.897 32.1729 42.5891Z" fill="#FFD321"/>
<path d="M29.7103 35.7832C29.9895 35.4619 29.9923 35.0071 29.7164 34.7674C29.4406 34.5276 28.9906 34.5937 28.7114 34.9149C28.4321 35.2362 28.4294 35.6909 28.7052 35.9307C28.981 36.1705 29.431 36.1044 29.7103 35.7832Z" fill="#FFD321"/>
<path d="M25.5017 32.8909C25.6879 32.6767 25.6897 32.3735 25.5058 32.2137C25.3219 32.0538 25.022 32.0979 24.8358 32.312C24.6496 32.5262 24.6478 32.8294 24.8317 32.9893C25.0156 33.1491 25.3156 33.1051 25.5017 32.8909Z" fill="#FF0004"/>
<path d="M22.264 34.4581C22.5238 34.1591 22.5264 33.7359 22.2697 33.5127C22.013 33.2896 21.5942 33.3511 21.3343 33.6501C21.0744 33.949 21.0719 34.3723 21.3286 34.5954C21.5853 34.8186 22.0041 34.7571 22.264 34.4581Z" fill="#FFD321"/>
<path d="M17.4381 33.512C17.5622 33.3692 17.5635 33.1671 17.4409 33.0605C17.3183 32.954 17.1183 32.9833 16.9942 33.1261C16.8701 33.2689 16.8689 33.471 16.9914 33.5776C17.114 33.6842 17.314 33.6548 17.4381 33.512Z" fill="#FF0004"/>
<path d="M13.986 37.9005C14.2071 37.6461 14.2093 37.286 13.9909 37.0962C13.7725 36.9064 13.4162 36.9587 13.1951 37.213C12.974 37.4674 12.9718 37.8275 13.1902 38.0173C13.4086 38.2072 13.7649 38.1549 13.986 37.9005Z" fill="#FFD321"/>
<path d="M10.2455 41.9525C10.5015 41.658 10.504 41.2411 10.2512 41.0214C9.99833 40.8016 9.58584 40.8621 9.32987 41.1566C9.0739 41.4511 9.07137 41.868 9.32422 42.0878C9.57707 42.3076 9.98955 42.247 10.2455 41.9525Z" fill="#FF0004"/>
<path d="M11.5007 48.6042C11.7799 48.283 11.7827 47.8282 11.5068 47.5884C11.231 47.3486 10.781 47.4147 10.5018 47.7359C10.2225 48.0572 10.2198 48.512 10.4956 48.7518C10.7714 48.9915 11.2214 48.9255 11.5007 48.6042Z" fill="#FF0004"/>
<path d="M16.5433 54.5185C16.7683 54.2597 16.7705 53.8933 16.5483 53.7002C16.3261 53.507 15.9636 53.5602 15.7387 53.819C15.5137 54.0778 15.5115 54.4442 15.7337 54.6373C15.9559 54.8305 16.3184 54.7772 16.5433 54.5185Z" fill="#FFD321"/>
<path d="M20.4502 55.4324C20.6791 55.1691 20.6814 54.7964 20.4553 54.5999C20.2292 54.4034 19.8605 54.4575 19.6316 54.7208C19.4027 54.9841 19.4005 55.3568 19.6265 55.5533C19.8526 55.7498 20.2214 55.6957 20.4502 55.4324Z" fill="#FF0004"/>
<path d="M23.6908 55.7957C23.7994 55.6707 23.8005 55.4939 23.6932 55.4006C23.5859 55.3074 23.4109 55.3331 23.3023 55.458C23.1937 55.5829 23.1927 55.7598 23.2999 55.853C23.4072 55.9463 23.5822 55.9206 23.6908 55.7957Z" fill="#FF0004"/>
<path d="M27.4204 52.7397C27.6299 52.4988 27.6319 52.1577 27.4251 51.9779C27.2182 51.798 26.8807 51.8476 26.6713 52.0885C26.4618 52.3295 26.4598 52.6706 26.6666 52.8504C26.8735 53.0302 27.211 52.9807 27.4204 52.7397Z" fill="#FFD321"/>
<path d="M31.3502 50.5118C31.6139 50.2083 31.6165 49.7788 31.356 49.5524C31.0955 49.3259 30.6705 49.3883 30.4068 49.6917C30.1431 49.9951 30.1404 50.4247 30.401 50.6511C30.6615 50.8775 31.0864 50.8152 31.3502 50.5118Z" fill="#FFD321"/>
</svg>
