<svg width="62" height="70" viewBox="0 0 62 70" fill="none" xmlns="http://www.w3.org/2000/svg">
<path d="M22.8768 21.5089C22.8768 21.5089 21.2897 16.418 17.567 12.3664C13.8443 8.31475 11.7218 10.4577 15.3954 13.6509C19.069 16.8439 22.8768 21.5089 22.8768 21.5089Z" fill="#FF2121"/>
<path d="M20.9552 21.7504C20.9552 21.7504 17.9923 19.4128 13.9623 18.2544C9.93232 17.0961 8.51972 17.9372 8.59816 18.5034C8.73042 19.4576 14.8226 19.5493 20.9552 21.7504Z" fill="#FFB921"/>
<path d="M22.3243 23.2668C22.3243 23.2668 18.5849 24.1602 15.5006 26.4982C12.4162 28.8362 12.5707 30.3489 13.1693 30.6053C14.1783 31.038 17.1967 26.5813 22.3243 23.2668Z" fill="#FFB921"/>
<path d="M26.137 24.347C26.137 24.347 29.7322 25.847 32.5056 28.6697C35.2789 31.4925 34.9445 32.9645 34.3214 33.1201C33.2706 33.3819 30.8166 28.4728 26.137 24.347Z" fill="#FFB921"/>
<path d="M26.8029 22.8524C26.8029 22.8524 30.7296 22.9923 34.5394 24.653C38.3492 26.3137 38.7392 27.8032 38.2532 28.166C37.4339 28.7781 32.9326 25.0606 26.8029 22.8524Z" fill="#FF2121"/>
<path d="M17.4739 22.5493C17.4739 22.5493 13.1835 22.3711 11.1087 23.1941C9.03397 24.0168 10.5182 24.8355 12.9035 23.8828C15.2887 22.9302 17.4739 22.5493 17.4739 22.5493Z" fill="#FF2121"/>
<path d="M26.2821 21.4922C26.2821 21.4922 31.2842 16.5491 34.8934 15.2749C38.5022 14.0009 39.0756 16.7228 36.3426 17.5908C33.6097 18.4591 26.2821 21.4922 26.2821 21.4922Z" fill="#FFB921"/>
<path d="M20.269 52.2157C20.269 52.2157 22.4739 24.2894 24.2618 24.5773C26.435 24.9268 20.269 52.2157 20.269 52.2157Z" fill="#FFB921"/>
<path d="M24.8464 21.5979C24.8464 21.5979 26.9716 16.6504 27.8128 10.5131C28.654 4.37569 25.7777 3.70377 24.8003 10.372C23.8226 17.0405 24.8464 21.5979 24.8464 21.5979Z" fill="#FF2121"/>
<path d="M22.4402 14.9334C22.4402 14.9334 22.4064 9.19363 20.4677 6.10474C18.5288 3.01581 17.1425 4.31517 19.0385 7.49788C20.7038 10.2939 22.4402 14.9334 22.4402 14.9334Z" fill="#FFB921"/>
<path d="M34.8057 6.84794C35.9458 7.63079 31.8861 13.7659 29.0284 16.0181C29.0284 16.0181 30.206 13.8201 31.661 10.5274C33.1159 7.23468 34.0637 6.33862 34.8057 6.84794Z" fill="#FFB921"/>
<path d="M40.687 21.0117C40.7122 22.0607 36.2453 21.881 34.4441 21.1693C34.4441 21.1693 36.3326 20.5631 38.3222 20.2051C40.3121 19.847 40.6744 20.4944 40.687 21.0117Z" fill="#FF2121"/>
<path d="M26.6407 27.7785C26.6407 27.7785 30.2361 32.2114 30.5668 34.7805C30.8979 37.3495 29.2091 37.2925 28.694 34.3494C28.1789 31.4058 26.6407 27.7785 26.6407 27.7785Z" fill="#FF2121"/>
<path d="M20.9196 26.7489C20.9196 26.7489 18.0419 32.3323 17.2973 35.0846C16.5527 37.837 14.407 36.599 16.3047 32.7832C18.2025 28.9675 20.9196 26.7489 20.9196 26.7489Z" fill="#FF2121"/>
<path d="M13.6708 15.2013C13.6708 15.2013 11.1988 12.1678 8.6766 11.8649C6.15438 11.5618 8.76954 14.1489 13.6708 15.2013Z" fill="#FFB921"/>
<path d="M9.68741 28.5453C9.06828 28.4546 8.62953 27.9501 8.70746 27.4185C8.78538 26.8869 9.35046 26.5295 9.9696 26.6202C10.5887 26.711 11.0275 27.2155 10.9495 27.7471C10.8716 28.2787 10.3065 28.6361 9.68741 28.5453Z" fill="#FFB921"/>
<path d="M5.75035 18.1651C5.10437 18.0705 4.64661 17.5441 4.72791 16.9894C4.80921 16.4347 5.39879 16.0619 6.04477 16.1566C6.69075 16.2512 7.14851 16.7776 7.06721 17.3323C6.98591 17.8869 6.39633 18.2598 5.75035 18.1651Z" fill="#FFB921"/>
<path d="M7.75638 10.5937C7.32572 10.5305 7.02055 10.1796 7.07475 9.80983C7.12895 9.44006 7.522 9.19147 7.95266 9.2546C8.38331 9.31772 8.68848 9.66865 8.63428 10.0384C8.58008 10.4082 8.18703 10.6568 7.75638 10.5937Z" fill="#FF2121"/>
<path d="M13.09 9.18107C12.4888 9.09295 12.0628 8.60305 12.1385 8.08685C12.2141 7.57066 12.7628 7.22363 13.364 7.31175C13.9652 7.39988 14.3912 7.88978 14.3156 8.40597C14.2399 8.92217 13.6912 9.2692 13.09 9.18107Z" fill="#FFB921"/>
<path d="M17.7593 3.25706C17.4722 3.21497 17.2687 2.98102 17.3049 2.73451C17.341 2.48799 17.603 2.32227 17.8901 2.36435C18.1772 2.40644 18.3807 2.64039 18.3445 2.8869C18.3084 3.13342 18.0464 3.29914 17.7593 3.25706Z" fill="#FF2121"/>
<path d="M26.162 4.91285C25.6505 4.83788 25.2881 4.42109 25.3525 3.98193C25.4168 3.54277 25.8837 3.24753 26.3951 3.3225C26.9066 3.39748 27.269 3.81426 27.2047 4.25343C27.1403 4.69259 26.6735 4.98783 26.162 4.91285Z" fill="#FFB921"/>
<path d="M34.5638 5.88887C33.9716 5.80208 33.552 5.31955 33.6265 4.81111C33.7011 4.30268 34.2415 3.96088 34.8336 4.04767C35.4258 4.13447 35.8454 4.617 35.7709 5.12543C35.6964 5.63387 35.1559 5.97567 34.5638 5.88887Z" fill="#FF2121"/>
<path d="M39.7516 14.8828C39.1056 14.7881 38.6478 14.2617 38.7291 13.7071C38.8104 13.1524 39.4 12.7795 40.046 12.8742C40.692 12.9689 41.1497 13.4953 41.0684 14.0499C40.9871 14.6046 40.3975 14.9775 39.7516 14.8828Z" fill="#FF2121"/>
<path d="M39.7955 26.804C39.2751 26.7277 38.9063 26.3037 38.9718 25.8569C39.0373 25.4101 39.5123 25.1097 40.0326 25.186C40.553 25.2623 40.9218 25.6863 40.8563 26.1331C40.7908 26.5799 40.3158 26.8803 39.7955 26.804Z" fill="#FFB921"/>
<path d="M36.1632 31.7721C35.6337 31.6945 35.2586 31.2631 35.3252 30.8085C35.3918 30.354 35.875 30.0484 36.4044 30.126C36.9339 30.2036 37.309 30.635 37.2424 31.0896C37.1758 31.5441 36.6926 31.8497 36.1632 31.7721Z" fill="#FF2121"/>
<path d="M32.7559 35.4337C32.5047 35.3969 32.3267 35.1921 32.3583 34.9764C32.3899 34.7607 32.6192 34.6157 32.8704 34.6526C33.1216 34.6894 33.2996 34.8941 33.268 35.1098C33.2364 35.3255 33.0071 35.4705 32.7559 35.4337Z" fill="#FF2121"/>
<path d="M25.3621 35.6055C24.8776 35.5345 24.5343 35.1397 24.5953 34.7237C24.6562 34.3077 25.0984 34.0281 25.5829 34.0991C26.0674 34.1701 26.4107 34.5649 26.3497 34.9809C26.2888 35.3969 25.8466 35.6765 25.3621 35.6055Z" fill="#FFB921"/>
<path d="M18.563 36.941C17.9529 36.8516 17.5206 36.3544 17.5974 35.8306C17.6742 35.3067 18.231 34.9546 18.8411 35.044C19.4512 35.1334 19.8835 35.6306 19.8067 36.1544C19.7299 36.6783 19.1731 37.0304 18.563 36.941Z" fill="#FFB921"/>
<path d="M44.6075 46.459C44.6075 46.459 45.1629 43.027 44.1698 39.58C43.1768 36.133 41.3149 36.7657 42.5291 39.6975C43.7433 42.6293 44.6075 46.459 44.6075 46.459Z" fill="#FF2121"/>
<path d="M43.4162 46.0409C43.4162 46.0409 42.3677 43.8149 40.3536 41.9665C38.3394 40.1181 37.2705 40.1978 37.1516 40.5509C36.9511 41.1462 40.4787 42.9723 43.4162 46.0409Z" fill="#FFD321"/>
<path d="M43.7737 47.3239C43.7737 47.3239 41.3321 46.757 38.8523 47.2236C36.3726 47.6903 36.0226 48.6177 36.2972 48.9415C36.76 49.4875 39.8177 47.7656 43.7737 47.3239Z" fill="#FFD321"/>
<path d="M45.6838 49.0634C45.6838 49.0634 47.3449 50.9846 48.1417 53.4384C48.9384 55.8923 48.315 56.6538 47.9062 56.5632C47.2169 56.4102 47.2136 52.8321 45.6838 49.0634Z" fill="#FFD321"/>
<path d="M46.5072 48.3851C46.5072 48.3851 48.7575 49.6094 50.4971 51.6868C52.2366 53.7642 52.0307 54.7467 51.6416 54.8169C50.9855 54.9357 49.441 51.457 46.5072 48.3851Z" fill="#FF2121"/>
<path d="M41.1526 45.494C41.1526 45.494 38.7013 44.1417 37.2514 44.0181C35.8015 43.8944 36.4292 44.804 38.0981 44.9421C39.7669 45.0804 41.1526 45.494 41.1526 45.494Z" fill="#FF2121"/>
<path d="M46.5992 47.4401C46.5992 47.4401 50.9558 46.0116 53.4322 46.3184C55.9085 46.6251 55.451 48.38 53.6039 48.0912C51.7568 47.8026 46.5992 47.4401 46.5992 47.4401Z" fill="#FFD321"/>
<path d="M34.1514 63.6154C34.1514 63.6154 43.5634 47.964 44.5228 48.6522C45.689 49.4884 34.1514 63.6154 34.1514 63.6154Z" fill="#FFD321"/>
<path d="M45.7308 47.084C45.7308 47.084 48.4103 44.8158 50.6868 41.48C52.9634 38.144 51.4808 36.9151 48.9703 40.5211C46.4596 44.1272 45.7308 47.084 45.7308 47.084Z" fill="#FF2121"/>
<path d="M46.2661 42.4956C46.2661 42.4956 47.9165 39.137 47.6842 36.7708C47.4518 34.4045 46.2649 34.7592 46.445 37.1677C46.603 39.2836 46.2661 42.4956 46.2661 42.4956Z" fill="#FFD321"/>
<path d="M55.8331 41.3764C56.2704 42.1649 52.1168 44.563 49.7942 45.0455C49.7942 45.0455 51.1208 44.1058 52.9277 42.6081C54.7346 41.1104 55.5483 40.8633 55.8331 41.3764Z" fill="#FFD321"/>
<path d="M55.1431 51.351C54.8526 51.9703 52.2988 50.5658 51.455 49.6265C51.455 49.6265 52.7332 49.8223 53.9982 50.1923C55.2633 50.5624 55.2863 51.0456 55.1431 51.351Z" fill="#FF2121"/>
<path d="M44.9793 51.212C44.9793 51.212 45.7872 54.8444 45.2326 56.4395C44.6782 58.0346 43.7095 57.51 44.2653 55.643C44.8213 53.7758 44.9793 51.212 44.9793 51.212Z" fill="#FF2121"/>
<path d="M41.941 48.9467C41.941 48.9467 38.6375 51.3668 37.4022 52.756C36.1669 54.1451 35.2753 52.7985 37.4927 51.1245C39.7102 49.4504 41.941 48.9467 41.941 48.9467Z" fill="#FF2121"/>
<path d="M41.0719 40.1003C41.0719 40.1003 40.5123 37.6113 39.1289 36.7007C37.7456 35.7899 38.5186 38.0602 41.0719 40.1003Z" fill="#FFD321"/>
<path d="M34.8652 46.7265C34.5303 46.4934 34.4212 46.0714 34.6213 45.784C34.8215 45.4965 35.2551 45.4524 35.5899 45.6855C35.9247 45.9186 36.0339 46.3406 35.8338 46.6281C35.6336 46.9156 35.2 46.9596 34.8652 46.7265Z" fill="#FFD321"/>
<path d="M35.5885 39.5249C35.2392 39.2817 35.1253 38.8414 35.3341 38.5414C35.5429 38.2415 35.9954 38.1955 36.3447 38.4387C36.694 38.6819 36.808 39.1222 36.5991 39.4221C36.3903 39.7221 35.9378 39.7681 35.5885 39.5249Z" fill="#FFD321"/>
<path d="M38.9619 35.6912C38.729 35.529 38.6531 35.2355 38.7923 35.0355C38.9315 34.8356 39.2331 34.8049 39.466 34.967C39.6989 35.1292 39.7748 35.4227 39.6356 35.6227C39.4964 35.8226 39.1948 35.8533 38.9619 35.6912Z" fill="#FF2121"/>
<path d="M42.4847 36.4191C42.1596 36.1927 42.0535 35.7829 42.2479 35.5038C42.4422 35.2246 42.8633 35.1818 43.1884 35.4082C43.5135 35.6345 43.6196 36.0443 43.4252 36.3234C43.2309 36.6026 42.8098 36.6454 42.4847 36.4191Z" fill="#FFD321"/>
<path d="M46.9325 34.3213C46.7773 34.2133 46.7267 34.0176 46.8195 33.8843C46.9123 33.7509 47.1134 33.7305 47.2686 33.8386C47.4239 33.9467 47.4745 34.1424 47.3817 34.2757C47.2889 34.409 47.0878 34.4294 46.9325 34.3213Z" fill="#FF2121"/>
<path d="M51.3531 37.7323C51.0765 37.5397 50.9864 37.1911 51.1517 36.9536C51.317 36.7161 51.6753 36.6797 51.9519 36.8723C52.2285 37.0648 52.3187 37.4135 52.1533 37.651C51.988 37.8884 51.6297 37.9249 51.3531 37.7323Z" fill="#FFD321"/>
<path d="M55.971 40.7464C55.6507 40.5235 55.5463 40.1199 55.7377 39.8449C55.9292 39.57 56.3439 39.5278 56.6641 39.7508C56.9844 39.9737 57.0888 40.3773 56.8974 40.6523C56.7059 40.9272 56.2912 40.9694 55.971 40.7464Z" fill="#FF2121"/>
<path d="M56.3807 47.5031C56.0314 47.2599 55.9175 46.8196 56.1263 46.5197C56.3352 46.2197 56.7876 46.1737 57.137 46.4169C57.4863 46.6601 57.6002 47.1005 57.3914 47.4004C57.1825 47.7003 56.7301 47.7463 56.3807 47.5031Z" fill="#FF2121"/>
<path d="M52.9377 54.4711C52.6563 54.2752 52.5645 53.9205 52.7328 53.6788C52.901 53.4372 53.2655 53.4002 53.5469 53.5961C53.8283 53.792 53.92 54.1467 53.7518 54.3883C53.5836 54.6299 53.2191 54.667 52.9377 54.4711Z" fill="#FFD321"/>
<path d="M49.3729 56.3127C49.0866 56.1134 48.9933 55.7526 49.1644 55.5068C49.3355 55.2609 49.7064 55.2232 49.9927 55.4226C50.279 55.6219 50.3723 55.9827 50.2012 56.2285C50.03 56.4744 49.6592 56.5121 49.3729 56.3127Z" fill="#FF2121"/>
<path d="M46.3196 57.4576C46.1838 57.363 46.1395 57.1918 46.2207 57.0751C46.3019 56.9585 46.4778 56.9406 46.6137 57.0352C46.7496 57.1297 46.7938 57.301 46.7126 57.4176C46.6314 57.5343 46.4555 57.5522 46.3196 57.4576Z" fill="#FF2121"/>
<path d="M41.9559 55.4065C41.6939 55.2241 41.6085 54.8939 41.7651 54.6689C41.9217 54.4439 42.261 54.4095 42.523 54.5919C42.785 54.7743 42.8705 55.1045 42.7139 55.3294C42.5572 55.5544 42.2179 55.5889 41.9559 55.4065Z" fill="#FFD321"/>
<path d="M37.6005 54.2074C37.2706 53.9777 37.163 53.5618 37.3603 53.2786C37.5575 52.9953 37.9848 52.9518 38.3147 53.1815C38.6447 53.4112 38.7522 53.8271 38.555 54.1103C38.3578 54.3936 37.9305 54.4371 37.6005 54.2074Z" fill="#FFD321"/>
</svg>
