<svg width="11" height="14" viewBox="0 0 11 14" fill="none" xmlns="http://www.w3.org/2000/svg">
<path d="M3.82892 10.9372C4.23641 10.5035 4.31579 9.96778 4.31963 9.42296C4.33113 7.74397 4.32576 6.06479 4.32174 4.38561C4.3202 3.77962 4.51637 3.2677 4.97372 2.86358C5.48801 2.40914 6.00096 1.95316 6.5097 1.49272C7.55421 0.547257 9.00083 1.0077 9.32548 2.38902C9.52069 3.2197 9.3412 3.98826 8.95442 4.72199C8.60542 5.38449 8.10379 5.91015 7.50109 6.34214C7.47079 6.36381 7.44164 6.38723 7.3937 6.42381C7.71969 6.46891 8.02306 6.49968 8.32162 6.55639C8.52278 6.59471 8.72259 6.6551 8.9132 6.73116C9.93182 7.13818 10.4501 8.01687 10.3986 9.13226C10.3192 10.8482 9.39988 11.9727 7.94884 12.707C7.10185 13.1355 6.19618 13.4003 5.23067 13.3469C5.02798 13.3356 4.80995 13.3056 4.63066 13.218C3.58519 12.707 2.55488 12.8322 1.52341 13.2507C1.46991 13.2723 1.41583 13.2923 1.36176 13.312C1.35716 13.3138 1.35006 13.3083 1.32552 13.2994C1.64 12.8481 2.00012 12.4478 2.41969 12.1031C3.04865 11.5866 3.74953 11.2399 4.57275 11.1846C5.21322 11.1416 5.81189 11.2978 6.38793 11.5655C6.45697 11.5976 6.52466 11.6326 6.6236 11.6814C6.6236 11.5829 6.6236 11.5086 6.6236 11.4343C6.6236 9.1369 6.62226 6.83935 6.62533 4.54199C6.62571 4.27161 6.65908 3.99736 6.33041 3.85801C6.48343 3.70821 6.61076 3.58337 6.73367 3.46279C6.85717 3.58705 6.97893 3.70937 7.10741 3.83866C7.10818 3.83382 7.11048 3.85162 7.10357 3.85646C6.85506 4.03336 6.81364 4.27955 6.82438 4.57044C6.84393 5.10346 6.82994 5.63764 6.82994 6.17124C6.82994 6.24053 6.82994 6.30982 6.82994 6.37911C6.8518 6.39111 6.87346 6.4031 6.89533 6.4153C7.04049 6.24111 7.20732 6.08066 7.3264 5.89002C7.66044 5.35603 7.74136 4.74889 7.77032 4.13381C7.79275 3.65595 7.74462 3.1837 7.5845 2.73101C7.52909 2.57404 7.45334 2.4165 7.35382 2.2845C7.03512 1.862 6.4677 1.87845 6.21132 2.34179C6.08534 2.56959 6.01017 2.857 6.00729 3.11848C5.98888 4.80386 5.9791 6.49001 6.00212 8.17519C6.01784 9.31864 5.40881 10.2883 4.29547 10.7632C4.14321 10.8281 3.98463 10.8796 3.82892 10.9372ZM6.85084 6.7811C6.84182 6.82251 6.83204 6.8469 6.83204 6.87129C6.83109 8.47711 6.82974 10.0831 6.83185 11.689C6.83205 11.8734 7.03934 11.9892 7.19945 11.8972C7.57875 11.6799 7.86773 11.3694 8.08097 10.9891C8.45413 10.3233 8.56995 9.59889 8.52738 8.84581C8.49862 8.33718 8.35748 7.8599 8.04798 7.44843C7.74922 7.05167 7.34883 6.83374 6.85084 6.7811Z" fill="white"/>
<path d="M4.01451 3.74188C3.87192 4.18087 3.85953 4.62435 3.8601 5.07045C3.86219 6.38258 3.8437 7.69508 3.86582 9.00683C3.8866 10.2284 3.27446 11.0144 2.18403 11.5033C2.07365 11.5528 1.95908 11.593 1.84584 11.6361C1.83593 11.6399 1.82201 11.6339 1.78903 11.63C2.20328 11.2605 2.21796 10.7783 2.21815 10.2923C2.21853 9.68961 2.21815 9.08679 2.21815 8.48415C2.21815 8.41578 2.21815 8.34759 2.21815 8.28259C1.80295 8.20805 1.58333 8.41503 1.28766 9.16768C1.03163 8.42792 0.835849 7.72142 1.15421 6.98746C1.32788 6.58694 1.62432 6.4063 2.21815 6.30654C2.21815 6.15859 2.22025 6.00448 2.21777 5.85036C2.21224 5.51635 2.3148 5.21373 2.53384 4.96322C2.95763 4.47883 3.46968 4.09326 4.01451 3.74188Z" fill="white"/>
<path d="M0.653076 2.56477C0.995284 1.68039 1.40467 0.873839 2.40077 0.676142C2.714 0.613882 3.00611 0.677557 3.28192 0.8231C3.48862 0.932258 3.70013 1.04566 3.87804 1.19808C4.40892 1.6527 4.96129 1.6343 5.54033 1.33109C5.5862 1.30703 5.63208 1.28298 5.68601 1.25468C5.68965 1.28015 5.70002 1.30218 5.69349 1.3137C5.39466 1.83645 5.04266 2.31088 4.56169 2.66342C3.8506 3.18455 3.23259 3.18495 2.51938 2.67049C2.48752 2.64745 2.45624 2.62339 2.42534 2.59893C1.81712 2.11783 1.39296 2.09661 0.735797 2.51444C0.708543 2.53162 0.680714 2.54799 0.653076 2.56477Z" fill="white"/>
</svg>
