<svg width="16" height="16" viewBox="0 0 16 16" fill="none" xmlns="http://www.w3.org/2000/svg">
<g id="Group 925">
<g id="Vector">
<path d="M6.99474 9.99782C6.91763 9.99703 6.78409 9.93821 6.77455 9.88733C6.62909 9.15126 6.05915 8.70373 5.63467 8.15208C4.73406 6.98358 4.93119 5.331 6.05358 4.35805C7.16326 3.39622 8.83015 3.46379 9.87146 4.51226C10.9096 5.55754 10.9788 7.24192 9.98354 8.32537C9.52966 8.81979 9.09088 9.3015 8.95892 10.0034C8.28883 10.0034 7.64178 10.0074 6.99474 9.99862V9.99782ZM9.28006 6.42318C9.31027 6.66721 9.40963 6.8723 9.6632 6.81109C9.81741 6.77373 9.93108 6.56785 9.9899 6.50983C9.94618 5.35087 9.06067 4.45343 8.03764 4.38507C7.78725 4.36838 7.56547 4.42164 7.5456 4.71257C7.52652 4.97886 7.71571 5.05914 7.95736 5.08776C8.74987 5.18235 9.1807 5.61795 9.28165 6.42318H9.28006Z" fill="#0F5D1B"/>
<path d="M6.84689 10.7299H8.90726V11.3722H6.84689V10.7299Z" fill="#0F5D1B"/>
<path d="M7.89535 2.25873C7.44147 2.26827 7.5456 1.86605 7.52732 1.55525C7.55673 1.2977 7.42796 0.883562 7.88582 0.890716C8.32857 0.897076 8.2308 1.30088 8.23636 1.58863C8.24113 1.87003 8.30552 2.24919 7.89535 2.25794V2.25873Z" fill="#0F5D1B"/>
<path d="M12.1091 6.47724C12.1131 6.06707 12.4906 6.1243 12.7736 6.12987C13.0606 6.13623 13.4644 6.03527 13.4763 6.47644C13.4882 6.93509 13.0781 6.81507 12.803 6.83891C12.5081 6.82063 12.1051 6.92953 12.1091 6.47724Z" fill="#0F5D1B"/>
<path d="M9.99785 2.84059C9.95175 2.68082 9.83728 2.50197 9.87544 2.36445C9.93585 2.14506 10.0861 1.94475 10.2204 1.75238C10.2808 1.66574 10.3961 1.61725 10.4422 1.58386C10.7689 1.58148 10.935 1.82631 10.8214 2.07749C10.7244 2.29132 10.6218 2.51787 10.4645 2.6832C10.3643 2.78813 10.1576 2.79131 9.99865 2.84059H9.99785Z" fill="#0F5D1B"/>
<path d="M5.43834 2.83741C5.25551 2.52899 5.0703 2.22058 4.91847 1.89626C4.89383 1.843 5.01068 1.66574 5.09653 1.63235C5.19907 1.59181 5.40257 1.59817 5.45026 1.66494C5.63785 1.92646 5.81671 2.20786 5.92322 2.50912C5.95899 2.60928 5.76822 2.79051 5.69429 2.91213C5.53452 2.86841 5.45741 2.87 5.43834 2.83741Z" fill="#0F5D1B"/>
<path d="M12.4127 3.44312C12.5479 3.54169 12.6814 3.59097 12.7196 3.6808C12.7641 3.78493 12.7736 3.99557 12.7132 4.0377C12.4374 4.23007 12.1464 4.428 11.8309 4.52895C11.5884 4.60685 11.3587 4.23245 11.5384 4.05281C11.7824 3.80957 12.1083 3.64821 12.4119 3.44312H12.4127Z" fill="#0F5D1B"/>
<path d="M3.64744 6.48757C3.64585 6.93112 3.26033 6.81506 2.97893 6.83971C2.70787 6.80394 2.28896 6.95497 2.29214 6.48359C2.29532 6.02415 2.70549 6.13623 2.99086 6.13146C3.26986 6.12669 3.64903 6.05197 3.64744 6.48757Z" fill="#0F5D1B"/>
<path d="M11.9795 8.45652C12.2053 8.55747 12.4374 8.67353 12.6178 8.83807C12.714 8.92551 12.7848 9.19339 12.7259 9.26334C12.6385 9.36986 12.4088 9.44378 12.2736 9.40722C12.0534 9.3476 11.8531 9.19816 11.66 9.06382C11.5733 9.00341 11.5248 8.88735 11.4907 8.84046C11.4827 8.51375 11.726 8.34206 11.9795 8.45652Z" fill="#0F5D1B"/>
<path d="M3.45905 9.43265C3.21661 9.53917 2.99006 9.37463 2.9845 9.09244C2.99403 9.05826 2.99165 8.96367 3.03219 8.93823C3.31994 8.75858 3.60769 8.57417 3.91611 8.43903C3.98527 8.40883 4.19751 8.54873 4.23646 8.65048C4.2762 8.75381 4.22374 8.9589 4.13709 9.02964C3.93519 9.19498 3.69831 9.32693 3.45746 9.43265H3.45905Z" fill="#0F5D1B"/>
<path d="M3.90896 4.61559C3.60133 4.4113 3.30007 4.23325 3.0314 4.01545C2.97416 3.96934 2.98927 3.73723 3.05445 3.66251C3.13076 3.57428 3.32551 3.49559 3.4193 3.53374C3.68241 3.64105 3.93758 3.79049 4.16015 3.96775C4.24043 4.03134 4.26507 4.23484 4.23089 4.3493C4.20228 4.44548 4.05124 4.5051 3.90975 4.61639L3.90896 4.61559Z" fill="#0F5D1B"/>
<path d="M7.22923 12.1138H8.54637C8.50901 12.5574 8.26657 12.799 7.88025 12.7982C7.48996 12.7974 7.24593 12.5486 7.22923 12.1138Z" fill="#0F5D1B"/>
</g>
<path id="Vector 219" d="M6.29859 12.9443C5.12893 15.1857 2.04687 13.6614 0.861769 11.3434C2.60355 12.2524 4.04558 8.9312 6.11923 12.0203C6.11923 12.0203 4.18361 11.336 3.45883 12.039C5.394 12.1735 6.29859 12.9443 6.29859 12.9443Z" fill="#0F5D1B"/>
<path id="Vector 220" d="M9.36791 13.2529C10.5376 15.4943 13.6196 13.97 14.8047 11.652C13.063 12.561 11.6209 9.2398 9.54727 12.3288C9.54727 12.3288 11.4829 11.6446 12.2077 12.3476C10.2725 12.4821 9.36791 13.2529 9.36791 13.2529Z" fill="#0F5D1B"/>
</g>
</svg>
